<svg width="80" height="80" viewBox="0 0 80 80" fill="none" xmlns="http://www.w3.org/2000/svg">
    <path d="M78.75 20.625H72.5C72.0825 20.625 71.6925 20.8337 71.46 21.1812L64.3313 31.875H48.75V16.875C48.75 16.185 48.19 15.625 47.5 15.625H41.25C40.7762 15.625 40.3438 15.8925 40.1312 16.3163L32.3525 31.875H14.4913C12.8725 31.875 11.3513 32.505 10.2075 33.65L7.645 36.2113C7.1475 36.71 6.51875 37.0462 5.8275 37.185L4.87 37.3762C2.04875 37.9412 0 40.4387 0 43.3162C0 46.6575 2.7175 49.375 6.05875 49.375H32.3525L40.1325 64.9337C40.3438 65.3575 40.7762 65.625 41.25 65.625H47.5C48.19 65.625 48.75 65.065 48.75 64.375V49.375H53.75C53.8713 49.375 53.9925 49.3575 54.1087 49.3225L79.1087 41.8225C79.6375 41.6637 80 41.1763 80 40.625V33.125V21.875C80 21.185 79.44 20.625 78.75 20.625ZM73.1687 23.125H77.1875L70.625 31.875H67.335L73.1687 23.125ZM42.0225 18.125H46.25V31.875H35.1475L42.0225 18.125ZM46.25 48.125V63.125H42.0225L34.2425 47.5663L32.0225 43.125H46.25V48.125ZM77.5 39.695L53.5662 46.875H48.75V41.875C48.75 41.185 48.19 40.625 47.5 40.625H30C29.5662 40.625 29.165 40.85 28.9363 41.2175C28.7087 41.5862 28.6875 42.0462 28.8812 42.4337L31.1025 46.875H6.05875C4.09625 46.875 2.5 45.2787 2.5 43.3162C2.5 41.6262 3.7025 40.1588 5.36 39.8263L6.3175 39.635C7.49375 39.4 8.565 38.8263 9.4125 37.9775L11.975 35.4163C12.6475 34.745 13.5413 34.375 14.4913 34.375H33.125H47.5H77.5V39.695ZM77.5 31.875H73.75L77.5 26.875V31.875Z" fill="#76CD22"/>
    <path d="M78.75 20.625H72.5C72.0825 20.625 71.6925 20.8337 71.46 21.1812L64.3313 31.875H48.75V16.875C48.75 16.185 48.19 15.625 47.5 15.625H41.25C40.7762 15.625 40.3438 15.8925 40.1312 16.3163L32.3525 31.875H14.4913C12.8725 31.875 11.3513 32.505 10.2075 33.65L7.645 36.2113C7.1475 36.71 6.51875 37.0462 5.8275 37.185L4.87 37.3762C2.04875 37.9412 0 40.4387 0 43.3162C0 46.6575 2.7175 49.375 6.05875 49.375H32.3525L40.1325 64.9337C40.3438 65.3575 40.7762 65.625 41.25 65.625H47.5C48.19 65.625 48.75 65.065 48.75 64.375V49.375H53.75C53.8713 49.375 53.9925 49.3575 54.1087 49.3225L79.1087 41.8225C79.6375 41.6637 80 41.1763 80 40.625V33.125V21.875C80 21.185 79.44 20.625 78.75 20.625ZM73.1687 23.125H77.1875L70.625 31.875H67.335L73.1687 23.125ZM42.0225 18.125H46.25V31.875H35.1475L42.0225 18.125ZM46.25 48.125V63.125H42.0225L34.2425 47.5663L32.0225 43.125H46.25V48.125ZM77.5 39.695L53.5662 46.875H48.75V41.875C48.75 41.185 48.19 40.625 47.5 40.625H30C29.5662 40.625 29.165 40.85 28.9363 41.2175C28.7087 41.5862 28.6875 42.0462 28.8812 42.4337L31.1025 46.875H6.05875C4.09625 46.875 2.5 45.2787 2.5 43.3162C2.5 41.6262 3.7025 40.1588 5.36 39.8263L6.3175 39.635C7.49375 39.4 8.565 38.8263 9.4125 37.9775L11.975 35.4163C12.6475 34.745 13.5413 34.375 14.4913 34.375H33.125H47.5H77.5V39.695ZM77.5 31.875H73.75L77.5 26.875V31.875Z" fill="#F56960"/>
    <path d="M78.75 20.625H72.5C72.0825 20.625 71.6925 20.8337 71.46 21.1812L64.3313 31.875H48.75V16.875C48.75 16.185 48.19 15.625 47.5 15.625H41.25C40.7762 15.625 40.3438 15.8925 40.1312 16.3163L32.3525 31.875H14.4913C12.8725 31.875 11.3513 32.505 10.2075 33.65L7.645 36.2113C7.1475 36.71 6.51875 37.0462 5.8275 37.185L4.87 37.3762C2.04875 37.9412 0 40.4387 0 43.3162C0 46.6575 2.7175 49.375 6.05875 49.375H32.3525L40.1325 64.9337C40.3438 65.3575 40.7762 65.625 41.25 65.625H47.5C48.19 65.625 48.75 65.065 48.75 64.375V49.375H53.75C53.8713 49.375 53.9925 49.3575 54.1087 49.3225L79.1087 41.8225C79.6375 41.6637 80 41.1763 80 40.625V33.125V21.875C80 21.185 79.44 20.625 78.75 20.625ZM73.1687 23.125H77.1875L70.625 31.875H67.335L73.1687 23.125ZM42.0225 18.125H46.25V31.875H35.1475L42.0225 18.125ZM46.25 48.125V63.125H42.0225L34.2425 47.5663L32.0225 43.125H46.25V48.125ZM77.5 39.695L53.5662 46.875H48.75V41.875C48.75 41.185 48.19 40.625 47.5 40.625H30C29.5662 40.625 29.165 40.85 28.9363 41.2175C28.7087 41.5862 28.6875 42.0462 28.8812 42.4337L31.1025 46.875H6.05875C4.09625 46.875 2.5 45.2787 2.5 43.3162C2.5 41.6262 3.7025 40.1588 5.36 39.8263L6.3175 39.635C7.49375 39.4 8.565 38.8263 9.4125 37.9775L11.975 35.4163C12.6475 34.745 13.5413 34.375 14.4913 34.375H33.125H47.5H77.5V39.695ZM77.5 31.875H73.75L77.5 26.875V31.875Z" fill="#1B3B6F"/>
    <path d="M18.75 36.875H16.25V39.375H18.75V36.875Z" fill="#76CD22"/>
    <path d="M18.75 36.875H16.25V39.375H18.75V36.875Z" fill="#F56960"/>
    <path d="M18.75 36.875H16.25V39.375H18.75V36.875Z" fill="#1B3B6F"/>
    <path d="M23.75 36.875H21.25V39.375H23.75V36.875Z" fill="#76CD22"/>
    <path d="M23.75 36.875H21.25V39.375H23.75V36.875Z" fill="#F56960"/>
    <path d="M23.75 36.875H21.25V39.375H23.75V36.875Z" fill="#1B3B6F"/>
    <path d="M28.75 36.875H26.25V39.375H28.75V36.875Z" fill="#76CD22"/>
    <path d="M28.75 36.875H26.25V39.375H28.75V36.875Z" fill="#F56960"/>
    <path d="M28.75 36.875H26.25V39.375H28.75V36.875Z" fill="#1B3B6F"/>
    <path d="M33.75 36.875H31.25V39.375H33.75V36.875Z" fill="#76CD22"/>
    <path d="M33.75 36.875H31.25V39.375H33.75V36.875Z" fill="#F56960"/>
    <path d="M33.75 36.875H31.25V39.375H33.75V36.875Z" fill="#1B3B6F"/>
    <path d="M38.75 36.875H36.25V39.375H38.75V36.875Z" fill="#76CD22"/>
    <path d="M38.75 36.875H36.25V39.375H38.75V36.875Z" fill="#F56960"/>
    <path d="M38.75 36.875H36.25V39.375H38.75V36.875Z" fill="#1B3B6F"/>
    <path d="M43.75 36.875H41.25V39.375H43.75V36.875Z" fill="#76CD22"/>
    <path d="M43.75 36.875H41.25V39.375H43.75V36.875Z" fill="#F56960"/>
    <path d="M43.75 36.875H41.25V39.375H43.75V36.875Z" fill="#1B3B6F"/>
    <path d="M48.75 36.875H46.25V39.375H48.75V36.875Z" fill="#76CD22"/>
    <path d="M48.75 36.875H46.25V39.375H48.75V36.875Z" fill="#F56960"/>
    <path d="M48.75 36.875H46.25V39.375H48.75V36.875Z" fill="#1B3B6F"/>
    <path d="M53.75 36.875H51.25V39.375H53.75V36.875Z" fill="#76CD22"/>
    <path d="M53.75 36.875H51.25V39.375H53.75V36.875Z" fill="#F56960"/>
    <path d="M53.75 36.875H51.25V39.375H53.75V36.875Z" fill="#1B3B6F"/>
    <path d="M58.75 36.875H56.25V39.375H58.75V36.875Z" fill="#76CD22"/>
    <path d="M58.75 36.875H56.25V39.375H58.75V36.875Z" fill="#F56960"/>
    <path d="M58.75 36.875H56.25V39.375H58.75V36.875Z" fill="#1B3B6F"/>
    <path d="M63.75 36.875H61.25V39.375H63.75V36.875Z" fill="#76CD22"/>
    <path d="M63.75 36.875H61.25V39.375H63.75V36.875Z" fill="#F56960"/>
    <path d="M63.75 36.875H61.25V39.375H63.75V36.875Z" fill="#1B3B6F"/>
    <path d="M38.75 10.625H20V13.125H38.75V10.625Z" fill="#76CD22"/>
    <path d="M38.75 10.625H20V13.125H38.75V10.625Z" fill="#F56960"/>
    <path d="M38.75 10.625H20V13.125H38.75V10.625Z" fill="#1B3B6F"/>
    <path d="M43.75 10.625H41.25V13.125H43.75V10.625Z" fill="#76CD22"/>
    <path d="M43.75 10.625H41.25V13.125H43.75V10.625Z" fill="#F56960"/>
    <path d="M43.75 10.625H41.25V13.125H43.75V10.625Z" fill="#1B3B6F"/>
    <path d="M48.75 10.625H46.25V13.125H48.75V10.625Z" fill="#76CD22"/>
    <path d="M48.75 10.625H46.25V13.125H48.75V10.625Z" fill="#F56960"/>
    <path d="M48.75 10.625H46.25V13.125H48.75V10.625Z" fill="#1B3B6F"/>
    <path d="M70 53.125H53.75V55.625H70V53.125Z" fill="#76CD22"/>
    <path d="M70 53.125H53.75V55.625H70V53.125Z" fill="#F56960"/>
    <path d="M70 53.125H53.75V55.625H70V53.125Z" fill="#1B3B6F"/>
    <path d="M75 53.125H72.5V55.625H75V53.125Z" fill="#76CD22"/>
    <path d="M75 53.125H72.5V55.625H75V53.125Z" fill="#F56960"/>
    <path d="M75 53.125H72.5V55.625H75V53.125Z" fill="#1B3B6F"/>
    <path d="M80 53.125H77.5V55.625H80V53.125Z" fill="#76CD22"/>
    <path d="M80 53.125H77.5V55.625H80V53.125Z" fill="#F56960"/>
    <path d="M80 53.125H77.5V55.625H80V53.125Z" fill="#1B3B6F"/>
    <path d="M22.5 66.875H6.25V69.375H22.5V66.875Z" fill="#76CD22"/>
    <path d="M22.5 66.875H6.25V69.375H22.5V66.875Z" fill="#F56960"/>
    <path d="M22.5 66.875H6.25V69.375H22.5V66.875Z" fill="#1B3B6F"/>
    <path d="M27.5 66.875H25V69.375H27.5V66.875Z" fill="#76CD22"/>
    <path d="M27.5 66.875H25V69.375H27.5V66.875Z" fill="#F56960"/>
    <path d="M27.5 66.875H25V69.375H27.5V66.875Z" fill="#1B3B6F"/>
    <path d="M32.5 66.875H30V69.375H32.5V66.875Z" fill="#76CD22"/>
    <path d="M32.5 66.875H30V69.375H32.5V66.875Z" fill="#F56960"/>
    <path d="M32.5 66.875H30V69.375H32.5V66.875Z" fill="#1B3B6F"/>
    <path d="M53.75 10.625H51.25V13.125H53.75V10.625Z" fill="#76CD22"/>
    <path d="M53.75 10.625H51.25V13.125H53.75V10.625Z" fill="#F56960"/>
    <path d="M53.75 10.625H51.25V13.125H53.75V10.625Z" fill="#1B3B6F"/>
</svg>
