<svg width="80" height="80" viewBox="0 0 80 80" fill="none" xmlns="http://www.w3.org/2000/svg">
    <path d="M77.3333 77.3332V19.9998C77.3333 19.2638 76.7373 18.6665 76 18.6665H65.3333C64.596 18.6665 64 19.2638 64 19.9998V77.3332H57.3333V27.9998C57.3333 27.2638 56.7373 26.6665 56 26.6665H45.3333C44.596 26.6665 44 27.2638 44 27.9998V77.3332H36V35.9998C36 35.2638 35.404 34.6665 34.6667 34.6665H24C23.2627 34.6665 22.6667 35.2638 22.6667 35.9998V77.3332H16V43.9998C16 43.2638 15.404 42.6665 14.6667 42.6665H4C3.26267 42.6665 2.66667 43.2638 2.66667 43.9998V77.3332H0V79.9998H4H14.6667H24H34.6667H45.3333H56H65.3333H76H80V77.3332H77.3333ZM13.3333 77.3332H5.33333V45.3332H13.3333V77.3332ZM33.3333 77.3332H25.3333V37.3332H33.3333V77.3332ZM54.6667 77.3332H46.6667V29.3332H54.6667V77.3332ZM74.6667 77.3332H66.6667V21.3332H74.6667V77.3332Z" fill="#76CD22"/>
    <path d="M77.3333 77.3332V19.9998C77.3333 19.2638 76.7373 18.6665 76 18.6665H65.3333C64.596 18.6665 64 19.2638 64 19.9998V77.3332H57.3333V27.9998C57.3333 27.2638 56.7373 26.6665 56 26.6665H45.3333C44.596 26.6665 44 27.2638 44 27.9998V77.3332H36V35.9998C36 35.2638 35.404 34.6665 34.6667 34.6665H24C23.2627 34.6665 22.6667 35.2638 22.6667 35.9998V77.3332H16V43.9998C16 43.2638 15.404 42.6665 14.6667 42.6665H4C3.26267 42.6665 2.66667 43.2638 2.66667 43.9998V77.3332H0V79.9998H4H14.6667H24H34.6667H45.3333H56H65.3333H76H80V77.3332H77.3333ZM13.3333 77.3332H5.33333V45.3332H13.3333V77.3332ZM33.3333 77.3332H25.3333V37.3332H33.3333V77.3332ZM54.6667 77.3332H46.6667V29.3332H54.6667V77.3332ZM74.6667 77.3332H66.6667V21.3332H74.6667V77.3332Z" fill="#F56960"/>
    <path d="M77.3333 77.3332V19.9998C77.3333 19.2638 76.7373 18.6665 76 18.6665H65.3333C64.596 18.6665 64 19.2638 64 19.9998V77.3332H57.3333V27.9998C57.3333 27.2638 56.7373 26.6665 56 26.6665H45.3333C44.596 26.6665 44 27.2638 44 27.9998V77.3332H36V35.9998C36 35.2638 35.404 34.6665 34.6667 34.6665H24C23.2627 34.6665 22.6667 35.2638 22.6667 35.9998V77.3332H16V43.9998C16 43.2638 15.404 42.6665 14.6667 42.6665H4C3.26267 42.6665 2.66667 43.2638 2.66667 43.9998V77.3332H0V79.9998H4H14.6667H24H34.6667H45.3333H56H65.3333H76H80V77.3332H77.3333ZM13.3333 77.3332H5.33333V45.3332H13.3333V77.3332ZM33.3333 77.3332H25.3333V37.3332H33.3333V77.3332ZM54.6667 77.3332H46.6667V29.3332H54.6667V77.3332ZM74.6667 77.3332H66.6667V21.3332H74.6667V77.3332Z" fill="#1B3B6F"/>
    <path d="M70.6668 0C68.4615 0 66.6668 1.79467 66.6668 4C66.6668 4.05333 66.6802 4.104 66.6828 4.15733L53.6562 9.368C52.9215 8.536 51.8602 8 50.6668 8C48.4615 8 46.6668 9.79467 46.6668 12C46.6668 12.2333 46.6975 12.4587 46.7362 12.6813L31.9495 20.9987C31.2468 20.3853 30.3375 20 29.3335 20C27.1282 20 25.3335 21.7947 25.3335 24C25.3335 24.2027 25.3642 24.396 25.3935 24.5907L12.0202 31.7227C11.3082 31.0733 10.3708 30.6667 9.3335 30.6667C7.12816 30.6667 5.3335 32.4613 5.3335 34.6667C5.3335 36.872 7.12816 38.6667 9.3335 38.6667C11.5388 38.6667 13.3335 36.872 13.3335 34.6667C13.3335 34.464 13.3028 34.2707 13.2735 34.076L26.6468 26.944C27.3588 27.5933 28.2962 28 29.3335 28C31.5388 28 33.3335 26.2053 33.3335 24C33.3335 23.7667 33.3028 23.5413 33.2642 23.3187L48.0508 15.0013C48.7535 15.6147 49.6628 16 50.6668 16C52.4948 16 54.0242 14.76 54.4988 13.0827L54.5055 13.084C54.5122 13.06 54.5148 13.0373 54.5215 13.0133C54.5548 12.8893 54.5828 12.7653 54.6028 12.636C54.6415 12.4187 54.6668 12.2053 54.6668 12C54.6668 11.9453 54.6655 11.892 54.6628 11.8373L67.6775 6.632C68.4122 7.464 69.4735 8 70.6668 8C72.8722 8 74.6668 6.20533 74.6668 4C74.6668 1.79467 72.8722 0 70.6668 0ZM9.3335 36C8.5975 36 8.00016 35.4013 8.00016 34.6667C8.00016 33.932 8.5975 33.3333 9.3335 33.3333C10.0695 33.3333 10.6668 33.932 10.6668 34.6667C10.6668 35.4013 10.0695 36 9.3335 36ZM29.3335 25.3333C28.5975 25.3333 28.0002 24.7347 28.0002 24C28.0002 23.2653 28.5975 22.6667 29.3335 22.6667C29.8468 22.6667 30.2802 22.968 30.5028 23.3933C30.5402 23.4627 30.5628 23.5293 30.5855 23.5933C30.6268 23.724 30.6668 23.856 30.6668 24C30.6668 24.7347 30.0695 25.3333 29.3335 25.3333ZM50.6668 13.3333C49.9308 13.3333 49.3335 12.7347 49.3335 12C49.3335 11.2653 49.9308 10.6667 50.6668 10.6667C51.4028 10.6667 52.0002 11.2653 52.0002 12C52.0002 12.7347 51.4028 13.3333 50.6668 13.3333ZM70.6668 5.33333C69.9308 5.33333 69.3335 4.73467 69.3335 4C69.3335 3.26533 69.9308 2.66667 70.6668 2.66667C71.4028 2.66667 72.0002 3.26533 72.0002 4C72.0002 4.73467 71.4028 5.33333 70.6668 5.33333Z" fill="#76CD22"/>
    <path d="M70.6668 0C68.4615 0 66.6668 1.79467 66.6668 4C66.6668 4.05333 66.6802 4.104 66.6828 4.15733L53.6562 9.368C52.9215 8.536 51.8602 8 50.6668 8C48.4615 8 46.6668 9.79467 46.6668 12C46.6668 12.2333 46.6975 12.4587 46.7362 12.6813L31.9495 20.9987C31.2468 20.3853 30.3375 20 29.3335 20C27.1282 20 25.3335 21.7947 25.3335 24C25.3335 24.2027 25.3642 24.396 25.3935 24.5907L12.0202 31.7227C11.3082 31.0733 10.3708 30.6667 9.3335 30.6667C7.12816 30.6667 5.3335 32.4613 5.3335 34.6667C5.3335 36.872 7.12816 38.6667 9.3335 38.6667C11.5388 38.6667 13.3335 36.872 13.3335 34.6667C13.3335 34.464 13.3028 34.2707 13.2735 34.076L26.6468 26.944C27.3588 27.5933 28.2962 28 29.3335 28C31.5388 28 33.3335 26.2053 33.3335 24C33.3335 23.7667 33.3028 23.5413 33.2642 23.3187L48.0508 15.0013C48.7535 15.6147 49.6628 16 50.6668 16C52.4948 16 54.0242 14.76 54.4988 13.0827L54.5055 13.084C54.5122 13.06 54.5148 13.0373 54.5215 13.0133C54.5548 12.8893 54.5828 12.7653 54.6028 12.636C54.6415 12.4187 54.6668 12.2053 54.6668 12C54.6668 11.9453 54.6655 11.892 54.6628 11.8373L67.6775 6.632C68.4122 7.464 69.4735 8 70.6668 8C72.8722 8 74.6668 6.20533 74.6668 4C74.6668 1.79467 72.8722 0 70.6668 0ZM9.3335 36C8.5975 36 8.00016 35.4013 8.00016 34.6667C8.00016 33.932 8.5975 33.3333 9.3335 33.3333C10.0695 33.3333 10.6668 33.932 10.6668 34.6667C10.6668 35.4013 10.0695 36 9.3335 36ZM29.3335 25.3333C28.5975 25.3333 28.0002 24.7347 28.0002 24C28.0002 23.2653 28.5975 22.6667 29.3335 22.6667C29.8468 22.6667 30.2802 22.968 30.5028 23.3933C30.5402 23.4627 30.5628 23.5293 30.5855 23.5933C30.6268 23.724 30.6668 23.856 30.6668 24C30.6668 24.7347 30.0695 25.3333 29.3335 25.3333ZM50.6668 13.3333C49.9308 13.3333 49.3335 12.7347 49.3335 12C49.3335 11.2653 49.9308 10.6667 50.6668 10.6667C51.4028 10.6667 52.0002 11.2653 52.0002 12C52.0002 12.7347 51.4028 13.3333 50.6668 13.3333ZM70.6668 5.33333C69.9308 5.33333 69.3335 4.73467 69.3335 4C69.3335 3.26533 69.9308 2.66667 70.6668 2.66667C71.4028 2.66667 72.0002 3.26533 72.0002 4C72.0002 4.73467 71.4028 5.33333 70.6668 5.33333Z" fill="#F56960"/>
    <path d="M70.6668 0C68.4615 0 66.6668 1.79467 66.6668 4C66.6668 4.05333 66.6802 4.104 66.6828 4.15733L53.6562 9.368C52.9215 8.536 51.8602 8 50.6668 8C48.4615 8 46.6668 9.79467 46.6668 12C46.6668 12.2333 46.6975 12.4587 46.7362 12.6813L31.9495 20.9987C31.2468 20.3853 30.3375 20 29.3335 20C27.1282 20 25.3335 21.7947 25.3335 24C25.3335 24.2027 25.3642 24.396 25.3935 24.5907L12.0202 31.7227C11.3082 31.0733 10.3708 30.6667 9.3335 30.6667C7.12816 30.6667 5.3335 32.4613 5.3335 34.6667C5.3335 36.872 7.12816 38.6667 9.3335 38.6667C11.5388 38.6667 13.3335 36.872 13.3335 34.6667C13.3335 34.464 13.3028 34.2707 13.2735 34.076L26.6468 26.944C27.3588 27.5933 28.2962 28 29.3335 28C31.5388 28 33.3335 26.2053 33.3335 24C33.3335 23.7667 33.3028 23.5413 33.2642 23.3187L48.0508 15.0013C48.7535 15.6147 49.6628 16 50.6668 16C52.4948 16 54.0242 14.76 54.4988 13.0827L54.5055 13.084C54.5122 13.06 54.5148 13.0373 54.5215 13.0133C54.5548 12.8893 54.5828 12.7653 54.6028 12.636C54.6415 12.4187 54.6668 12.2053 54.6668 12C54.6668 11.9453 54.6655 11.892 54.6628 11.8373L67.6775 6.632C68.4122 7.464 69.4735 8 70.6668 8C72.8722 8 74.6668 6.20533 74.6668 4C74.6668 1.79467 72.8722 0 70.6668 0ZM9.3335 36C8.5975 36 8.00016 35.4013 8.00016 34.6667C8.00016 33.932 8.5975 33.3333 9.3335 33.3333C10.0695 33.3333 10.6668 33.932 10.6668 34.6667C10.6668 35.4013 10.0695 36 9.3335 36ZM29.3335 25.3333C28.5975 25.3333 28.0002 24.7347 28.0002 24C28.0002 23.2653 28.5975 22.6667 29.3335 22.6667C29.8468 22.6667 30.2802 22.968 30.5028 23.3933C30.5402 23.4627 30.5628 23.5293 30.5855 23.5933C30.6268 23.724 30.6668 23.856 30.6668 24C30.6668 24.7347 30.0695 25.3333 29.3335 25.3333ZM50.6668 13.3333C49.9308 13.3333 49.3335 12.7347 49.3335 12C49.3335 11.2653 49.9308 10.6667 50.6668 10.6667C51.4028 10.6667 52.0002 11.2653 52.0002 12C52.0002 12.7347 51.4028 13.3333 50.6668 13.3333ZM70.6668 5.33333C69.9308 5.33333 69.3335 4.73467 69.3335 4C69.3335 3.26533 69.9308 2.66667 70.6668 2.66667C71.4028 2.66667 72.0002 3.26533 72.0002 4C72.0002 4.73467 71.4028 5.33333 70.6668 5.33333Z" fill="#1B3B6F"/>
</svg>
