<svg width="78" height="74" viewBox="0 0 78 74" fill="none" xmlns="http://www.w3.org/2000/svg">
    <path d="M74.1 30.8333H65V23.2064C66.5093 22.6958 67.6 21.3391 67.6 19.7333C67.6 17.6934 65.8502 16.0333 63.7 16.0333C61.5498 16.0333 59.8 17.6934 59.8 19.7333C59.8 21.3391 60.8907 22.6958 62.4 23.2064V30.8333H49.4V9.86667V1.23333C49.4 0.5513 48.8189 0 48.1 0H27.3C26.5811 0 26 0.5513 26 1.23333V9.86667V30.8333H13V23.4333H18.4301C21.1705 23.4333 23.4 21.2207 23.4 18.5C23.4 16.1653 21.7568 14.2043 19.5598 13.6949C19.0411 12.0595 17.329 10.899 15.5441 11.1259C14.5886 8.9022 12.3864 7.4 9.8644 7.4C6.4493 7.4 3.6699 10.1664 3.6699 13.5667C3.6699 13.6234 3.6712 13.6801 3.6751 13.7369C1.56 14.3042 0 16.2233 0 18.5C0 21.2207 2.2295 23.4333 4.9699 23.4333H10.4V30.8333H1.3C0.5811 30.8333 0 31.3846 0 32.0667V72.7667C0 73.4487 0.5811 74 1.3 74H6.5H22.1H27.3H32.5H42.9H48.1H53.3H68.9H74.1C74.8189 74 75.4 73.4487 75.4 72.7667V32.0667C75.4 31.3846 74.8189 30.8333 74.1 30.8333ZM4.9699 20.9667C3.6634 20.9667 2.6 19.8604 2.6 18.5C2.6 17.1396 3.6634 16.0333 4.9699 16.0333C5.6888 16.0333 6.2699 15.482 6.2699 14.8C6.2699 14.6939 6.2881 14.5916 6.3011 14.4892L6.3232 14.3276C6.3349 14.2314 6.3349 14.1352 6.3232 14.039L6.3011 13.8775C6.2881 13.7751 6.2699 13.6727 6.2699 13.5667C6.2699 11.5267 7.8819 9.86667 9.8644 9.86667C11.6064 9.86667 13.0897 11.1543 13.3926 12.9278C13.4641 13.3459 13.7553 13.6999 14.1648 13.8664C14.5769 14.0329 15.0462 13.9872 15.4128 13.748C16.2032 13.2312 17.1301 13.9108 17.1301 14.8C17.1301 15.482 17.7112 16.0333 18.4301 16.0333C19.7366 16.0333 20.8 17.1396 20.8 18.5C20.8 19.8604 19.7366 20.9667 18.4301 20.9667H4.9699ZM20.8 71.5333H7.8V59.2H20.8V71.5333ZM26 71.5333H23.4V57.9667C23.4 57.2846 22.8189 56.7333 22.1 56.7333H6.5C5.7811 56.7333 5.2 57.2846 5.2 57.9667V71.5333H2.6V33.3H26V71.5333ZM41.6 71.5333H33.8V59.2H41.6V71.5333ZM46.8 32.0667V71.5333H44.2V57.9667C44.2 57.2846 43.6189 56.7333 42.9 56.7333H32.5C31.7811 56.7333 31.2 57.2846 31.2 57.9667V71.5333H28.6V32.0667V11.1H46.8V32.0667ZM46.8 8.63333H28.6V2.46667H46.8V8.63333ZM63.7 18.5C64.4176 18.5 65 19.0525 65 19.7333C65 20.4141 64.4176 20.9667 63.7 20.9667C62.9824 20.9667 62.4 20.4141 62.4 19.7333C62.4 19.0525 62.9824 18.5 63.7 18.5ZM67.6 71.5333H54.6V59.2H67.6V71.5333ZM72.8 71.5333H70.2V57.9667C70.2 57.2846 69.6189 56.7333 68.9 56.7333H53.3C52.5811 56.7333 52 57.2846 52 57.9667V71.5333H49.4V33.3H72.8V71.5333Z" fill="#76CD22"/>
    <path d="M74.1 30.8333H65V23.2064C66.5093 22.6958 67.6 21.3391 67.6 19.7333C67.6 17.6934 65.8502 16.0333 63.7 16.0333C61.5498 16.0333 59.8 17.6934 59.8 19.7333C59.8 21.3391 60.8907 22.6958 62.4 23.2064V30.8333H49.4V9.86667V1.23333C49.4 0.5513 48.8189 0 48.1 0H27.3C26.5811 0 26 0.5513 26 1.23333V9.86667V30.8333H13V23.4333H18.4301C21.1705 23.4333 23.4 21.2207 23.4 18.5C23.4 16.1653 21.7568 14.2043 19.5598 13.6949C19.0411 12.0595 17.329 10.899 15.5441 11.1259C14.5886 8.9022 12.3864 7.4 9.8644 7.4C6.4493 7.4 3.6699 10.1664 3.6699 13.5667C3.6699 13.6234 3.6712 13.6801 3.6751 13.7369C1.56 14.3042 0 16.2233 0 18.5C0 21.2207 2.2295 23.4333 4.9699 23.4333H10.4V30.8333H1.3C0.5811 30.8333 0 31.3846 0 32.0667V72.7667C0 73.4487 0.5811 74 1.3 74H6.5H22.1H27.3H32.5H42.9H48.1H53.3H68.9H74.1C74.8189 74 75.4 73.4487 75.4 72.7667V32.0667C75.4 31.3846 74.8189 30.8333 74.1 30.8333ZM4.9699 20.9667C3.6634 20.9667 2.6 19.8604 2.6 18.5C2.6 17.1396 3.6634 16.0333 4.9699 16.0333C5.6888 16.0333 6.2699 15.482 6.2699 14.8C6.2699 14.6939 6.2881 14.5916 6.3011 14.4892L6.3232 14.3276C6.3349 14.2314 6.3349 14.1352 6.3232 14.039L6.3011 13.8775C6.2881 13.7751 6.2699 13.6727 6.2699 13.5667C6.2699 11.5267 7.8819 9.86667 9.8644 9.86667C11.6064 9.86667 13.0897 11.1543 13.3926 12.9278C13.4641 13.3459 13.7553 13.6999 14.1648 13.8664C14.5769 14.0329 15.0462 13.9872 15.4128 13.748C16.2032 13.2312 17.1301 13.9108 17.1301 14.8C17.1301 15.482 17.7112 16.0333 18.4301 16.0333C19.7366 16.0333 20.8 17.1396 20.8 18.5C20.8 19.8604 19.7366 20.9667 18.4301 20.9667H4.9699ZM20.8 71.5333H7.8V59.2H20.8V71.5333ZM26 71.5333H23.4V57.9667C23.4 57.2846 22.8189 56.7333 22.1 56.7333H6.5C5.7811 56.7333 5.2 57.2846 5.2 57.9667V71.5333H2.6V33.3H26V71.5333ZM41.6 71.5333H33.8V59.2H41.6V71.5333ZM46.8 32.0667V71.5333H44.2V57.9667C44.2 57.2846 43.6189 56.7333 42.9 56.7333H32.5C31.7811 56.7333 31.2 57.2846 31.2 57.9667V71.5333H28.6V32.0667V11.1H46.8V32.0667ZM46.8 8.63333H28.6V2.46667H46.8V8.63333ZM63.7 18.5C64.4176 18.5 65 19.0525 65 19.7333C65 20.4141 64.4176 20.9667 63.7 20.9667C62.9824 20.9667 62.4 20.4141 62.4 19.7333C62.4 19.0525 62.9824 18.5 63.7 18.5ZM67.6 71.5333H54.6V59.2H67.6V71.5333ZM72.8 71.5333H70.2V57.9667C70.2 57.2846 69.6189 56.7333 68.9 56.7333H53.3C52.5811 56.7333 52 57.2846 52 57.9667V71.5333H49.4V33.3H72.8V71.5333Z" fill="#F56960"/>
    <path d="M74.1 30.8333H65V23.2064C66.5093 22.6958 67.6 21.3391 67.6 19.7333C67.6 17.6934 65.8502 16.0333 63.7 16.0333C61.5498 16.0333 59.8 17.6934 59.8 19.7333C59.8 21.3391 60.8907 22.6958 62.4 23.2064V30.8333H49.4V9.86667V1.23333C49.4 0.5513 48.8189 0 48.1 0H27.3C26.5811 0 26 0.5513 26 1.23333V9.86667V30.8333H13V23.4333H18.4301C21.1705 23.4333 23.4 21.2207 23.4 18.5C23.4 16.1653 21.7568 14.2043 19.5598 13.6949C19.0411 12.0595 17.329 10.899 15.5441 11.1259C14.5886 8.9022 12.3864 7.4 9.8644 7.4C6.4493 7.4 3.6699 10.1664 3.6699 13.5667C3.6699 13.6234 3.6712 13.6801 3.6751 13.7369C1.56 14.3042 0 16.2233 0 18.5C0 21.2207 2.2295 23.4333 4.9699 23.4333H10.4V30.8333H1.3C0.5811 30.8333 0 31.3846 0 32.0667V72.7667C0 73.4487 0.5811 74 1.3 74H6.5H22.1H27.3H32.5H42.9H48.1H53.3H68.9H74.1C74.8189 74 75.4 73.4487 75.4 72.7667V32.0667C75.4 31.3846 74.8189 30.8333 74.1 30.8333ZM4.9699 20.9667C3.6634 20.9667 2.6 19.8604 2.6 18.5C2.6 17.1396 3.6634 16.0333 4.9699 16.0333C5.6888 16.0333 6.2699 15.482 6.2699 14.8C6.2699 14.6939 6.2881 14.5916 6.3011 14.4892L6.3232 14.3276C6.3349 14.2314 6.3349 14.1352 6.3232 14.039L6.3011 13.8775C6.2881 13.7751 6.2699 13.6727 6.2699 13.5667C6.2699 11.5267 7.8819 9.86667 9.8644 9.86667C11.6064 9.86667 13.0897 11.1543 13.3926 12.9278C13.4641 13.3459 13.7553 13.6999 14.1648 13.8664C14.5769 14.0329 15.0462 13.9872 15.4128 13.748C16.2032 13.2312 17.1301 13.9108 17.1301 14.8C17.1301 15.482 17.7112 16.0333 18.4301 16.0333C19.7366 16.0333 20.8 17.1396 20.8 18.5C20.8 19.8604 19.7366 20.9667 18.4301 20.9667H4.9699ZM20.8 71.5333H7.8V59.2H20.8V71.5333ZM26 71.5333H23.4V57.9667C23.4 57.2846 22.8189 56.7333 22.1 56.7333H6.5C5.7811 56.7333 5.2 57.2846 5.2 57.9667V71.5333H2.6V33.3H26V71.5333ZM41.6 71.5333H33.8V59.2H41.6V71.5333ZM46.8 32.0667V71.5333H44.2V57.9667C44.2 57.2846 43.6189 56.7333 42.9 56.7333H32.5C31.7811 56.7333 31.2 57.2846 31.2 57.9667V71.5333H28.6V32.0667V11.1H46.8V32.0667ZM46.8 8.63333H28.6V2.46667H46.8V8.63333ZM63.7 18.5C64.4176 18.5 65 19.0525 65 19.7333C65 20.4141 64.4176 20.9667 63.7 20.9667C62.9824 20.9667 62.4 20.4141 62.4 19.7333C62.4 19.0525 62.9824 18.5 63.7 18.5ZM67.6 71.5333H54.6V59.2H67.6V71.5333ZM72.8 71.5333H70.2V57.9667C70.2 57.2846 69.6189 56.7333 68.9 56.7333H53.3C52.5811 56.7333 52 57.2846 52 57.9667V71.5333H49.4V33.3H72.8V71.5333Z" fill="#1B3B6F"/>
    <path d="M33.8002 13.5664H31.2002V20.9664H33.8002V13.5664Z" fill="#76CD22"/>
    <path d="M33.8002 13.5664H31.2002V20.9664H33.8002V13.5664Z" fill="#F56960"/>
    <path d="M33.8002 13.5664H31.2002V20.9664H33.8002V13.5664Z" fill="#1B3B6F"/>
    <path d="M38.9999 13.5664H36.3999V20.9664H38.9999V13.5664Z" fill="#76CD22"/>
    <path d="M38.9999 13.5664H36.3999V20.9664H38.9999V13.5664Z" fill="#F56960"/>
    <path d="M38.9999 13.5664H36.3999V20.9664H38.9999V13.5664Z" fill="#1B3B6F"/>
    <path d="M44.2001 13.5664H41.6001V20.9664H44.2001V13.5664Z" fill="#76CD22"/>
    <path d="M44.2001 13.5664H41.6001V20.9664H44.2001V13.5664Z" fill="#F56960"/>
    <path d="M44.2001 13.5664H41.6001V20.9664H44.2001V13.5664Z" fill="#1B3B6F"/>
    <path d="M33.8002 24.6667H31.2002V32.0667H33.8002V24.6667Z" fill="#76CD22"/>
    <path d="M33.8002 24.6667H31.2002V32.0667H33.8002V24.6667Z" fill="#F56960"/>
    <path d="M33.8002 24.6667H31.2002V32.0667H33.8002V24.6667Z" fill="#1B3B6F"/>
    <path d="M38.9999 24.6667H36.3999V32.0667H38.9999V24.6667Z" fill="#76CD22"/>
    <path d="M38.9999 24.6667H36.3999V32.0667H38.9999V24.6667Z" fill="#F56960"/>
    <path d="M38.9999 24.6667H36.3999V32.0667H38.9999V24.6667Z" fill="#1B3B6F"/>
    <path d="M44.2001 24.6667H41.6001V32.0667H44.2001V24.6667Z" fill="#76CD22"/>
    <path d="M44.2001 24.6667H41.6001V32.0667H44.2001V24.6667Z" fill="#F56960"/>
    <path d="M44.2001 24.6667H41.6001V32.0667H44.2001V24.6667Z" fill="#1B3B6F"/>
    <path d="M33.8002 35.7666H31.2002V43.1666H33.8002V35.7666Z" fill="#76CD22"/>
    <path d="M33.8002 35.7666H31.2002V43.1666H33.8002V35.7666Z" fill="#F56960"/>
    <path d="M33.8002 35.7666H31.2002V43.1666H33.8002V35.7666Z" fill="#1B3B6F"/>
    <path d="M38.9999 35.7666H36.3999V43.1666H38.9999V35.7666Z" fill="#76CD22"/>
    <path d="M38.9999 35.7666H36.3999V43.1666H38.9999V35.7666Z" fill="#F56960"/>
    <path d="M38.9999 35.7666H36.3999V43.1666H38.9999V35.7666Z" fill="#1B3B6F"/>
    <path d="M44.2001 35.7666H41.6001V43.1666H44.2001V35.7666Z" fill="#76CD22"/>
    <path d="M44.2001 35.7666H41.6001V43.1666H44.2001V35.7666Z" fill="#F56960"/>
    <path d="M44.2001 35.7666H41.6001V43.1666H44.2001V35.7666Z" fill="#1B3B6F"/>
    <path d="M33.8002 46.8667H31.2002V54.2667H33.8002V46.8667Z" fill="#76CD22"/>
    <path d="M33.8002 46.8667H31.2002V54.2667H33.8002V46.8667Z" fill="#F56960"/>
    <path d="M33.8002 46.8667H31.2002V54.2667H33.8002V46.8667Z" fill="#1B3B6F"/>
    <path d="M38.9999 46.8667H36.3999V54.2667H38.9999V46.8667Z" fill="#76CD22"/>
    <path d="M38.9999 46.8667H36.3999V54.2667H38.9999V46.8667Z" fill="#F56960"/>
    <path d="M38.9999 46.8667H36.3999V54.2667H38.9999V46.8667Z" fill="#1B3B6F"/>
    <path d="M44.2001 46.8667H41.6001V54.2667H44.2001V46.8667Z" fill="#76CD22"/>
    <path d="M44.2001 46.8667H41.6001V54.2667H44.2001V46.8667Z" fill="#F56960"/>
    <path d="M44.2001 46.8667H41.6001V54.2667H44.2001V46.8667Z" fill="#1B3B6F"/>
    <path d="M7.79971 35.9148H5.19971V43.1606H7.79971V35.9148Z" fill="#76CD22"/>
    <path d="M7.79971 35.9148H5.19971V43.1606H7.79971V35.9148Z" fill="#F56960"/>
    <path d="M7.79971 35.9148H5.19971V43.1606H7.79971V35.9148Z" fill="#1B3B6F"/>
    <path d="M18.2001 35.7666H15.6001V43.1666H18.2001V35.7666Z" fill="#76CD22"/>
    <path d="M18.2001 35.7666H15.6001V43.1666H18.2001V35.7666Z" fill="#F56960"/>
    <path d="M18.2001 35.7666H15.6001V43.1666H18.2001V35.7666Z" fill="#1B3B6F"/>
    <path d="M23.3998 35.7666H20.7998V43.1666H23.3998V35.7666Z" fill="#76CD22"/>
    <path d="M23.3998 35.7666H20.7998V43.1666H23.3998V35.7666Z" fill="#F56960"/>
    <path d="M23.3998 35.7666H20.7998V43.1666H23.3998V35.7666Z" fill="#1B3B6F"/>
    <path d="M63.7003 11.1001C61.762 11.1001 59.9849 12.183 58.6953 14.1489L60.904 15.4525C61.7009 14.2365 62.6941 13.5668 63.7003 13.5668C64.7065 13.5668 65.6997 14.2365 66.4953 15.4513L68.704 14.1477C67.4157 12.183 65.6386 11.1001 63.7003 11.1001Z" fill="#76CD22"/>
    <path d="M63.7003 11.1001C61.762 11.1001 59.9849 12.183 58.6953 14.1489L60.904 15.4525C61.7009 14.2365 62.6941 13.5668 63.7003 13.5668C64.7065 13.5668 65.6997 14.2365 66.4953 15.4513L68.704 14.1477C67.4157 12.183 65.6386 11.1001 63.7003 11.1001Z" fill="#F56960"/>
    <path d="M63.7003 11.1001C61.762 11.1001 59.9849 12.183 58.6953 14.1489L60.904 15.4525C61.7009 14.2365 62.6941 13.5668 63.7003 13.5668C64.7065 13.5668 65.6997 14.2365 66.4953 15.4513L68.704 14.1477C67.4157 12.183 65.6386 11.1001 63.7003 11.1001Z" fill="#1B3B6F"/>
    <path d="M63.6999 6.1665C60.3615 6.1665 57.235 7.6391 54.8989 10.3117L56.8996 11.8867C58.7352 9.7888 61.1493 8.63317 63.6999 8.63317C66.2505 8.63317 68.6646 9.7888 70.4989 11.8879L72.4996 10.313C70.1648 7.6391 67.0383 6.1665 63.6999 6.1665Z" fill="#76CD22"/>
    <path d="M63.6999 6.1665C60.3615 6.1665 57.235 7.6391 54.8989 10.3117L56.8996 11.8867C58.7352 9.7888 61.1493 8.63317 63.6999 8.63317C66.2505 8.63317 68.6646 9.7888 70.4989 11.8879L72.4996 10.313C70.1648 7.6391 67.0383 6.1665 63.6999 6.1665Z" fill="#F56960"/>
    <path d="M63.6999 6.1665C60.3615 6.1665 57.235 7.6391 54.8989 10.3117L56.8996 11.8867C58.7352 9.7888 61.1493 8.63317 63.6999 8.63317C66.2505 8.63317 68.6646 9.7888 70.4989 11.8879L72.4996 10.313C70.1648 7.6391 67.0383 6.1665 63.6999 6.1665Z" fill="#1B3B6F"/>
    <path d="M63.7001 1.2334C58.9187 1.2334 54.4259 3.1241 51.0498 6.55893L52.9517 8.23997C55.8299 5.31327 59.648 3.70007 63.7001 3.70007C67.7522 3.70007 71.5703 5.31327 74.4498 8.2412L76.3504 6.55893C72.9743 3.1241 68.4815 1.2334 63.7001 1.2334Z" fill="#76CD22"/>
    <path d="M63.7001 1.2334C58.9187 1.2334 54.4259 3.1241 51.0498 6.55893L52.9517 8.23997C55.8299 5.31327 59.648 3.70007 63.7001 3.70007C67.7522 3.70007 71.5703 5.31327 74.4498 8.2412L76.3504 6.55893C72.9743 3.1241 68.4815 1.2334 63.7001 1.2334Z" fill="#F56960"/>
    <path d="M63.7001 1.2334C58.9187 1.2334 54.4259 3.1241 51.0498 6.55893L52.9517 8.23997C55.8299 5.31327 59.648 3.70007 63.7001 3.70007C67.7522 3.70007 71.5703 5.31327 74.4498 8.2412L76.3504 6.55893C72.9743 3.1241 68.4815 1.2334 63.7001 1.2334Z" fill="#1B3B6F"/>
    <path d="M12.9999 35.7666H10.3999V43.1666H12.9999V35.7666Z" fill="#76CD22"/>
    <path d="M12.9999 35.7666H10.3999V43.1666H12.9999V35.7666Z" fill="#F56960"/>
    <path d="M12.9999 35.7666H10.3999V43.1666H12.9999V35.7666Z" fill="#1B3B6F"/>
    <path d="M54.6 35.9148H52V43.1606H54.6V35.9148Z" fill="#76CD22"/>
    <path d="M54.6 35.9148H52V43.1606H54.6V35.9148Z" fill="#F56960"/>
    <path d="M54.6 35.9148H52V43.1606H54.6V35.9148Z" fill="#1B3B6F"/>
    <path d="M64.9999 35.7666H62.3999V43.1666H64.9999V35.7666Z" fill="#76CD22"/>
    <path d="M64.9999 35.7666H62.3999V43.1666H64.9999V35.7666Z" fill="#F56960"/>
    <path d="M64.9999 35.7666H62.3999V43.1666H64.9999V35.7666Z" fill="#1B3B6F"/>
    <path d="M70.2001 35.7666H67.6001V43.1666H70.2001V35.7666Z" fill="#76CD22"/>
    <path d="M70.2001 35.7666H67.6001V43.1666H70.2001V35.7666Z" fill="#F56960"/>
    <path d="M70.2001 35.7666H67.6001V43.1666H70.2001V35.7666Z" fill="#1B3B6F"/>
    <path d="M59.8002 35.7666H57.2002V43.1666H59.8002V35.7666Z" fill="#76CD22"/>
    <path d="M59.8002 35.7666H57.2002V43.1666H59.8002V35.7666Z" fill="#F56960"/>
    <path d="M59.8002 35.7666H57.2002V43.1666H59.8002V35.7666Z" fill="#1B3B6F"/>
    <path d="M54.6 47.0146H52V54.2605H54.6V47.0146Z" fill="#76CD22"/>
    <path d="M54.6 47.0146H52V54.2605H54.6V47.0146Z" fill="#F56960"/>
    <path d="M54.6 47.0146H52V54.2605H54.6V47.0146Z" fill="#1B3B6F"/>
    <path d="M64.9999 46.8667H62.3999V54.2667H64.9999V46.8667Z" fill="#76CD22"/>
    <path d="M64.9999 46.8667H62.3999V54.2667H64.9999V46.8667Z" fill="#F56960"/>
    <path d="M64.9999 46.8667H62.3999V54.2667H64.9999V46.8667Z" fill="#1B3B6F"/>
    <path d="M70.2001 46.8667H67.6001V54.2667H70.2001V46.8667Z" fill="#76CD22"/>
    <path d="M70.2001 46.8667H67.6001V54.2667H70.2001V46.8667Z" fill="#F56960"/>
    <path d="M70.2001 46.8667H67.6001V54.2667H70.2001V46.8667Z" fill="#1B3B6F"/>
    <path d="M59.8002 46.8667H57.2002V54.2667H59.8002V46.8667Z" fill="#76CD22"/>
    <path d="M59.8002 46.8667H57.2002V54.2667H59.8002V46.8667Z" fill="#F56960"/>
    <path d="M59.8002 46.8667H57.2002V54.2667H59.8002V46.8667Z" fill="#1B3B6F"/>
    <path d="M7.79971 47.0146H5.19971V54.2605H7.79971V47.0146Z" fill="#76CD22"/>
    <path d="M7.79971 47.0146H5.19971V54.2605H7.79971V47.0146Z" fill="#F56960"/>
    <path d="M7.79971 47.0146H5.19971V54.2605H7.79971V47.0146Z" fill="#1B3B6F"/>
    <path d="M18.2001 46.8667H15.6001V54.2667H18.2001V46.8667Z" fill="#76CD22"/>
    <path d="M18.2001 46.8667H15.6001V54.2667H18.2001V46.8667Z" fill="#F56960"/>
    <path d="M18.2001 46.8667H15.6001V54.2667H18.2001V46.8667Z" fill="#1B3B6F"/>
    <path d="M23.3998 46.8667H20.7998V54.2667H23.3998V46.8667Z" fill="#76CD22"/>
    <path d="M23.3998 46.8667H20.7998V54.2667H23.3998V46.8667Z" fill="#F56960"/>
    <path d="M23.3998 46.8667H20.7998V54.2667H23.3998V46.8667Z" fill="#1B3B6F"/>
    <path d="M12.9999 46.8667H10.3999V54.2667H12.9999V46.8667Z" fill="#76CD22"/>
    <path d="M12.9999 46.8667H10.3999V54.2667H12.9999V46.8667Z" fill="#F56960"/>
    <path d="M12.9999 46.8667H10.3999V54.2667H12.9999V46.8667Z" fill="#1B3B6F"/>
</svg>
