<svg width="80" height="80" viewBox="0 0 80 80" fill="none" xmlns="http://www.w3.org/2000/svg">
    <path d="M77.4998 26.6666H63.3332V22.5C63.3332 22.0391 62.9607 21.6666 62.4998 21.6666C62.039 21.6666 61.6665 22.0391 61.6665 22.5V26.6666H39.1665C38.7057 26.6666 38.3332 27.0391 38.3332 27.5V39.1666H36.6665V27.5C36.6665 27.0391 36.294 26.6666 35.8332 26.6666C35.3723 26.6666 34.9998 27.0391 34.9998 27.5V39.1666H33.3332V25C33.3332 24.5391 32.9607 24.1666 32.4998 24.1666C32.039 24.1666 31.6665 24.5391 31.6665 25V39.1666H29.9998V28.3333C29.9998 27.8725 29.6273 27.5 29.1665 27.5C28.7057 27.5 28.3332 27.8725 28.3332 28.3333V39.1666H26.6665V30.8333C26.6665 30.3725 26.294 30 25.8332 30C25.3723 30 24.9998 30.3725 24.9998 30.8333V39.1666H23.3332V30C23.3332 29.5391 22.9607 29.1666 22.4998 29.1666C22.039 29.1666 21.6665 29.5391 21.6665 30V39.1666H19.9998V26.6666C19.9998 26.2058 19.6273 25.8333 19.1665 25.8333C18.7057 25.8333 18.3332 26.2058 18.3332 26.6666V39.1666H16.6665V30C16.6665 29.5391 16.294 29.1666 15.8332 29.1666C15.3723 29.1666 14.9998 29.5391 14.9998 30V39.1666H12.4998V32.5C12.4998 32.0391 12.1273 31.6666 11.6665 31.6666C11.2057 31.6666 10.8332 32.0391 10.8332 32.5V40C10.8332 40.4608 11.2057 40.8333 11.6665 40.8333H38.3332V76.6666H36.6665V48.3333C36.6665 47.8725 36.294 47.5 35.8332 47.5H20.8332C20.3723 47.5 19.9998 47.8725 19.9998 48.3333V48.355C18.479 46.3233 16.0607 45 13.3332 45C8.73817 45 4.99984 48.7383 4.99984 53.3333C4.99984 56.0608 6.32317 58.4791 8.35484 60H5.83317C5.37234 60 4.99984 60.3725 4.99984 60.8333V76.6666H3.33317V14.1666H13.3332C13.794 14.1666 14.1665 13.7941 14.1665 13.3333V3.33329H61.6665V12.5C61.6665 12.9608 62.039 13.3333 62.4998 13.3333C62.9607 13.3333 63.3332 12.9608 63.3332 12.5V2.49996C63.3332 2.03913 62.9607 1.66663 62.4998 1.66663H13.3332C13.1023 1.66663 12.894 1.76079 12.7432 1.91163L5.244 9.41079C4.91817 9.73663 4.91817 10.2633 5.244 10.5891C5.4065 10.7516 5.61984 10.8333 5.83317 10.8333C6.0465 10.8333 6.25984 10.7516 6.42234 10.5891L12.4998 4.51163V12.5H2.49984C2.039 12.5 1.6665 12.8725 1.6665 13.3333V77.5C1.6665 77.9608 2.039 78.3333 2.49984 78.3333H77.4998C77.9607 78.3333 78.3332 77.9608 78.3332 77.5V27.5C78.3332 27.0391 77.9607 26.6666 77.4998 26.6666ZM6.6665 53.3333C6.6665 49.94 9.2165 47.1366 12.4998 46.7241V48.3333C11.1215 48.3333 9.99984 49.455 9.99984 50.8333V51.6666C9.99984 53.045 11.1215 54.1666 12.4998 54.1666H14.1665C14.6265 54.1666 14.9998 54.54 14.9998 55V55.8333C14.9998 56.2933 14.6265 56.6666 14.1665 56.6666H12.4998C12.0398 56.6666 11.6665 56.2933 11.6665 55.8333C11.6665 55.3725 11.294 55 10.8332 55C10.3723 55 9.99984 55.3725 9.99984 55.8333C9.99984 57.2116 11.1215 58.3333 12.4998 58.3333V59.9425C9.2165 59.53 6.6665 56.7266 6.6665 53.3333ZM15.8332 64.1666H14.1665V61.6666H15.8332V64.1666ZM16.6665 65.8333V68.3333H14.9998V65.8333H16.6665ZM11.6665 65.8333H13.3332V68.3333H11.6665V65.8333ZM9.99984 64.1666V61.6666H12.4998V64.1666H9.99984ZM6.6665 61.6666H8.33317V64.1666H6.6665V61.6666ZM6.6665 65.8333H9.99984V68.3333H6.6665V65.8333ZM6.6665 70H8.33317V72.5H6.6665V70ZM9.1665 76.6666H6.6665V74.1666H9.1665V76.6666ZM9.99984 70H14.9998V72.5H9.99984V70ZM12.4998 76.6666H10.8332V74.1666H12.4998V76.6666ZM16.6665 76.6666H14.1665V74.1666H16.6665V76.6666ZM19.9998 76.6666H18.3332V74.1666H19.9998V76.6666ZM19.9998 72.5H16.6665V70H19.9998V72.5ZM19.9998 68.3333H18.3332V65.8333H19.9998V68.3333ZM19.9998 64.1666H17.4998V61.6666H19.9998V64.1666ZM19.9998 60H18.3115C18.9523 59.52 19.5198 58.9525 19.9998 58.3116V60ZM14.1665 59.9425V58.3333C15.5448 58.3333 16.6665 57.2116 16.6665 55.8333V55C16.6665 53.6216 15.5448 52.5 14.1665 52.5H12.4998C12.0398 52.5 11.6665 52.1266 11.6665 51.6666V50.8333C11.6665 50.3733 12.0398 50 12.4998 50H14.1665C14.6265 50 14.9998 50.3733 14.9998 50.8333C14.9998 51.2941 15.3723 51.6666 15.8332 51.6666C16.294 51.6666 16.6665 51.2941 16.6665 50.8333C16.6665 49.455 15.5448 48.3333 14.1665 48.3333V46.7241C17.4498 47.1366 19.9998 49.94 19.9998 53.3333C19.9998 56.7266 17.4498 59.53 14.1665 59.9425ZM27.4998 55.8333H24.9998V53.3333H27.4998V55.8333ZM28.3332 57.5V60H26.6665V57.5H28.3332ZM27.4998 61.6666V64.1666H24.9998V61.6666H27.4998ZM26.6665 65.8333H31.6665V68.3333H26.6665V65.8333ZM29.1665 64.1666V61.6666H30.8332V64.1666H29.1665ZM29.9998 60V57.5H31.6665V60H29.9998ZM29.1665 55.8333V53.3333H31.6665V55.8333H29.1665ZM26.6665 49.1666H29.9998V51.6666H26.6665V49.1666ZM21.6665 49.1666H24.9998V51.6666H21.6665V49.1666ZM21.6665 53.3333H23.3332V55.8333H21.6665V53.3333ZM21.6665 57.5H24.9998V60H21.6665V57.5ZM21.6665 61.6666H23.3332V64.1666H21.6665V61.6666ZM21.6665 65.8333H24.9998V68.3333H21.6665V65.8333ZM21.6665 70H23.3332V72.5H21.6665V70ZM24.1665 76.6666H21.6665V74.1666H24.1665V76.6666ZM24.9998 70H26.6665V72.5H24.9998V70ZM27.4998 76.6666H25.8332V74.1666H27.4998V76.6666ZM28.3332 70H29.9998V72.5H28.3332V70ZM31.6665 76.6666H29.1665V74.1666H31.6665V76.6666ZM34.9998 76.6666H33.3332V74.1666H34.9998V76.6666ZM34.9998 72.5H31.6665V70H34.9998V72.5ZM34.9998 68.3333H33.3332V65.8333H34.9998V68.3333ZM34.9998 64.1666H32.4998V61.6666H34.9998V64.1666ZM34.9998 60H33.3332V57.5H34.9998V60ZM34.9998 55.8333H33.3332V53.3333H34.9998V55.8333ZM34.9998 51.6666H31.6665V49.1666H34.9998V51.6666ZM76.6665 76.6666H39.9998V28.3333H76.6665V76.6666Z" fill="#76CD22"/>
    <path d="M77.4998 26.6666H63.3332V22.5C63.3332 22.0391 62.9607 21.6666 62.4998 21.6666C62.039 21.6666 61.6665 22.0391 61.6665 22.5V26.6666H39.1665C38.7057 26.6666 38.3332 27.0391 38.3332 27.5V39.1666H36.6665V27.5C36.6665 27.0391 36.294 26.6666 35.8332 26.6666C35.3723 26.6666 34.9998 27.0391 34.9998 27.5V39.1666H33.3332V25C33.3332 24.5391 32.9607 24.1666 32.4998 24.1666C32.039 24.1666 31.6665 24.5391 31.6665 25V39.1666H29.9998V28.3333C29.9998 27.8725 29.6273 27.5 29.1665 27.5C28.7057 27.5 28.3332 27.8725 28.3332 28.3333V39.1666H26.6665V30.8333C26.6665 30.3725 26.294 30 25.8332 30C25.3723 30 24.9998 30.3725 24.9998 30.8333V39.1666H23.3332V30C23.3332 29.5391 22.9607 29.1666 22.4998 29.1666C22.039 29.1666 21.6665 29.5391 21.6665 30V39.1666H19.9998V26.6666C19.9998 26.2058 19.6273 25.8333 19.1665 25.8333C18.7057 25.8333 18.3332 26.2058 18.3332 26.6666V39.1666H16.6665V30C16.6665 29.5391 16.294 29.1666 15.8332 29.1666C15.3723 29.1666 14.9998 29.5391 14.9998 30V39.1666H12.4998V32.5C12.4998 32.0391 12.1273 31.6666 11.6665 31.6666C11.2057 31.6666 10.8332 32.0391 10.8332 32.5V40C10.8332 40.4608 11.2057 40.8333 11.6665 40.8333H38.3332V76.6666H36.6665V48.3333C36.6665 47.8725 36.294 47.5 35.8332 47.5H20.8332C20.3723 47.5 19.9998 47.8725 19.9998 48.3333V48.355C18.479 46.3233 16.0607 45 13.3332 45C8.73817 45 4.99984 48.7383 4.99984 53.3333C4.99984 56.0608 6.32317 58.4791 8.35484 60H5.83317C5.37234 60 4.99984 60.3725 4.99984 60.8333V76.6666H3.33317V14.1666H13.3332C13.794 14.1666 14.1665 13.7941 14.1665 13.3333V3.33329H61.6665V12.5C61.6665 12.9608 62.039 13.3333 62.4998 13.3333C62.9607 13.3333 63.3332 12.9608 63.3332 12.5V2.49996C63.3332 2.03913 62.9607 1.66663 62.4998 1.66663H13.3332C13.1023 1.66663 12.894 1.76079 12.7432 1.91163L5.244 9.41079C4.91817 9.73663 4.91817 10.2633 5.244 10.5891C5.4065 10.7516 5.61984 10.8333 5.83317 10.8333C6.0465 10.8333 6.25984 10.7516 6.42234 10.5891L12.4998 4.51163V12.5H2.49984C2.039 12.5 1.6665 12.8725 1.6665 13.3333V77.5C1.6665 77.9608 2.039 78.3333 2.49984 78.3333H77.4998C77.9607 78.3333 78.3332 77.9608 78.3332 77.5V27.5C78.3332 27.0391 77.9607 26.6666 77.4998 26.6666ZM6.6665 53.3333C6.6665 49.94 9.2165 47.1366 12.4998 46.7241V48.3333C11.1215 48.3333 9.99984 49.455 9.99984 50.8333V51.6666C9.99984 53.045 11.1215 54.1666 12.4998 54.1666H14.1665C14.6265 54.1666 14.9998 54.54 14.9998 55V55.8333C14.9998 56.2933 14.6265 56.6666 14.1665 56.6666H12.4998C12.0398 56.6666 11.6665 56.2933 11.6665 55.8333C11.6665 55.3725 11.294 55 10.8332 55C10.3723 55 9.99984 55.3725 9.99984 55.8333C9.99984 57.2116 11.1215 58.3333 12.4998 58.3333V59.9425C9.2165 59.53 6.6665 56.7266 6.6665 53.3333ZM15.8332 64.1666H14.1665V61.6666H15.8332V64.1666ZM16.6665 65.8333V68.3333H14.9998V65.8333H16.6665ZM11.6665 65.8333H13.3332V68.3333H11.6665V65.8333ZM9.99984 64.1666V61.6666H12.4998V64.1666H9.99984ZM6.6665 61.6666H8.33317V64.1666H6.6665V61.6666ZM6.6665 65.8333H9.99984V68.3333H6.6665V65.8333ZM6.6665 70H8.33317V72.5H6.6665V70ZM9.1665 76.6666H6.6665V74.1666H9.1665V76.6666ZM9.99984 70H14.9998V72.5H9.99984V70ZM12.4998 76.6666H10.8332V74.1666H12.4998V76.6666ZM16.6665 76.6666H14.1665V74.1666H16.6665V76.6666ZM19.9998 76.6666H18.3332V74.1666H19.9998V76.6666ZM19.9998 72.5H16.6665V70H19.9998V72.5ZM19.9998 68.3333H18.3332V65.8333H19.9998V68.3333ZM19.9998 64.1666H17.4998V61.6666H19.9998V64.1666ZM19.9998 60H18.3115C18.9523 59.52 19.5198 58.9525 19.9998 58.3116V60ZM14.1665 59.9425V58.3333C15.5448 58.3333 16.6665 57.2116 16.6665 55.8333V55C16.6665 53.6216 15.5448 52.5 14.1665 52.5H12.4998C12.0398 52.5 11.6665 52.1266 11.6665 51.6666V50.8333C11.6665 50.3733 12.0398 50 12.4998 50H14.1665C14.6265 50 14.9998 50.3733 14.9998 50.8333C14.9998 51.2941 15.3723 51.6666 15.8332 51.6666C16.294 51.6666 16.6665 51.2941 16.6665 50.8333C16.6665 49.455 15.5448 48.3333 14.1665 48.3333V46.7241C17.4498 47.1366 19.9998 49.94 19.9998 53.3333C19.9998 56.7266 17.4498 59.53 14.1665 59.9425ZM27.4998 55.8333H24.9998V53.3333H27.4998V55.8333ZM28.3332 57.5V60H26.6665V57.5H28.3332ZM27.4998 61.6666V64.1666H24.9998V61.6666H27.4998ZM26.6665 65.8333H31.6665V68.3333H26.6665V65.8333ZM29.1665 64.1666V61.6666H30.8332V64.1666H29.1665ZM29.9998 60V57.5H31.6665V60H29.9998ZM29.1665 55.8333V53.3333H31.6665V55.8333H29.1665ZM26.6665 49.1666H29.9998V51.6666H26.6665V49.1666ZM21.6665 49.1666H24.9998V51.6666H21.6665V49.1666ZM21.6665 53.3333H23.3332V55.8333H21.6665V53.3333ZM21.6665 57.5H24.9998V60H21.6665V57.5ZM21.6665 61.6666H23.3332V64.1666H21.6665V61.6666ZM21.6665 65.8333H24.9998V68.3333H21.6665V65.8333ZM21.6665 70H23.3332V72.5H21.6665V70ZM24.1665 76.6666H21.6665V74.1666H24.1665V76.6666ZM24.9998 70H26.6665V72.5H24.9998V70ZM27.4998 76.6666H25.8332V74.1666H27.4998V76.6666ZM28.3332 70H29.9998V72.5H28.3332V70ZM31.6665 76.6666H29.1665V74.1666H31.6665V76.6666ZM34.9998 76.6666H33.3332V74.1666H34.9998V76.6666ZM34.9998 72.5H31.6665V70H34.9998V72.5ZM34.9998 68.3333H33.3332V65.8333H34.9998V68.3333ZM34.9998 64.1666H32.4998V61.6666H34.9998V64.1666ZM34.9998 60H33.3332V57.5H34.9998V60ZM34.9998 55.8333H33.3332V53.3333H34.9998V55.8333ZM34.9998 51.6666H31.6665V49.1666H34.9998V51.6666ZM76.6665 76.6666H39.9998V28.3333H76.6665V76.6666Z" fill="#F56960"/>
    <path d="M77.4998 26.6666H63.3332V22.5C63.3332 22.0391 62.9607 21.6666 62.4998 21.6666C62.039 21.6666 61.6665 22.0391 61.6665 22.5V26.6666H39.1665C38.7057 26.6666 38.3332 27.0391 38.3332 27.5V39.1666H36.6665V27.5C36.6665 27.0391 36.294 26.6666 35.8332 26.6666C35.3723 26.6666 34.9998 27.0391 34.9998 27.5V39.1666H33.3332V25C33.3332 24.5391 32.9607 24.1666 32.4998 24.1666C32.039 24.1666 31.6665 24.5391 31.6665 25V39.1666H29.9998V28.3333C29.9998 27.8725 29.6273 27.5 29.1665 27.5C28.7057 27.5 28.3332 27.8725 28.3332 28.3333V39.1666H26.6665V30.8333C26.6665 30.3725 26.294 30 25.8332 30C25.3723 30 24.9998 30.3725 24.9998 30.8333V39.1666H23.3332V30C23.3332 29.5391 22.9607 29.1666 22.4998 29.1666C22.039 29.1666 21.6665 29.5391 21.6665 30V39.1666H19.9998V26.6666C19.9998 26.2058 19.6273 25.8333 19.1665 25.8333C18.7057 25.8333 18.3332 26.2058 18.3332 26.6666V39.1666H16.6665V30C16.6665 29.5391 16.294 29.1666 15.8332 29.1666C15.3723 29.1666 14.9998 29.5391 14.9998 30V39.1666H12.4998V32.5C12.4998 32.0391 12.1273 31.6666 11.6665 31.6666C11.2057 31.6666 10.8332 32.0391 10.8332 32.5V40C10.8332 40.4608 11.2057 40.8333 11.6665 40.8333H38.3332V76.6666H36.6665V48.3333C36.6665 47.8725 36.294 47.5 35.8332 47.5H20.8332C20.3723 47.5 19.9998 47.8725 19.9998 48.3333V48.355C18.479 46.3233 16.0607 45 13.3332 45C8.73817 45 4.99984 48.7383 4.99984 53.3333C4.99984 56.0608 6.32317 58.4791 8.35484 60H5.83317C5.37234 60 4.99984 60.3725 4.99984 60.8333V76.6666H3.33317V14.1666H13.3332C13.794 14.1666 14.1665 13.7941 14.1665 13.3333V3.33329H61.6665V12.5C61.6665 12.9608 62.039 13.3333 62.4998 13.3333C62.9607 13.3333 63.3332 12.9608 63.3332 12.5V2.49996C63.3332 2.03913 62.9607 1.66663 62.4998 1.66663H13.3332C13.1023 1.66663 12.894 1.76079 12.7432 1.91163L5.244 9.41079C4.91817 9.73663 4.91817 10.2633 5.244 10.5891C5.4065 10.7516 5.61984 10.8333 5.83317 10.8333C6.0465 10.8333 6.25984 10.7516 6.42234 10.5891L12.4998 4.51163V12.5H2.49984C2.039 12.5 1.6665 12.8725 1.6665 13.3333V77.5C1.6665 77.9608 2.039 78.3333 2.49984 78.3333H77.4998C77.9607 78.3333 78.3332 77.9608 78.3332 77.5V27.5C78.3332 27.0391 77.9607 26.6666 77.4998 26.6666ZM6.6665 53.3333C6.6665 49.94 9.2165 47.1366 12.4998 46.7241V48.3333C11.1215 48.3333 9.99984 49.455 9.99984 50.8333V51.6666C9.99984 53.045 11.1215 54.1666 12.4998 54.1666H14.1665C14.6265 54.1666 14.9998 54.54 14.9998 55V55.8333C14.9998 56.2933 14.6265 56.6666 14.1665 56.6666H12.4998C12.0398 56.6666 11.6665 56.2933 11.6665 55.8333C11.6665 55.3725 11.294 55 10.8332 55C10.3723 55 9.99984 55.3725 9.99984 55.8333C9.99984 57.2116 11.1215 58.3333 12.4998 58.3333V59.9425C9.2165 59.53 6.6665 56.7266 6.6665 53.3333ZM15.8332 64.1666H14.1665V61.6666H15.8332V64.1666ZM16.6665 65.8333V68.3333H14.9998V65.8333H16.6665ZM11.6665 65.8333H13.3332V68.3333H11.6665V65.8333ZM9.99984 64.1666V61.6666H12.4998V64.1666H9.99984ZM6.6665 61.6666H8.33317V64.1666H6.6665V61.6666ZM6.6665 65.8333H9.99984V68.3333H6.6665V65.8333ZM6.6665 70H8.33317V72.5H6.6665V70ZM9.1665 76.6666H6.6665V74.1666H9.1665V76.6666ZM9.99984 70H14.9998V72.5H9.99984V70ZM12.4998 76.6666H10.8332V74.1666H12.4998V76.6666ZM16.6665 76.6666H14.1665V74.1666H16.6665V76.6666ZM19.9998 76.6666H18.3332V74.1666H19.9998V76.6666ZM19.9998 72.5H16.6665V70H19.9998V72.5ZM19.9998 68.3333H18.3332V65.8333H19.9998V68.3333ZM19.9998 64.1666H17.4998V61.6666H19.9998V64.1666ZM19.9998 60H18.3115C18.9523 59.52 19.5198 58.9525 19.9998 58.3116V60ZM14.1665 59.9425V58.3333C15.5448 58.3333 16.6665 57.2116 16.6665 55.8333V55C16.6665 53.6216 15.5448 52.5 14.1665 52.5H12.4998C12.0398 52.5 11.6665 52.1266 11.6665 51.6666V50.8333C11.6665 50.3733 12.0398 50 12.4998 50H14.1665C14.6265 50 14.9998 50.3733 14.9998 50.8333C14.9998 51.2941 15.3723 51.6666 15.8332 51.6666C16.294 51.6666 16.6665 51.2941 16.6665 50.8333C16.6665 49.455 15.5448 48.3333 14.1665 48.3333V46.7241C17.4498 47.1366 19.9998 49.94 19.9998 53.3333C19.9998 56.7266 17.4498 59.53 14.1665 59.9425ZM27.4998 55.8333H24.9998V53.3333H27.4998V55.8333ZM28.3332 57.5V60H26.6665V57.5H28.3332ZM27.4998 61.6666V64.1666H24.9998V61.6666H27.4998ZM26.6665 65.8333H31.6665V68.3333H26.6665V65.8333ZM29.1665 64.1666V61.6666H30.8332V64.1666H29.1665ZM29.9998 60V57.5H31.6665V60H29.9998ZM29.1665 55.8333V53.3333H31.6665V55.8333H29.1665ZM26.6665 49.1666H29.9998V51.6666H26.6665V49.1666ZM21.6665 49.1666H24.9998V51.6666H21.6665V49.1666ZM21.6665 53.3333H23.3332V55.8333H21.6665V53.3333ZM21.6665 57.5H24.9998V60H21.6665V57.5ZM21.6665 61.6666H23.3332V64.1666H21.6665V61.6666ZM21.6665 65.8333H24.9998V68.3333H21.6665V65.8333ZM21.6665 70H23.3332V72.5H21.6665V70ZM24.1665 76.6666H21.6665V74.1666H24.1665V76.6666ZM24.9998 70H26.6665V72.5H24.9998V70ZM27.4998 76.6666H25.8332V74.1666H27.4998V76.6666ZM28.3332 70H29.9998V72.5H28.3332V70ZM31.6665 76.6666H29.1665V74.1666H31.6665V76.6666ZM34.9998 76.6666H33.3332V74.1666H34.9998V76.6666ZM34.9998 72.5H31.6665V70H34.9998V72.5ZM34.9998 68.3333H33.3332V65.8333H34.9998V68.3333ZM34.9998 64.1666H32.4998V61.6666H34.9998V64.1666ZM34.9998 60H33.3332V57.5H34.9998V60ZM34.9998 55.8333H33.3332V53.3333H34.9998V55.8333ZM34.9998 51.6666H31.6665V49.1666H34.9998V51.6666ZM76.6665 76.6666H39.9998V28.3333H76.6665V76.6666Z" fill="#1B3B6F"/>
    <path d="M43.3333 40.8334H73.3333C73.7942 40.8334 74.1667 40.4609 74.1667 40V31.6667C74.1667 31.2059 73.7942 30.8334 73.3333 30.8334H43.3333C42.8725 30.8334 42.5 31.2059 42.5 31.6667V40C42.5 40.4609 42.8725 40.8334 43.3333 40.8334ZM44.1667 32.5H72.5V39.1667H44.1667V32.5Z" fill="#76CD22"/>
    <path d="M43.3333 40.8334H73.3333C73.7942 40.8334 74.1667 40.4609 74.1667 40V31.6667C74.1667 31.2059 73.7942 30.8334 73.3333 30.8334H43.3333C42.8725 30.8334 42.5 31.2059 42.5 31.6667V40C42.5 40.4609 42.8725 40.8334 43.3333 40.8334ZM44.1667 32.5H72.5V39.1667H44.1667V32.5Z" fill="#F56960"/>
    <path d="M43.3333 40.8334H73.3333C73.7942 40.8334 74.1667 40.4609 74.1667 40V31.6667C74.1667 31.2059 73.7942 30.8334 73.3333 30.8334H43.3333C42.8725 30.8334 42.5 31.2059 42.5 31.6667V40C42.5 40.4609 42.8725 40.8334 43.3333 40.8334ZM44.1667 32.5H72.5V39.1667H44.1667V32.5Z" fill="#1B3B6F"/>
    <path d="M50.8335 43.3333H44.1668C43.706 43.3333 43.3335 43.7058 43.3335 44.1666V48.3333C43.3335 48.7941 43.706 49.1666 44.1668 49.1666H50.8335C51.2943 49.1666 51.6668 48.7941 51.6668 48.3333V44.1666C51.6668 43.7058 51.2943 43.3333 50.8335 43.3333ZM50.0002 47.5H45.0002V45H50.0002V47.5Z" fill="#76CD22"/>
    <path d="M50.8335 43.3333H44.1668C43.706 43.3333 43.3335 43.7058 43.3335 44.1666V48.3333C43.3335 48.7941 43.706 49.1666 44.1668 49.1666H50.8335C51.2943 49.1666 51.6668 48.7941 51.6668 48.3333V44.1666C51.6668 43.7058 51.2943 43.3333 50.8335 43.3333ZM50.0002 47.5H45.0002V45H50.0002V47.5Z" fill="#F56960"/>
    <path d="M50.8335 43.3333H44.1668C43.706 43.3333 43.3335 43.7058 43.3335 44.1666V48.3333C43.3335 48.7941 43.706 49.1666 44.1668 49.1666H50.8335C51.2943 49.1666 51.6668 48.7941 51.6668 48.3333V44.1666C51.6668 43.7058 51.2943 43.3333 50.8335 43.3333ZM50.0002 47.5H45.0002V45H50.0002V47.5Z" fill="#1B3B6F"/>
    <path d="M61.6665 43.3333H54.9998C54.539 43.3333 54.1665 43.7058 54.1665 44.1666V48.3333C54.1665 48.7941 54.539 49.1666 54.9998 49.1666H61.6665C62.1273 49.1666 62.4998 48.7941 62.4998 48.3333V44.1666C62.4998 43.7058 62.1273 43.3333 61.6665 43.3333ZM60.8332 47.5H55.8332V45H60.8332V47.5Z" fill="#76CD22"/>
    <path d="M61.6665 43.3333H54.9998C54.539 43.3333 54.1665 43.7058 54.1665 44.1666V48.3333C54.1665 48.7941 54.539 49.1666 54.9998 49.1666H61.6665C62.1273 49.1666 62.4998 48.7941 62.4998 48.3333V44.1666C62.4998 43.7058 62.1273 43.3333 61.6665 43.3333ZM60.8332 47.5H55.8332V45H60.8332V47.5Z" fill="#F56960"/>
    <path d="M61.6665 43.3333H54.9998C54.539 43.3333 54.1665 43.7058 54.1665 44.1666V48.3333C54.1665 48.7941 54.539 49.1666 54.9998 49.1666H61.6665C62.1273 49.1666 62.4998 48.7941 62.4998 48.3333V44.1666C62.4998 43.7058 62.1273 43.3333 61.6665 43.3333ZM60.8332 47.5H55.8332V45H60.8332V47.5Z" fill="#1B3B6F"/>
    <path d="M72.5 43.3333H65.8333C65.3725 43.3333 65 43.7058 65 44.1666V48.3333C65 48.7941 65.3725 49.1666 65.8333 49.1666H72.5C72.9608 49.1666 73.3333 48.7941 73.3333 48.3333V44.1666C73.3333 43.7058 72.9608 43.3333 72.5 43.3333ZM71.6667 47.5H66.6667V45H71.6667V47.5Z" fill="#76CD22"/>
    <path d="M72.5 43.3333H65.8333C65.3725 43.3333 65 43.7058 65 44.1666V48.3333C65 48.7941 65.3725 49.1666 65.8333 49.1666H72.5C72.9608 49.1666 73.3333 48.7941 73.3333 48.3333V44.1666C73.3333 43.7058 72.9608 43.3333 72.5 43.3333ZM71.6667 47.5H66.6667V45H71.6667V47.5Z" fill="#F56960"/>
    <path d="M72.5 43.3333H65.8333C65.3725 43.3333 65 43.7058 65 44.1666V48.3333C65 48.7941 65.3725 49.1666 65.8333 49.1666H72.5C72.9608 49.1666 73.3333 48.7941 73.3333 48.3333V44.1666C73.3333 43.7058 72.9608 43.3333 72.5 43.3333ZM71.6667 47.5H66.6667V45H71.6667V47.5Z" fill="#1B3B6F"/>
    <path d="M50.8335 51.6667H44.1668C43.706 51.6667 43.3335 52.0392 43.3335 52.5V56.6667C43.3335 57.1275 43.706 57.5 44.1668 57.5H50.8335C51.2943 57.5 51.6668 57.1275 51.6668 56.6667V52.5C51.6668 52.0392 51.2943 51.6667 50.8335 51.6667ZM50.0002 55.8334H45.0002V53.3334H50.0002V55.8334Z" fill="#76CD22"/>
    <path d="M50.8335 51.6667H44.1668C43.706 51.6667 43.3335 52.0392 43.3335 52.5V56.6667C43.3335 57.1275 43.706 57.5 44.1668 57.5H50.8335C51.2943 57.5 51.6668 57.1275 51.6668 56.6667V52.5C51.6668 52.0392 51.2943 51.6667 50.8335 51.6667ZM50.0002 55.8334H45.0002V53.3334H50.0002V55.8334Z" fill="#F56960"/>
    <path d="M50.8335 51.6667H44.1668C43.706 51.6667 43.3335 52.0392 43.3335 52.5V56.6667C43.3335 57.1275 43.706 57.5 44.1668 57.5H50.8335C51.2943 57.5 51.6668 57.1275 51.6668 56.6667V52.5C51.6668 52.0392 51.2943 51.6667 50.8335 51.6667ZM50.0002 55.8334H45.0002V53.3334H50.0002V55.8334Z" fill="#1B3B6F"/>
    <path d="M61.6665 51.6667H54.9998C54.539 51.6667 54.1665 52.0392 54.1665 52.5V56.6667C54.1665 57.1275 54.539 57.5 54.9998 57.5H61.6665C62.1273 57.5 62.4998 57.1275 62.4998 56.6667V52.5C62.4998 52.0392 62.1273 51.6667 61.6665 51.6667ZM60.8332 55.8334H55.8332V53.3334H60.8332V55.8334Z" fill="#76CD22"/>
    <path d="M61.6665 51.6667H54.9998C54.539 51.6667 54.1665 52.0392 54.1665 52.5V56.6667C54.1665 57.1275 54.539 57.5 54.9998 57.5H61.6665C62.1273 57.5 62.4998 57.1275 62.4998 56.6667V52.5C62.4998 52.0392 62.1273 51.6667 61.6665 51.6667ZM60.8332 55.8334H55.8332V53.3334H60.8332V55.8334Z" fill="#F56960"/>
    <path d="M61.6665 51.6667H54.9998C54.539 51.6667 54.1665 52.0392 54.1665 52.5V56.6667C54.1665 57.1275 54.539 57.5 54.9998 57.5H61.6665C62.1273 57.5 62.4998 57.1275 62.4998 56.6667V52.5C62.4998 52.0392 62.1273 51.6667 61.6665 51.6667ZM60.8332 55.8334H55.8332V53.3334H60.8332V55.8334Z" fill="#1B3B6F"/>
    <path d="M72.5 51.6667H65.8333C65.3725 51.6667 65 52.0392 65 52.5V56.6667C65 57.1275 65.3725 57.5 65.8333 57.5H72.5C72.9608 57.5 73.3333 57.1275 73.3333 56.6667V52.5C73.3333 52.0392 72.9608 51.6667 72.5 51.6667ZM71.6667 55.8334H66.6667V53.3334H71.6667V55.8334Z" fill="#76CD22"/>
    <path d="M72.5 51.6667H65.8333C65.3725 51.6667 65 52.0392 65 52.5V56.6667C65 57.1275 65.3725 57.5 65.8333 57.5H72.5C72.9608 57.5 73.3333 57.1275 73.3333 56.6667V52.5C73.3333 52.0392 72.9608 51.6667 72.5 51.6667ZM71.6667 55.8334H66.6667V53.3334H71.6667V55.8334Z" fill="#F56960"/>
    <path d="M72.5 51.6667H65.8333C65.3725 51.6667 65 52.0392 65 52.5V56.6667C65 57.1275 65.3725 57.5 65.8333 57.5H72.5C72.9608 57.5 73.3333 57.1275 73.3333 56.6667V52.5C73.3333 52.0392 72.9608 51.6667 72.5 51.6667ZM71.6667 55.8334H66.6667V53.3334H71.6667V55.8334Z" fill="#1B3B6F"/>
    <path d="M50.8335 60H44.1668C43.706 60 43.3335 60.3725 43.3335 60.8333V65C43.3335 65.4608 43.706 65.8333 44.1668 65.8333H50.8335C51.2943 65.8333 51.6668 65.4608 51.6668 65V60.8333C51.6668 60.3725 51.2943 60 50.8335 60ZM50.0002 64.1667H45.0002V61.6667H50.0002V64.1667Z" fill="#76CD22"/>
    <path d="M50.8335 60H44.1668C43.706 60 43.3335 60.3725 43.3335 60.8333V65C43.3335 65.4608 43.706 65.8333 44.1668 65.8333H50.8335C51.2943 65.8333 51.6668 65.4608 51.6668 65V60.8333C51.6668 60.3725 51.2943 60 50.8335 60ZM50.0002 64.1667H45.0002V61.6667H50.0002V64.1667Z" fill="#F56960"/>
    <path d="M50.8335 60H44.1668C43.706 60 43.3335 60.3725 43.3335 60.8333V65C43.3335 65.4608 43.706 65.8333 44.1668 65.8333H50.8335C51.2943 65.8333 51.6668 65.4608 51.6668 65V60.8333C51.6668 60.3725 51.2943 60 50.8335 60ZM50.0002 64.1667H45.0002V61.6667H50.0002V64.1667Z" fill="#1B3B6F"/>
    <path d="M61.6665 60H54.9998C54.539 60 54.1665 60.3725 54.1665 60.8333V65C54.1665 65.4608 54.539 65.8333 54.9998 65.8333H61.6665C62.1273 65.8333 62.4998 65.4608 62.4998 65V60.8333C62.4998 60.3725 62.1273 60 61.6665 60ZM60.8332 64.1667H55.8332V61.6667H60.8332V64.1667Z" fill="#76CD22"/>
    <path d="M61.6665 60H54.9998C54.539 60 54.1665 60.3725 54.1665 60.8333V65C54.1665 65.4608 54.539 65.8333 54.9998 65.8333H61.6665C62.1273 65.8333 62.4998 65.4608 62.4998 65V60.8333C62.4998 60.3725 62.1273 60 61.6665 60ZM60.8332 64.1667H55.8332V61.6667H60.8332V64.1667Z" fill="#F56960"/>
    <path d="M61.6665 60H54.9998C54.539 60 54.1665 60.3725 54.1665 60.8333V65C54.1665 65.4608 54.539 65.8333 54.9998 65.8333H61.6665C62.1273 65.8333 62.4998 65.4608 62.4998 65V60.8333C62.4998 60.3725 62.1273 60 61.6665 60ZM60.8332 64.1667H55.8332V61.6667H60.8332V64.1667Z" fill="#1B3B6F"/>
    <path d="M50.8335 68.3333H44.1668C43.706 68.3333 43.3335 68.7058 43.3335 69.1666V73.3333C43.3335 73.7941 43.706 74.1666 44.1668 74.1666H50.8335C51.2943 74.1666 51.6668 73.7941 51.6668 73.3333V69.1666C51.6668 68.7058 51.2943 68.3333 50.8335 68.3333ZM50.0002 72.5H45.0002V70H50.0002V72.5Z" fill="#76CD22"/>
    <path d="M50.8335 68.3333H44.1668C43.706 68.3333 43.3335 68.7058 43.3335 69.1666V73.3333C43.3335 73.7941 43.706 74.1666 44.1668 74.1666H50.8335C51.2943 74.1666 51.6668 73.7941 51.6668 73.3333V69.1666C51.6668 68.7058 51.2943 68.3333 50.8335 68.3333ZM50.0002 72.5H45.0002V70H50.0002V72.5Z" fill="#F56960"/>
    <path d="M50.8335 68.3333H44.1668C43.706 68.3333 43.3335 68.7058 43.3335 69.1666V73.3333C43.3335 73.7941 43.706 74.1666 44.1668 74.1666H50.8335C51.2943 74.1666 51.6668 73.7941 51.6668 73.3333V69.1666C51.6668 68.7058 51.2943 68.3333 50.8335 68.3333ZM50.0002 72.5H45.0002V70H50.0002V72.5Z" fill="#1B3B6F"/>
    <path d="M61.6665 68.3333H54.9998C54.539 68.3333 54.1665 68.7058 54.1665 69.1666V73.3333C54.1665 73.7941 54.539 74.1666 54.9998 74.1666H61.6665C62.1273 74.1666 62.4998 73.7941 62.4998 73.3333V69.1666C62.4998 68.7058 62.1273 68.3333 61.6665 68.3333ZM60.8332 72.5H55.8332V70H60.8332V72.5Z" fill="#76CD22"/>
    <path d="M61.6665 68.3333H54.9998C54.539 68.3333 54.1665 68.7058 54.1665 69.1666V73.3333C54.1665 73.7941 54.539 74.1666 54.9998 74.1666H61.6665C62.1273 74.1666 62.4998 73.7941 62.4998 73.3333V69.1666C62.4998 68.7058 62.1273 68.3333 61.6665 68.3333ZM60.8332 72.5H55.8332V70H60.8332V72.5Z" fill="#F56960"/>
    <path d="M61.6665 68.3333H54.9998C54.539 68.3333 54.1665 68.7058 54.1665 69.1666V73.3333C54.1665 73.7941 54.539 74.1666 54.9998 74.1666H61.6665C62.1273 74.1666 62.4998 73.7941 62.4998 73.3333V69.1666C62.4998 68.7058 62.1273 68.3333 61.6665 68.3333ZM60.8332 72.5H55.8332V70H60.8332V72.5Z" fill="#1B3B6F"/>
    <path d="M72.5 60H65.8333C65.3725 60 65 60.3725 65 60.8333V73.3333C65 73.7942 65.3725 74.1667 65.8333 74.1667H72.5C72.9608 74.1667 73.3333 73.7942 73.3333 73.3333V60.8333C73.3333 60.3725 72.9608 60 72.5 60ZM71.6667 72.5H66.6667V61.6667H71.6667V72.5Z" fill="#76CD22"/>
    <path d="M72.5 60H65.8333C65.3725 60 65 60.3725 65 60.8333V73.3333C65 73.7942 65.3725 74.1667 65.8333 74.1667H72.5C72.9608 74.1667 73.3333 73.7942 73.3333 73.3333V60.8333C73.3333 60.3725 72.9608 60 72.5 60ZM71.6667 72.5H66.6667V61.6667H71.6667V72.5Z" fill="#F56960"/>
    <path d="M72.5 60H65.8333C65.3725 60 65 60.3725 65 60.8333V73.3333C65 73.7942 65.3725 74.1667 65.8333 74.1667H72.5C72.9608 74.1667 73.3333 73.7942 73.3333 73.3333V60.8333C73.3333 60.3725 72.9608 60 72.5 60ZM71.6667 72.5H66.6667V61.6667H71.6667V72.5Z" fill="#1B3B6F"/>
    <path d="M59.1668 6.66667C59.6271 6.66667 60.0002 6.29357 60.0002 5.83333C60.0002 5.3731 59.6271 5 59.1668 5C58.7066 5 58.3335 5.3731 58.3335 5.83333C58.3335 6.29357 58.7066 6.66667 59.1668 6.66667Z" fill="#76CD22"/>
    <path d="M59.1668 6.66667C59.6271 6.66667 60.0002 6.29357 60.0002 5.83333C60.0002 5.3731 59.6271 5 59.1668 5C58.7066 5 58.3335 5.3731 58.3335 5.83333C58.3335 6.29357 58.7066 6.66667 59.1668 6.66667Z" fill="#F56960"/>
    <path d="M59.1668 6.66667C59.6271 6.66667 60.0002 6.29357 60.0002 5.83333C60.0002 5.3731 59.6271 5 59.1668 5C58.7066 5 58.3335 5.3731 58.3335 5.83333C58.3335 6.29357 58.7066 6.66667 59.1668 6.66667Z" fill="#1B3B6F"/>
    <path d="M55.8333 6.66667C56.2936 6.66667 56.6667 6.29357 56.6667 5.83333C56.6667 5.3731 56.2936 5 55.8333 5C55.3731 5 55 5.3731 55 5.83333C55 6.29357 55.3731 6.66667 55.8333 6.66667Z" fill="#76CD22"/>
    <path d="M55.8333 6.66667C56.2936 6.66667 56.6667 6.29357 56.6667 5.83333C56.6667 5.3731 56.2936 5 55.8333 5C55.3731 5 55 5.3731 55 5.83333C55 6.29357 55.3731 6.66667 55.8333 6.66667Z" fill="#F56960"/>
    <path d="M55.8333 6.66667C56.2936 6.66667 56.6667 6.29357 56.6667 5.83333C56.6667 5.3731 56.2936 5 55.8333 5C55.3731 5 55 5.3731 55 5.83333C55 6.29357 55.3731 6.66667 55.8333 6.66667Z" fill="#1B3B6F"/>
    <path d="M52.4998 6.66667C52.9601 6.66667 53.3332 6.29357 53.3332 5.83333C53.3332 5.3731 52.9601 5 52.4998 5C52.0396 5 51.6665 5.3731 51.6665 5.83333C51.6665 6.29357 52.0396 6.66667 52.4998 6.66667Z" fill="#76CD22"/>
    <path d="M52.4998 6.66667C52.9601 6.66667 53.3332 6.29357 53.3332 5.83333C53.3332 5.3731 52.9601 5 52.4998 5C52.0396 5 51.6665 5.3731 51.6665 5.83333C51.6665 6.29357 52.0396 6.66667 52.4998 6.66667Z" fill="#F56960"/>
    <path d="M52.4998 6.66667C52.9601 6.66667 53.3332 6.29357 53.3332 5.83333C53.3332 5.3731 52.9601 5 52.4998 5C52.0396 5 51.6665 5.3731 51.6665 5.83333C51.6665 6.29357 52.0396 6.66667 52.4998 6.66667Z" fill="#1B3B6F"/>
    <path d="M77.5002 1.66663H72.5002C72.0393 1.66663 71.6668 2.03913 71.6668 2.49996C71.6668 2.96079 72.0393 3.33329 72.5002 3.33329H75.4885L56.466 22.355L48.6427 19.2258C48.4227 19.1383 48.1743 19.1475 47.961 19.2541L40.0535 23.2083L33.3693 18.8833C33.0402 18.6708 32.606 18.7158 32.3277 18.9941L25.8335 25.4883L20.5893 20.2441C20.2635 19.9183 19.7368 19.9183 19.411 20.2441L12.5002 27.155V17.5H56.6668C57.1277 17.5 57.5002 17.1275 57.5002 16.6666C57.5002 16.2058 57.1277 15.8333 56.6668 15.8333H11.6668C11.206 15.8333 10.8335 16.2058 10.8335 16.6666V29.1666C10.8335 29.5033 11.036 29.8083 11.3477 29.9366C11.451 29.98 11.5593 30 11.6668 30C11.8835 30 12.0968 29.915 12.256 29.7558L20.0002 22.0116L25.2443 27.2558C25.5702 27.5816 26.0968 27.5816 26.4227 27.2558L33.0302 20.6483L39.5477 24.8666C39.7943 25.0266 40.1085 25.0441 40.3727 24.9125L48.3718 20.9133L56.3577 24.1075C56.666 24.2291 57.0202 24.1591 57.256 23.9225L76.6668 4.51163V7.49996C76.6668 7.96079 77.0393 8.33329 77.5002 8.33329C77.961 8.33329 78.3335 7.96079 78.3335 7.49996V2.49996C78.3335 2.03913 77.961 1.66663 77.5002 1.66663Z" fill="#76CD22"/>
    <path d="M77.5002 1.66663H72.5002C72.0393 1.66663 71.6668 2.03913 71.6668 2.49996C71.6668 2.96079 72.0393 3.33329 72.5002 3.33329H75.4885L56.466 22.355L48.6427 19.2258C48.4227 19.1383 48.1743 19.1475 47.961 19.2541L40.0535 23.2083L33.3693 18.8833C33.0402 18.6708 32.606 18.7158 32.3277 18.9941L25.8335 25.4883L20.5893 20.2441C20.2635 19.9183 19.7368 19.9183 19.411 20.2441L12.5002 27.155V17.5H56.6668C57.1277 17.5 57.5002 17.1275 57.5002 16.6666C57.5002 16.2058 57.1277 15.8333 56.6668 15.8333H11.6668C11.206 15.8333 10.8335 16.2058 10.8335 16.6666V29.1666C10.8335 29.5033 11.036 29.8083 11.3477 29.9366C11.451 29.98 11.5593 30 11.6668 30C11.8835 30 12.0968 29.915 12.256 29.7558L20.0002 22.0116L25.2443 27.2558C25.5702 27.5816 26.0968 27.5816 26.4227 27.2558L33.0302 20.6483L39.5477 24.8666C39.7943 25.0266 40.1085 25.0441 40.3727 24.9125L48.3718 20.9133L56.3577 24.1075C56.666 24.2291 57.0202 24.1591 57.256 23.9225L76.6668 4.51163V7.49996C76.6668 7.96079 77.0393 8.33329 77.5002 8.33329C77.961 8.33329 78.3335 7.96079 78.3335 7.49996V2.49996C78.3335 2.03913 77.961 1.66663 77.5002 1.66663Z" fill="#F56960"/>
    <path d="M77.5002 1.66663H72.5002C72.0393 1.66663 71.6668 2.03913 71.6668 2.49996C71.6668 2.96079 72.0393 3.33329 72.5002 3.33329H75.4885L56.466 22.355L48.6427 19.2258C48.4227 19.1383 48.1743 19.1475 47.961 19.2541L40.0535 23.2083L33.3693 18.8833C33.0402 18.6708 32.606 18.7158 32.3277 18.9941L25.8335 25.4883L20.5893 20.2441C20.2635 19.9183 19.7368 19.9183 19.411 20.2441L12.5002 27.155V17.5H56.6668C57.1277 17.5 57.5002 17.1275 57.5002 16.6666C57.5002 16.2058 57.1277 15.8333 56.6668 15.8333H11.6668C11.206 15.8333 10.8335 16.2058 10.8335 16.6666V29.1666C10.8335 29.5033 11.036 29.8083 11.3477 29.9366C11.451 29.98 11.5593 30 11.6668 30C11.8835 30 12.0968 29.915 12.256 29.7558L20.0002 22.0116L25.2443 27.2558C25.5702 27.5816 26.0968 27.5816 26.4227 27.2558L33.0302 20.6483L39.5477 24.8666C39.7943 25.0266 40.1085 25.0441 40.3727 24.9125L48.3718 20.9133L56.3577 24.1075C56.666 24.2291 57.0202 24.1591 57.256 23.9225L76.6668 4.51163V7.49996C76.6668 7.96079 77.0393 8.33329 77.5002 8.33329C77.961 8.33329 78.3335 7.96079 78.3335 7.49996V2.49996C78.3335 2.03913 77.961 1.66663 77.5002 1.66663Z" fill="#1B3B6F"/>
    <path d="M70 35H68.3333C67.8725 35 67.5 35.3725 67.5 35.8333C67.5 36.2942 67.8725 36.6667 68.3333 36.6667H70C70.4608 36.6667 70.8333 36.2942 70.8333 35.8333C70.8333 35.3725 70.4608 35 70 35Z" fill="#76CD22"/>
    <path d="M70 35H68.3333C67.8725 35 67.5 35.3725 67.5 35.8333C67.5 36.2942 67.8725 36.6667 68.3333 36.6667H70C70.4608 36.6667 70.8333 36.2942 70.8333 35.8333C70.8333 35.3725 70.4608 35 70 35Z" fill="#F56960"/>
    <path d="M70 35H68.3333C67.8725 35 67.5 35.3725 67.5 35.8333C67.5 36.2942 67.8725 36.6667 68.3333 36.6667H70C70.4608 36.6667 70.8333 36.2942 70.8333 35.8333C70.8333 35.3725 70.4608 35 70 35Z" fill="#1B3B6F"/>
    <path d="M65 35H63.3333C62.8725 35 62.5 35.3725 62.5 35.8333C62.5 36.2942 62.8725 36.6667 63.3333 36.6667H65C65.4608 36.6667 65.8333 36.2942 65.8333 35.8333C65.8333 35.3725 65.4608 35 65 35Z" fill="#76CD22"/>
    <path d="M65 35H63.3333C62.8725 35 62.5 35.3725 62.5 35.8333C62.5 36.2942 62.8725 36.6667 63.3333 36.6667H65C65.4608 36.6667 65.8333 36.2942 65.8333 35.8333C65.8333 35.3725 65.4608 35 65 35Z" fill="#F56960"/>
    <path d="M65 35H63.3333C62.8725 35 62.5 35.3725 62.5 35.8333C62.5 36.2942 62.8725 36.6667 63.3333 36.6667H65C65.4608 36.6667 65.8333 36.2942 65.8333 35.8333C65.8333 35.3725 65.4608 35 65 35Z" fill="#1B3B6F"/>
    <path d="M60 35H58.3333C57.8725 35 57.5 35.3725 57.5 35.8333C57.5 36.2942 57.8725 36.6667 58.3333 36.6667H60C60.4608 36.6667 60.8333 36.2942 60.8333 35.8333C60.8333 35.3725 60.4608 35 60 35Z" fill="#76CD22"/>
    <path d="M60 35H58.3333C57.8725 35 57.5 35.3725 57.5 35.8333C57.5 36.2942 57.8725 36.6667 58.3333 36.6667H60C60.4608 36.6667 60.8333 36.2942 60.8333 35.8333C60.8333 35.3725 60.4608 35 60 35Z" fill="#F56960"/>
    <path d="M60 35H58.3333C57.8725 35 57.5 35.3725 57.5 35.8333C57.5 36.2942 57.8725 36.6667 58.3333 36.6667H60C60.4608 36.6667 60.8333 36.2942 60.8333 35.8333C60.8333 35.3725 60.4608 35 60 35Z" fill="#1B3B6F"/>
    <path d="M55 35H53.3333C52.8725 35 52.5 35.3725 52.5 35.8333C52.5 36.2942 52.8725 36.6667 53.3333 36.6667H55C55.4608 36.6667 55.8333 36.2942 55.8333 35.8333C55.8333 35.3725 55.4608 35 55 35Z" fill="#76CD22"/>
    <path d="M55 35H53.3333C52.8725 35 52.5 35.3725 52.5 35.8333C52.5 36.2942 52.8725 36.6667 53.3333 36.6667H55C55.4608 36.6667 55.8333 36.2942 55.8333 35.8333C55.8333 35.3725 55.4608 35 55 35Z" fill="#F56960"/>
    <path d="M55 35H53.3333C52.8725 35 52.5 35.3725 52.5 35.8333C52.5 36.2942 52.8725 36.6667 53.3333 36.6667H55C55.4608 36.6667 55.8333 36.2942 55.8333 35.8333C55.8333 35.3725 55.4608 35 55 35Z" fill="#1B3B6F"/>
    <path d="M73.3333 11.6666C72.8725 11.6666 72.5 12.0391 72.5 12.5V14.1666H70.8333C70.3725 14.1666 70 14.5391 70 15C70 15.4608 70.3725 15.8333 70.8333 15.8333H72.5V17.5C72.5 17.9608 72.8725 18.3333 73.3333 18.3333C73.7942 18.3333 74.1667 17.9608 74.1667 17.5V15.8333H75.8333C76.2942 15.8333 76.6667 15.4608 76.6667 15C76.6667 14.5391 76.2942 14.1666 75.8333 14.1666H74.1667V12.5C74.1667 12.0391 73.7942 11.6666 73.3333 11.6666Z" fill="#76CD22"/>
    <path d="M73.3333 11.6666C72.8725 11.6666 72.5 12.0391 72.5 12.5V14.1666H70.8333C70.3725 14.1666 70 14.5391 70 15C70 15.4608 70.3725 15.8333 70.8333 15.8333H72.5V17.5C72.5 17.9608 72.8725 18.3333 73.3333 18.3333C73.7942 18.3333 74.1667 17.9608 74.1667 17.5V15.8333H75.8333C76.2942 15.8333 76.6667 15.4608 76.6667 15C76.6667 14.5391 76.2942 14.1666 75.8333 14.1666H74.1667V12.5C74.1667 12.0391 73.7942 11.6666 73.3333 11.6666Z" fill="#F56960"/>
    <path d="M73.3333 11.6666C72.8725 11.6666 72.5 12.0391 72.5 12.5V14.1666H70.8333C70.3725 14.1666 70 14.5391 70 15C70 15.4608 70.3725 15.8333 70.8333 15.8333H72.5V17.5C72.5 17.9608 72.8725 18.3333 73.3333 18.3333C73.7942 18.3333 74.1667 17.9608 74.1667 17.5V15.8333H75.8333C76.2942 15.8333 76.6667 15.4608 76.6667 15C76.6667 14.5391 76.2942 14.1666 75.8333 14.1666H74.1667V12.5C74.1667 12.0391 73.7942 11.6666 73.3333 11.6666Z" fill="#1B3B6F"/>
</svg>
