<svg width="89" height="80" viewBox="0 0 89 80" fill="none" xmlns="http://www.w3.org/2000/svg">
    <path d="M72.6333 13.675L61.4119 2.45356C61.1862 2.22659 60.8744 2.08691 60.529 2.08691H21.8688C18.4305 2.08691 15.6333 4.88416 15.6333 8.32242V70.6775C15.6333 74.1157 18.4305 76.913 21.8688 76.913H66.7645C70.2027 76.913 73 74.1157 73 70.6775V14.5579C73 14.2125 72.8603 13.9007 72.6333 13.675ZM61.7761 6.34452L68.7424 13.3108H61.7761V6.34452ZM70.5058 70.6775C70.5058 72.7402 68.8272 74.4188 66.7645 74.4188H21.8688C19.8061 74.4188 18.1275 72.7402 18.1275 70.6775V8.32242C18.1275 6.25972 19.8061 4.58112 21.8688 4.58112H59.2818V14.5579C59.2818 15.2476 59.8406 15.805 60.529 15.805H70.5058V70.6775Z" fill="#76CD22"/>
    <path d="M72.6333 13.675L61.4119 2.45356C61.1862 2.22659 60.8744 2.08691 60.529 2.08691H21.8688C18.4305 2.08691 15.6333 4.88416 15.6333 8.32242V70.6775C15.6333 74.1157 18.4305 76.913 21.8688 76.913H66.7645C70.2027 76.913 73 74.1157 73 70.6775V14.5579C73 14.2125 72.8603 13.9007 72.6333 13.675ZM61.7761 6.34452L68.7424 13.3108H61.7761V6.34452ZM70.5058 70.6775C70.5058 72.7402 68.8272 74.4188 66.7645 74.4188H21.8688C19.8061 74.4188 18.1275 72.7402 18.1275 70.6775V8.32242C18.1275 6.25972 19.8061 4.58112 21.8688 4.58112H59.2818V14.5579C59.2818 15.2476 59.8406 15.805 60.529 15.805H70.5058V70.6775Z" fill="#F56960"/>
    <path d="M72.6333 13.675L61.4119 2.45356C61.1862 2.22659 60.8744 2.08691 60.529 2.08691H21.8688C18.4305 2.08691 15.6333 4.88416 15.6333 8.32242V70.6775C15.6333 74.1157 18.4305 76.913 21.8688 76.913H66.7645C70.2027 76.913 73 74.1157 73 70.6775V14.5579C73 14.2125 72.8603 13.9007 72.6333 13.675ZM61.7761 6.34452L68.7424 13.3108H61.7761V6.34452ZM70.5058 70.6775C70.5058 72.7402 68.8272 74.4188 66.7645 74.4188H21.8688C19.8061 74.4188 18.1275 72.7402 18.1275 70.6775V8.32242C18.1275 6.25972 19.8061 4.58112 21.8688 4.58112H59.2818V14.5579C59.2818 15.2476 59.8406 15.805 60.529 15.805H70.5058V70.6775Z" fill="#1B3B6F"/>
    <path d="M26.8575 19.5464C24.1064 19.5464 21.8691 21.7837 21.8691 24.5348C21.8691 27.2859 24.1064 29.5232 26.8575 29.5232C29.6087 29.5232 31.846 27.2859 31.846 24.5348C31.846 21.7837 29.6087 19.5464 26.8575 19.5464ZM26.8575 27.029C25.482 27.029 24.3633 25.9103 24.3633 24.5348C24.3633 23.1592 25.482 22.0406 26.8575 22.0406C28.2331 22.0406 29.3517 23.1592 29.3517 24.5348C29.3517 25.9103 28.2331 27.029 26.8575 27.029Z" fill="#76CD22"/>
    <path d="M26.8575 19.5464C24.1064 19.5464 21.8691 21.7837 21.8691 24.5348C21.8691 27.2859 24.1064 29.5232 26.8575 29.5232C29.6087 29.5232 31.846 27.2859 31.846 24.5348C31.846 21.7837 29.6087 19.5464 26.8575 19.5464ZM26.8575 27.029C25.482 27.029 24.3633 25.9103 24.3633 24.5348C24.3633 23.1592 25.482 22.0406 26.8575 22.0406C28.2331 22.0406 29.3517 23.1592 29.3517 24.5348C29.3517 25.9103 28.2331 27.029 26.8575 27.029Z" fill="#F56960"/>
    <path d="M26.8575 19.5464C24.1064 19.5464 21.8691 21.7837 21.8691 24.5348C21.8691 27.2859 24.1064 29.5232 26.8575 29.5232C29.6087 29.5232 31.846 27.2859 31.846 24.5348C31.846 21.7837 29.6087 19.5464 26.8575 19.5464ZM26.8575 27.029C25.482 27.029 24.3633 25.9103 24.3633 24.5348C24.3633 23.1592 25.482 22.0406 26.8575 22.0406C28.2331 22.0406 29.3517 23.1592 29.3517 24.5348C29.3517 25.9103 28.2331 27.029 26.8575 27.029Z" fill="#1B3B6F"/>
    <path d="M26.8575 33.2646C24.1064 33.2646 21.8691 35.502 21.8691 38.2531C21.8691 41.0042 24.1064 43.2415 26.8575 43.2415C29.6087 43.2415 31.846 41.0042 31.846 38.2531C31.846 35.502 29.6087 33.2646 26.8575 33.2646ZM26.8575 40.7473C25.482 40.7473 24.3633 39.6286 24.3633 38.2531C24.3633 36.8775 25.482 35.7589 26.8575 35.7589C28.2331 35.7589 29.3517 36.8775 29.3517 38.2531C29.3517 39.6286 28.2331 40.7473 26.8575 40.7473Z" fill="#76CD22"/>
    <path d="M26.8575 33.2646C24.1064 33.2646 21.8691 35.502 21.8691 38.2531C21.8691 41.0042 24.1064 43.2415 26.8575 43.2415C29.6087 43.2415 31.846 41.0042 31.846 38.2531C31.846 35.502 29.6087 33.2646 26.8575 33.2646ZM26.8575 40.7473C25.482 40.7473 24.3633 39.6286 24.3633 38.2531C24.3633 36.8775 25.482 35.7589 26.8575 35.7589C28.2331 35.7589 29.3517 36.8775 29.3517 38.2531C29.3517 39.6286 28.2331 40.7473 26.8575 40.7473Z" fill="#F56960"/>
    <path d="M26.8575 33.2646C24.1064 33.2646 21.8691 35.502 21.8691 38.2531C21.8691 41.0042 24.1064 43.2415 26.8575 43.2415C29.6087 43.2415 31.846 41.0042 31.846 38.2531C31.846 35.502 29.6087 33.2646 26.8575 33.2646ZM26.8575 40.7473C25.482 40.7473 24.3633 39.6286 24.3633 38.2531C24.3633 36.8775 25.482 35.7589 26.8575 35.7589C28.2331 35.7589 29.3517 36.8775 29.3517 38.2531C29.3517 39.6286 28.2331 40.7473 26.8575 40.7473Z" fill="#1B3B6F"/>
    <path d="M26.8575 46.9827C24.1064 46.9827 21.8691 49.22 21.8691 51.9711C21.8691 54.7222 24.1064 56.9595 26.8575 56.9595C29.6087 56.9595 31.846 54.7222 31.846 51.9711C31.846 49.22 29.6087 46.9827 26.8575 46.9827ZM26.8575 54.4653C25.482 54.4653 24.3633 53.3466 24.3633 51.9711C24.3633 50.5955 25.482 49.4769 26.8575 49.4769C28.2331 49.4769 29.3517 50.5955 29.3517 51.9711C29.3517 53.3466 28.2331 54.4653 26.8575 54.4653Z" fill="#76CD22"/>
    <path d="M26.8575 46.9827C24.1064 46.9827 21.8691 49.22 21.8691 51.9711C21.8691 54.7222 24.1064 56.9595 26.8575 56.9595C29.6087 56.9595 31.846 54.7222 31.846 51.9711C31.846 49.22 29.6087 46.9827 26.8575 46.9827ZM26.8575 54.4653C25.482 54.4653 24.3633 53.3466 24.3633 51.9711C24.3633 50.5955 25.482 49.4769 26.8575 49.4769C28.2331 49.4769 29.3517 50.5955 29.3517 51.9711C29.3517 53.3466 28.2331 54.4653 26.8575 54.4653Z" fill="#F56960"/>
    <path d="M26.8575 46.9827C24.1064 46.9827 21.8691 49.22 21.8691 51.9711C21.8691 54.7222 24.1064 56.9595 26.8575 56.9595C29.6087 56.9595 31.846 54.7222 31.846 51.9711C31.846 49.22 29.6087 46.9827 26.8575 46.9827ZM26.8575 54.4653C25.482 54.4653 24.3633 53.3466 24.3633 51.9711C24.3633 50.5955 25.482 49.4769 26.8575 49.4769C28.2331 49.4769 29.3517 50.5955 29.3517 51.9711C29.3517 53.3466 28.2331 54.4653 26.8575 54.4653Z" fill="#1B3B6F"/>
    <path d="M26.8575 60.7007C24.1064 60.7007 21.8691 62.938 21.8691 65.6891C21.8691 68.4402 24.1064 70.6775 26.8575 70.6775C29.6087 70.6775 31.846 68.4402 31.846 65.6891C31.846 62.938 29.6087 60.7007 26.8575 60.7007ZM26.8575 68.1833C25.482 68.1833 24.3633 67.0646 24.3633 65.6891C24.3633 64.3135 25.482 63.1949 26.8575 63.1949C28.2331 63.1949 29.3517 64.3135 29.3517 65.6891C29.3517 67.0646 28.2331 68.1833 26.8575 68.1833Z" fill="#76CD22"/>
    <path d="M26.8575 60.7007C24.1064 60.7007 21.8691 62.938 21.8691 65.6891C21.8691 68.4402 24.1064 70.6775 26.8575 70.6775C29.6087 70.6775 31.846 68.4402 31.846 65.6891C31.846 62.938 29.6087 60.7007 26.8575 60.7007ZM26.8575 68.1833C25.482 68.1833 24.3633 67.0646 24.3633 65.6891C24.3633 64.3135 25.482 63.1949 26.8575 63.1949C28.2331 63.1949 29.3517 64.3135 29.3517 65.6891C29.3517 67.0646 28.2331 68.1833 26.8575 68.1833Z" fill="#F56960"/>
    <path d="M26.8575 60.7007C24.1064 60.7007 21.8691 62.938 21.8691 65.6891C21.8691 68.4402 24.1064 70.6775 26.8575 70.6775C29.6087 70.6775 31.846 68.4402 31.846 65.6891C31.846 62.938 29.6087 60.7007 26.8575 60.7007ZM26.8575 68.1833C25.482 68.1833 24.3633 67.0646 24.3633 65.6891C24.3633 64.3135 25.482 63.1949 26.8575 63.1949C28.2331 63.1949 29.3517 64.3135 29.3517 65.6891C29.3517 67.0646 28.2331 68.1833 26.8575 68.1833Z" fill="#1B3B6F"/>
    <path d="M66.7645 25.782H34.3398V28.2762H66.7645V25.782Z" fill="#76CD22"/>
    <path d="M66.7645 25.782H34.3398V28.2762H66.7645V25.782Z" fill="#F56960"/>
    <path d="M66.7645 25.782H34.3398V28.2762H66.7645V25.782Z" fill="#1B3B6F"/>
    <path d="M53.0463 8.32227H35.5869V10.8165H53.0463V8.32227Z" fill="#76CD22"/>
    <path d="M53.0463 8.32227H35.5869V10.8165H53.0463V8.32227Z" fill="#F56960"/>
    <path d="M53.0463 8.32227H35.5869V10.8165H53.0463V8.32227Z" fill="#1B3B6F"/>
    <path d="M56.7877 13.3108H31.8457V15.805H56.7877V13.3108Z" fill="#76CD22"/>
    <path d="M56.7877 13.3108H31.8457V15.805H56.7877V13.3108Z" fill="#F56960"/>
    <path d="M56.7877 13.3108H31.8457V15.805H56.7877V13.3108Z" fill="#1B3B6F"/>
    <path d="M66.7645 39.5H34.3398V41.9942H66.7645V39.5Z" fill="#76CD22"/>
    <path d="M66.7645 39.5H34.3398V41.9942H66.7645V39.5Z" fill="#F56960"/>
    <path d="M66.7645 39.5H34.3398V41.9942H66.7645V39.5Z" fill="#1B3B6F"/>
    <path d="M66.7645 53.218H34.3398V55.7122H66.7645V53.218Z" fill="#76CD22"/>
    <path d="M66.7645 53.218H34.3398V55.7122H66.7645V53.218Z" fill="#F56960"/>
    <path d="M66.7645 53.218H34.3398V55.7122H66.7645V53.218Z" fill="#1B3B6F"/>
    <path d="M66.7645 66.9363H34.3398V69.4305H66.7645V66.9363Z" fill="#76CD22"/>
    <path d="M66.7645 66.9363H34.3398V69.4305H66.7645V66.9363Z" fill="#F56960"/>
    <path d="M66.7645 66.9363H34.3398V69.4305H66.7645V66.9363Z" fill="#1B3B6F"/>
    <path d="M46.8106 20.7935H44.3164V23.2877H46.8106V20.7935Z" fill="#76CD22"/>
    <path d="M46.8106 20.7935H44.3164V23.2877H46.8106V20.7935Z" fill="#F56960"/>
    <path d="M46.8106 20.7935H44.3164V23.2877H46.8106V20.7935Z" fill="#1B3B6F"/>
    <path d="M41.8223 20.7935H39.3281V23.2877H41.8223V20.7935Z" fill="#76CD22"/>
    <path d="M41.8223 20.7935H39.3281V23.2877H41.8223V20.7935Z" fill="#F56960"/>
    <path d="M41.8223 20.7935H39.3281V23.2877H41.8223V20.7935Z" fill="#1B3B6F"/>
    <path d="M36.834 20.7935H34.3398V23.2877H36.834V20.7935Z" fill="#76CD22"/>
    <path d="M36.834 20.7935H34.3398V23.2877H36.834V20.7935Z" fill="#F56960"/>
    <path d="M36.834 20.7935H34.3398V23.2877H36.834V20.7935Z" fill="#1B3B6F"/>
</svg>
