<svg width="80" height="83" viewBox="0 0 80 83" fill="none" xmlns="http://www.w3.org/2000/svg">
    <path d="M13.3208 24.657C11.2635 24.657 9.58936 26.3312 9.58936 28.3885C9.58936 30.4458 11.2635 32.1199 13.3208 32.1199C15.3781 32.1199 17.0523 30.4458 17.0523 28.3885C17.0523 26.3312 15.3781 24.657 13.3208 24.657ZM13.3208 29.6323C12.6355 29.6323 12.077 29.0738 12.077 28.3885C12.077 27.7031 12.6355 27.1446 13.3208 27.1446C14.0062 27.1446 14.5647 27.7031 14.5647 28.3885C14.5647 29.0738 14.0062 29.6323 13.3208 29.6323Z" fill="#76CD22"/>
    <path d="M13.3208 24.657C11.2635 24.657 9.58936 26.3312 9.58936 28.3885C9.58936 30.4458 11.2635 32.1199 13.3208 32.1199C15.3781 32.1199 17.0523 30.4458 17.0523 28.3885C17.0523 26.3312 15.3781 24.657 13.3208 24.657ZM13.3208 29.6323C12.6355 29.6323 12.077 29.0738 12.077 28.3885C12.077 27.7031 12.6355 27.1446 13.3208 27.1446C14.0062 27.1446 14.5647 27.7031 14.5647 28.3885C14.5647 29.0738 14.0062 29.6323 13.3208 29.6323Z" fill="#F56960"/>
    <path d="M13.3208 24.657C11.2635 24.657 9.58936 26.3312 9.58936 28.3885C9.58936 30.4458 11.2635 32.1199 13.3208 32.1199C15.3781 32.1199 17.0523 30.4458 17.0523 28.3885C17.0523 26.3312 15.3781 24.657 13.3208 24.657ZM13.3208 29.6323C12.6355 29.6323 12.077 29.0738 12.077 28.3885C12.077 27.7031 12.6355 27.1446 13.3208 27.1446C14.0062 27.1446 14.5647 27.7031 14.5647 28.3885C14.5647 29.0738 14.0062 29.6323 13.3208 29.6323Z" fill="#1B3B6F"/>
    <path d="M12.4466 58.1646L10.2637 59.3586C10.6729 60.1062 11.1157 60.8512 11.5796 61.5714L13.6718 60.2256C13.2389 59.5539 12.8272 58.8611 12.4466 58.1646Z" fill="#76CD22"/>
    <path d="M12.4466 58.1646L10.2637 59.3586C10.6729 60.1062 11.1157 60.8512 11.5796 61.5714L13.6718 60.2256C13.2389 59.5539 12.8272 58.8611 12.4466 58.1646Z" fill="#F56960"/>
    <path d="M12.4466 58.1646L10.2637 59.3586C10.6729 60.1062 11.1157 60.8512 11.5796 61.5714L13.6718 60.2256C13.2389 59.5539 12.8272 58.8611 12.4466 58.1646Z" fill="#1B3B6F"/>
    <path d="M30.1947 73.5469L29.3228 75.8766C30.12 76.1751 30.9422 76.4487 31.7681 76.69L32.4671 74.3031C31.6997 74.078 30.936 73.8242 30.1947 73.5469Z" fill="#76CD22"/>
    <path d="M30.1947 73.5469L29.3228 75.8766C30.12 76.1751 30.9422 76.4487 31.7681 76.69L32.4671 74.3031C31.6997 74.078 30.936 73.8242 30.1947 73.5469Z" fill="#F56960"/>
    <path d="M30.1947 73.5469L29.3228 75.8766C30.12 76.1751 30.9422 76.4487 31.7681 76.69L32.4671 74.3031C31.6997 74.078 30.936 73.8242 30.1947 73.5469Z" fill="#1B3B6F"/>
    <path d="M21.8015 68.9558L20.3076 70.9459C20.9917 71.4596 21.7044 71.9547 22.4234 72.4174L23.7692 70.3253C23.1 69.8937 22.437 69.4334 21.8015 68.9558Z" fill="#76CD22"/>
    <path d="M21.8015 68.9558L20.3076 70.9459C20.9917 71.4596 21.7044 71.9547 22.4234 72.4174L23.7692 70.3253C23.1 69.8937 22.437 69.4334 21.8015 68.9558Z" fill="#F56960"/>
    <path d="M21.8015 68.9558L20.3076 70.9459C20.9917 71.4596 21.7044 71.9547 22.4234 72.4174L23.7692 70.3253C23.1 69.8937 22.437 69.4334 21.8015 68.9558Z" fill="#1B3B6F"/>
    <path d="M25.8327 71.5532L24.6387 73.7349C25.3875 74.1441 26.1624 74.5334 26.9422 74.8904L27.9783 72.6291C27.252 72.2958 26.5305 71.9338 25.8327 71.5532Z" fill="#76CD22"/>
    <path d="M25.8327 71.5532L24.6387 73.7349C25.3875 74.1441 26.1624 74.5334 26.9422 74.8904L27.9783 72.6291C27.252 72.2958 26.5305 71.9338 25.8327 71.5532Z" fill="#F56960"/>
    <path d="M25.8327 71.5532L24.6387 73.7349C25.3875 74.1441 26.1624 74.5334 26.9422 74.8904L27.9783 72.6291C27.252 72.2958 26.5305 71.9338 25.8327 71.5532Z" fill="#1B3B6F"/>
    <path d="M18.178 65.814L16.418 67.5715C17.0225 68.1772 17.6568 68.7681 18.3024 69.3278L19.933 67.4484C19.331 66.9272 18.7414 66.3762 18.178 65.814Z" fill="#76CD22"/>
    <path d="M18.178 65.814L16.418 67.5715C17.0225 68.1772 17.6568 68.7681 18.3024 69.3278L19.933 67.4484C19.331 66.9272 18.7414 66.3762 18.178 65.814Z" fill="#F56960"/>
    <path d="M18.178 65.814L16.418 67.5715C17.0225 68.1772 17.6568 68.7681 18.3024 69.3278L19.933 67.4484C19.331 66.9272 18.7414 66.3762 18.178 65.814Z" fill="#1B3B6F"/>
    <path d="M15.0375 62.1919L13.0474 63.6845C13.5623 64.3711 14.1059 65.0452 14.6631 65.6883L16.5425 64.0576C16.0251 63.4594 15.5188 62.8312 15.0375 62.1919Z" fill="#76CD22"/>
    <path d="M15.0375 62.1919L13.0474 63.6845C13.5623 64.3711 14.1059 65.0452 14.6631 65.6883L16.5425 64.0576C16.0251 63.4594 15.5188 62.8312 15.0375 62.1919Z" fill="#F56960"/>
    <path d="M15.0375 62.1919L13.0474 63.6845C13.5623 64.3711 14.1059 65.0452 14.6631 65.6883L16.5425 64.0576C16.0251 63.4594 15.5188 62.8312 15.0375 62.1919Z" fill="#1B3B6F"/>
    <path d="M8.43017 44.4724L5.94873 44.649C6.00843 45.5011 6.10048 46.3618 6.22113 47.2088L8.68391 46.8581C8.57196 46.0682 8.48614 45.266 8.43017 44.4724Z" fill="#76CD22"/>
    <path d="M8.43017 44.4724L5.94873 44.649C6.00843 45.5011 6.10048 46.3618 6.22113 47.2088L8.68391 46.8581C8.57196 46.0682 8.48614 45.266 8.43017 44.4724Z" fill="#F56960"/>
    <path d="M8.43017 44.4724L5.94873 44.649C6.00843 45.5011 6.10048 46.3618 6.22113 47.2088L8.68391 46.8581C8.57196 46.0682 8.48614 45.266 8.43017 44.4724Z" fill="#1B3B6F"/>
    <path d="M5.94871 39.501C5.88776 40.3468 5.85791 41.2112 5.85791 42.0707V42.0745L8.34556 42.0707C8.34556 41.2697 8.37417 40.4637 8.43014 39.6776L5.94871 39.501Z" fill="#76CD22"/>
    <path d="M5.94871 39.501C5.88776 40.3468 5.85791 41.2112 5.85791 42.0707V42.0745L8.34556 42.0707C8.34556 41.2697 8.37417 40.4637 8.43014 39.6776L5.94871 39.501Z" fill="#F56960"/>
    <path d="M5.94871 39.501C5.88776 40.3468 5.85791 41.2112 5.85791 42.0707V42.0745L8.34556 42.0707C8.34556 41.2697 8.37417 40.4637 8.43014 39.6776L5.94871 39.501Z" fill="#1B3B6F"/>
    <path d="M9.10671 49.2153L6.67627 49.744C6.85787 50.5811 7.07181 51.4206 7.31187 52.2391L9.69877 51.54C9.47612 50.7776 9.27711 49.9952 9.10671 49.2153Z" fill="#76CD22"/>
    <path d="M9.10671 49.2153L6.67627 49.744C6.85787 50.5811 7.07181 51.4206 7.31187 52.2391L9.69877 51.54C9.47612 50.7776 9.27711 49.9952 9.10671 49.2153Z" fill="#F56960"/>
    <path d="M9.10671 49.2153L6.67627 49.744C6.85787 50.5811 7.07181 51.4206 7.31187 52.2391L9.69877 51.54C9.47612 50.7776 9.27711 49.9952 9.10671 49.2153Z" fill="#1B3B6F"/>
    <path d="M10.455 53.8125L8.12402 54.6832C8.42254 55.4817 8.7534 56.2815 9.10913 57.0589L11.3717 56.0253C11.0408 55.3001 10.7323 54.5563 10.455 53.8125Z" fill="#76CD22"/>
    <path d="M10.455 53.8125L8.12402 54.6832C8.42254 55.4817 8.7534 56.2815 9.10913 57.0589L11.3717 56.0253C11.0408 55.3001 10.7323 54.5563 10.455 53.8125Z" fill="#F56960"/>
    <path d="M10.455 53.8125L8.12402 54.6832C8.42254 55.4817 8.7534 56.2815 9.10913 57.0589L11.3717 56.0253C11.0408 55.3001 10.7323 54.5563 10.455 53.8125Z" fill="#1B3B6F"/>
    <path d="M72.4858 56.0242C72.1525 56.7506 71.7905 57.472 71.4087 58.1698L73.5916 59.3639C74.0008 58.6151 74.3901 57.8402 74.7471 57.0603L72.4858 56.0242Z" fill="#76CD22"/>
    <path d="M72.4858 56.0242C72.1525 56.7506 71.7905 57.472 71.4087 58.1698L73.5916 59.3639C74.0008 58.6151 74.3901 57.8402 74.7471 57.0603L72.4858 56.0242Z" fill="#F56960"/>
    <path d="M72.4858 56.0242C72.1525 56.7506 71.7905 57.472 71.4087 58.1698L73.5916 59.3639C74.0008 58.6151 74.3901 57.8402 74.7471 57.0603L72.4858 56.0242Z" fill="#1B3B6F"/>
    <path d="M70.1837 60.2314C69.7508 60.9031 69.2894 61.5648 68.813 62.2004L70.8031 63.6943C71.3156 63.0126 71.8106 62.2999 72.2758 61.5785L70.1837 60.2314Z" fill="#76CD22"/>
    <path d="M70.1837 60.2314C69.7508 60.9031 69.2894 61.5648 68.813 62.2004L70.8031 63.6943C71.3156 63.0126 71.8106 62.2999 72.2758 61.5785L70.1837 60.2314Z" fill="#F56960"/>
    <path d="M70.1837 60.2314C69.7508 60.9031 69.2894 61.5648 68.813 62.2004L70.8031 63.6943C71.3156 63.0126 71.8106 62.2999 72.2758 61.5785L70.1837 60.2314Z" fill="#1B3B6F"/>
    <path d="M67.3053 64.0664C66.7841 64.6684 66.2344 65.2592 65.6709 65.8214L67.4284 67.5815C68.0342 66.977 68.625 66.3426 69.1847 65.6971L67.3053 64.0664Z" fill="#76CD22"/>
    <path d="M67.3053 64.0664C66.7841 64.6684 66.2344 65.2592 65.6709 65.8214L67.4284 67.5815C68.0342 66.977 68.625 66.3426 69.1847 65.6971L67.3053 64.0664Z" fill="#F56960"/>
    <path d="M67.3053 64.0664C66.7841 64.6684 66.2344 65.2592 65.6709 65.8214L67.4284 67.5815C68.0342 66.977 68.625 66.3426 69.1847 65.6971L67.3053 64.0664Z" fill="#1B3B6F"/>
    <path d="M74.1615 51.5337C73.9364 52.2986 73.6826 53.0636 73.4053 53.8074L75.735 54.6781C76.0347 53.8783 76.3071 53.0549 76.5484 52.2327L74.1615 51.5337Z" fill="#76CD22"/>
    <path d="M74.1615 51.5337C73.9364 52.2986 73.6826 53.0636 73.4053 53.8074L75.735 54.6781C76.0347 53.8783 76.3071 53.0549 76.5484 52.2327L74.1615 51.5337Z" fill="#F56960"/>
    <path d="M74.1615 51.5337C73.9364 52.2986 73.6826 53.0636 73.4053 53.8074L75.735 54.6781C76.0347 53.8783 76.3071 53.0549 76.5484 52.2327L74.1615 51.5337Z" fill="#1B3B6F"/>
    <path d="M75.1751 46.8518C75.0619 47.6429 74.9189 48.4364 74.751 49.2113L77.1827 49.7375C77.363 48.9054 77.516 48.0533 77.6367 47.2026L75.1751 46.8518Z" fill="#76CD22"/>
    <path d="M75.1751 46.8518C75.0619 47.6429 74.9189 48.4364 74.751 49.2113L77.1827 49.7375C77.363 48.9054 77.516 48.0533 77.6367 47.2026L75.1751 46.8518Z" fill="#F56960"/>
    <path d="M75.1751 46.8518C75.0619 47.6429 74.9189 48.4364 74.751 49.2113L77.1827 49.7375C77.363 48.9054 77.516 48.0533 77.6367 47.2026L75.1751 46.8518Z" fill="#1B3B6F"/>
    <path d="M63.9148 67.4573C63.3153 67.9772 62.6872 68.4834 62.0479 68.9635L63.5404 70.9537C64.2258 70.44 64.8999 69.8964 65.5442 69.3379L63.9148 67.4573Z" fill="#76CD22"/>
    <path d="M63.9148 67.4573C63.3153 67.9772 62.6872 68.4834 62.0479 68.9635L63.5404 70.9537C64.2258 70.44 64.8999 69.8964 65.5442 69.3379L63.9148 67.4573Z" fill="#F56960"/>
    <path d="M63.9148 67.4573C63.3153 67.9772 62.6872 68.4834 62.0479 68.9635L63.5404 70.9537C64.2258 70.44 64.8999 69.8964 65.5442 69.3379L63.9148 67.4573Z" fill="#1B3B6F"/>
    <path d="M34.7908 74.8953L34.2646 77.3257C35.0968 77.5061 35.9488 77.659 36.7996 77.7797L37.1503 75.3182C36.3593 75.205 35.5657 75.0619 34.7908 74.8953Z" fill="#76CD22"/>
    <path d="M34.7908 74.8953L34.2646 77.3257C35.0968 77.5061 35.9488 77.659 36.7996 77.7797L37.1503 75.3182C36.3593 75.205 35.5657 75.0619 34.7908 74.8953Z" fill="#F56960"/>
    <path d="M34.7908 74.8953L34.2646 77.3257C35.0968 77.5061 35.9488 77.659 36.7996 77.7797L37.1503 75.3182C36.3593 75.205 35.5657 75.0619 34.7908 74.8953Z" fill="#1B3B6F"/>
    <path d="M75.5125 42.0708C75.5125 42.8706 75.4852 43.6778 75.4292 44.4676L77.9106 44.643C77.9703 43.7935 78.0002 42.9278 78.0002 42.0708H75.5125Z" fill="#76CD22"/>
    <path d="M75.5125 42.0708C75.5125 42.8706 75.4852 43.6778 75.4292 44.4676L77.9106 44.643C77.9703 43.7935 78.0002 42.9278 78.0002 42.0708H75.5125Z" fill="#F56960"/>
    <path d="M75.5125 42.0708C75.5125 42.8706 75.4852 43.6778 75.4292 44.4676L77.9106 44.643C77.9703 43.7935 78.0002 42.9278 78.0002 42.0708H75.5125Z" fill="#1B3B6F"/>
    <path d="M46.7138 75.3159C45.9252 75.4279 45.1229 75.5137 44.3281 75.5697L44.5048 78.0511C45.3568 77.9914 46.2175 77.8994 47.0645 77.7787L46.7138 75.3159Z" fill="#76CD22"/>
    <path d="M46.7138 75.3159C45.9252 75.4279 45.1229 75.5137 44.3281 75.5697L44.5048 78.0511C45.3568 77.9914 46.2175 77.8994 47.0645 77.7787L46.7138 75.3159Z" fill="#F56960"/>
    <path d="M46.7138 75.3159C45.9252 75.4279 45.1229 75.5137 44.3281 75.5697L44.5048 78.0511C45.3568 77.9914 46.2175 77.8994 47.0645 77.7787L46.7138 75.3159Z" fill="#1B3B6F"/>
    <path d="M41.9291 75.6539C41.1293 75.6539 40.3246 75.6265 39.5348 75.5706L39.3594 78.052C40.2077 78.1117 41.0734 78.1416 41.9304 78.1416L41.9291 75.6539Z" fill="#76CD22"/>
    <path d="M41.9291 75.6539C41.1293 75.6539 40.3246 75.6265 39.5348 75.5706L39.3594 78.052C40.2077 78.1117 41.0734 78.1416 41.9304 78.1416L41.9291 75.6539Z" fill="#F56960"/>
    <path d="M41.9291 75.6539C41.1293 75.6539 40.3246 75.6265 39.5348 75.5706L39.3594 78.052C40.2077 78.1117 41.0734 78.1416 41.9304 78.1416L41.9291 75.6539Z" fill="#1B3B6F"/>
    <path d="M60.0813 70.3306C59.4146 70.7597 58.7218 71.1714 58.0215 71.5545L59.2156 73.7374C59.9668 73.3257 60.7106 72.8841 61.4271 72.4227L60.0813 70.3306Z" fill="#76CD22"/>
    <path d="M60.0813 70.3306C59.4146 70.7597 58.7218 71.1714 58.0215 71.5545L59.2156 73.7374C59.9668 73.3257 60.7106 72.8841 61.4271 72.4227L60.0813 70.3306Z" fill="#F56960"/>
    <path d="M60.0813 70.3306C59.4146 70.7597 58.7218 71.1714 58.0215 71.5545L59.2156 73.7374C59.9668 73.3257 60.7106 72.8841 61.4271 72.4227L60.0813 70.3306Z" fill="#1B3B6F"/>
    <path d="M55.881 72.6277C55.1558 72.9585 54.412 73.2683 53.6694 73.5444L54.5389 75.8753C55.3374 75.5768 56.1372 75.2459 56.9146 74.8902L55.881 72.6277Z" fill="#76CD22"/>
    <path d="M55.881 72.6277C55.1558 72.9585 54.412 73.2683 53.6694 73.5444L54.5389 75.8753C55.3374 75.5768 56.1372 75.2459 56.9146 74.8902L55.881 72.6277Z" fill="#F56960"/>
    <path d="M55.881 72.6277C55.1558 72.9585 54.412 73.2683 53.6694 73.5444L54.5389 75.8753C55.3374 75.5768 56.1372 75.2459 56.9146 74.8902L55.881 72.6277Z" fill="#1B3B6F"/>
    <path d="M51.3955 74.3018C50.6331 74.5244 49.8519 74.7234 49.0708 74.8938L49.5994 77.3243C50.4365 77.1427 51.2761 76.9287 52.0946 76.6887L51.3955 74.3018Z" fill="#76CD22"/>
    <path d="M51.3955 74.3018C50.6331 74.5244 49.8519 74.7234 49.0708 74.8938L49.5994 77.3243C50.4365 77.1427 51.2761 76.9287 52.0946 76.6887L51.3955 74.3018Z" fill="#F56960"/>
    <path d="M51.3955 74.3018C50.6331 74.5244 49.8519 74.7234 49.0708 74.8938L49.5994 77.3243C50.4365 77.1427 51.2761 76.9287 52.0946 76.6887L51.3955 74.3018Z" fill="#1B3B6F"/>
    <path d="M56.4381 9.15405L55.3423 11.388C56.0326 11.7263 56.7428 12.1081 57.4531 12.5223L58.7068 10.373C57.9444 9.92896 57.1807 9.51849 56.4381 9.15405Z" fill="#76CD22"/>
    <path d="M56.4381 9.15405L55.3423 11.388C56.0326 11.7263 56.7428 12.1081 57.4531 12.5223L58.7068 10.373C57.9444 9.92896 57.1807 9.51849 56.4381 9.15405Z" fill="#F56960"/>
    <path d="M56.4381 9.15405L55.3423 11.388C56.0326 11.7263 56.7428 12.1081 57.4531 12.5223L58.7068 10.373C57.9444 9.92896 57.1807 9.51849 56.4381 9.15405Z" fill="#1B3B6F"/>
    <path d="M41.9291 5.99976L41.4092 6.00349L41.4453 8.49114L41.9291 8.48741C42.5858 8.48741 43.2276 8.50234 43.8545 8.53219L43.9715 6.04702C43.306 6.01593 42.6269 5.99976 41.9291 5.99976Z" fill="#76CD22"/>
    <path d="M41.9291 5.99976L41.4092 6.00349L41.4453 8.49114L41.9291 8.48741C42.5858 8.48741 43.2276 8.50234 43.8545 8.53219L43.9715 6.04702C43.306 6.01593 42.6269 5.99976 41.9291 5.99976Z" fill="#F56960"/>
    <path d="M41.9291 5.99976L41.4092 6.00349L41.4453 8.49114L41.9291 8.48741C42.5858 8.48741 43.2276 8.50234 43.8545 8.53219L43.9715 6.04702C43.306 6.01593 42.6269 5.99976 41.9291 5.99976Z" fill="#1B3B6F"/>
    <path d="M51.6109 7.27222L50.9131 9.66036C51.6656 9.88052 52.4219 10.138 53.1607 10.4266L54.0674 8.11056C53.2602 7.79462 52.4343 7.51352 51.6109 7.27222Z" fill="#76CD22"/>
    <path d="M51.6109 7.27222L50.9131 9.66036C51.6656 9.88052 52.4219 10.138 53.1607 10.4266L54.0674 8.11056C53.2602 7.79462 52.4343 7.51352 51.6109 7.27222Z" fill="#F56960"/>
    <path d="M51.6109 7.27222L50.9131 9.66036C51.6656 9.88052 52.4219 10.138 53.1607 10.4266L54.0674 8.11056C53.2602 7.79462 52.4343 7.51352 51.6109 7.27222Z" fill="#1B3B6F"/>
    <path d="M46.5347 6.25464L46.2461 8.72488C47.0496 8.81941 47.8432 8.94379 48.6044 9.09554L49.0895 6.65515C48.2648 6.49097 47.4053 6.35663 46.5347 6.25464Z" fill="#76CD22"/>
    <path d="M46.5347 6.25464L46.2461 8.72488C47.0496 8.81941 47.8432 8.94379 48.6044 9.09554L49.0895 6.65515C48.2648 6.49097 47.4053 6.35663 46.5347 6.25464Z" fill="#F56960"/>
    <path d="M46.5347 6.25464L46.2461 8.72488C47.0496 8.81941 47.8432 8.94379 48.6044 9.09554L49.0895 6.65515C48.2648 6.49097 47.4053 6.35663 46.5347 6.25464Z" fill="#1B3B6F"/>
    <path d="M28.8325 8.44995C28.0352 8.76091 27.2404 9.1042 26.4692 9.47113L27.5352 11.7187C28.2541 11.3779 28.9955 11.057 29.738 10.7672L28.8325 8.44995Z" fill="#76CD22"/>
    <path d="M28.8325 8.44995C28.0352 8.76091 27.2404 9.1042 26.4692 9.47113L27.5352 11.7187C28.2541 11.3779 28.9955 11.057 29.738 10.7672L28.8325 8.44995Z" fill="#F56960"/>
    <path d="M28.8325 8.44995C28.0352 8.76091 27.2404 9.1042 26.4692 9.47113L27.5352 11.7187C28.2541 11.3779 28.9955 11.057 29.738 10.7672L28.8325 8.44995Z" fill="#1B3B6F"/>
    <path d="M33.752 6.93115C32.9174 7.12519 32.0803 7.35032 31.2656 7.60282L32.0007 9.97977C32.7582 9.74469 33.5369 9.53448 34.3142 9.35413L33.752 6.93115Z" fill="#76CD22"/>
    <path d="M33.752 6.93115C32.9174 7.12519 32.0803 7.35032 31.2656 7.60282L32.0007 9.97977C32.7582 9.74469 33.5369 9.53448 34.3142 9.35413L33.752 6.93115Z" fill="#F56960"/>
    <path d="M33.752 6.93115C32.9174 7.12519 32.0803 7.35032 31.2656 7.60282L32.0007 9.97977C32.7582 9.74469 33.5369 9.53448 34.3142 9.35413L33.752 6.93115Z" fill="#1B3B6F"/>
    <path d="M38.8381 6.13037C37.9836 6.20376 37.1228 6.30699 36.2808 6.44008L36.6688 8.89789C37.4512 8.7735 38.2522 8.67649 39.0483 8.60932L38.8381 6.13037Z" fill="#76CD22"/>
    <path d="M38.8381 6.13037C37.9836 6.20376 37.1228 6.30699 36.2808 6.44008L36.6688 8.89789C37.4512 8.7735 38.2522 8.67649 39.0483 8.60932L38.8381 6.13037Z" fill="#F56960"/>
    <path d="M38.8381 6.13037C37.9836 6.20376 37.1228 6.30699 36.2808 6.44008L36.6688 8.89789C37.4512 8.7735 38.2522 8.67649 39.0483 8.60932L38.8381 6.13037Z" fill="#1B3B6F"/>
    <path d="M77.3498 36.9946L75.5911 35.2358L57.7919 53.035C57.7247 52.9591 57.6713 52.8733 57.5991 52.7999L47.1335 42.3343L48.7418 40.7261L46.983 38.9673L43.2901 42.6602C41.3112 44.6379 38.2476 44.9116 35.9677 43.4799L45.0066 34.5119C45.0078 34.5107 45.0078 34.5094 45.0091 34.5082L68.6418 10.8755L66.883 9.1167L44.1309 31.8688L42.5227 30.2605C42.2901 30.0267 41.9729 29.8961 41.6433 29.8961H37.1829L35.0597 27.7729L17.6461 10.3593L15.8874 12.1181L27.4463 23.6769L11.5377 39.5855L2.68165 31.467L1 33.3017L15.5229 46.6131V49.7973C15.5229 50.1269 15.6535 50.4441 15.8874 50.6767L21.2669 56.0562C20.7756 56.7192 20.4982 57.5128 20.4982 58.3536C20.4982 60.4482 22.1674 62.1485 24.2434 62.2219C24.3155 64.2518 25.945 65.8812 27.9749 65.9534C28.047 67.9833 29.6764 69.6127 31.7064 69.6849C31.7797 71.7608 33.4813 73.43 35.5747 73.43C36.1033 73.43 36.6157 73.3218 37.0884 73.1216L37.1829 73.2161C38.122 74.1564 39.3721 74.6739 40.7017 74.6739C42.0314 74.6739 43.2802 74.1564 44.2193 73.2161L57.5991 59.8362C58.5394 58.8959 59.0569 57.6471 59.0569 56.3187C59.0569 56.0003 59.0233 55.6868 58.9648 55.3796L77.3498 36.9946ZM13.3736 41.2684L29.205 25.4357L32.4216 28.6522L16.7294 44.3444L13.3736 41.2684ZM25.3666 59.3399C25.1029 59.6024 24.7534 59.7479 24.3802 59.7479C23.6115 59.7479 22.9859 59.1223 22.9859 58.3536C22.9859 57.9804 23.1314 57.6309 23.3939 57.3672L29.312 51.4491C29.5757 51.1867 29.9252 51.0411 30.2983 51.0411C31.067 51.0411 31.6927 51.6668 31.6927 52.4355C31.6927 52.8086 31.5471 53.1581 31.2847 53.4218L25.3666 59.3399ZM29.0981 63.0714C28.8344 63.3339 28.4848 63.4794 28.1117 63.4794C27.343 63.4794 26.7174 62.8538 26.7174 62.0851C26.7174 61.7119 26.8629 61.3624 27.1253 61.0987L33.0435 55.1806C33.3072 54.9181 33.6567 54.7726 34.0298 54.7726C34.7985 54.7726 35.4242 55.3983 35.4242 56.1669C35.4242 56.5401 35.2786 56.8896 35.0162 57.1533L29.0981 63.0714ZM32.8295 66.8029C32.5658 67.0654 32.2163 67.2109 31.8432 67.2109C31.0745 67.2109 30.4489 66.5852 30.4489 65.8166C30.4489 65.4434 30.5944 65.0939 30.8568 64.8302L36.775 58.9121C37.0386 58.6496 37.3882 58.5041 37.7613 58.5041C38.53 58.5041 39.1556 59.1297 39.1556 59.8984C39.1556 60.2716 39.0101 60.6211 38.7477 60.8848L32.8295 66.8029ZM36.561 70.5344C36.2973 70.7968 35.9478 70.9424 35.5747 70.9424C34.806 70.9424 34.1803 70.3167 34.1803 69.548C34.1803 69.1749 34.3259 68.8254 34.5883 68.5617L40.5064 62.6436C40.7701 62.3811 41.1196 62.2356 41.4928 62.2356C42.2615 62.2356 42.8871 62.8612 42.8871 63.6299C42.8871 64.0031 42.7416 64.3526 42.4791 64.6163L36.561 70.5344ZM55.8403 58.0775L42.4605 71.4573C41.5562 72.3616 40.0139 72.3865 39.0611 71.5531L44.2392 66.375C44.9705 65.6424 45.3748 64.6673 45.3748 63.6299C45.3748 61.5353 43.7056 59.835 41.6296 59.7616C41.5575 57.7317 39.9281 56.1023 37.8981 56.0301C37.826 54.0002 36.1966 52.3708 34.1667 52.2986C34.0933 50.2227 32.3917 48.5535 30.2983 48.5535C29.261 48.5535 28.2858 48.9577 27.5532 49.6903L22.9859 54.2577L18.0106 49.2824V46.5808L34.1803 30.411L35.7886 32.0193C36.0212 32.2531 36.3384 32.3837 36.668 32.3837H41.1284L42.3684 33.6238L33.2263 42.6951C32.9912 42.9289 32.8581 43.2486 32.8594 43.5807C32.8606 43.9128 32.9937 44.2312 33.23 44.4638C36.5001 47.6853 41.8037 47.6654 45.0489 44.4178L45.3748 44.0931L55.8403 54.5587C56.3105 55.0288 56.5692 55.6532 56.5692 56.3187C56.5692 56.9841 56.3105 57.6073 55.8403 58.0775Z" fill="#76CD22"/>
    <path d="M77.3498 36.9946L75.5911 35.2358L57.7919 53.035C57.7247 52.9591 57.6713 52.8733 57.5991 52.7999L47.1335 42.3343L48.7418 40.7261L46.983 38.9673L43.2901 42.6602C41.3112 44.6379 38.2476 44.9116 35.9677 43.4799L45.0066 34.5119C45.0078 34.5107 45.0078 34.5094 45.0091 34.5082L68.6418 10.8755L66.883 9.1167L44.1309 31.8688L42.5227 30.2605C42.2901 30.0267 41.9729 29.8961 41.6433 29.8961H37.1829L35.0597 27.7729L17.6461 10.3593L15.8874 12.1181L27.4463 23.6769L11.5377 39.5855L2.68165 31.467L1 33.3017L15.5229 46.6131V49.7973C15.5229 50.1269 15.6535 50.4441 15.8874 50.6767L21.2669 56.0562C20.7756 56.7192 20.4982 57.5128 20.4982 58.3536C20.4982 60.4482 22.1674 62.1485 24.2434 62.2219C24.3155 64.2518 25.945 65.8812 27.9749 65.9534C28.047 67.9833 29.6764 69.6127 31.7064 69.6849C31.7797 71.7608 33.4813 73.43 35.5747 73.43C36.1033 73.43 36.6157 73.3218 37.0884 73.1216L37.1829 73.2161C38.122 74.1564 39.3721 74.6739 40.7017 74.6739C42.0314 74.6739 43.2802 74.1564 44.2193 73.2161L57.5991 59.8362C58.5394 58.8959 59.0569 57.6471 59.0569 56.3187C59.0569 56.0003 59.0233 55.6868 58.9648 55.3796L77.3498 36.9946ZM13.3736 41.2684L29.205 25.4357L32.4216 28.6522L16.7294 44.3444L13.3736 41.2684ZM25.3666 59.3399C25.1029 59.6024 24.7534 59.7479 24.3802 59.7479C23.6115 59.7479 22.9859 59.1223 22.9859 58.3536C22.9859 57.9804 23.1314 57.6309 23.3939 57.3672L29.312 51.4491C29.5757 51.1867 29.9252 51.0411 30.2983 51.0411C31.067 51.0411 31.6927 51.6668 31.6927 52.4355C31.6927 52.8086 31.5471 53.1581 31.2847 53.4218L25.3666 59.3399ZM29.0981 63.0714C28.8344 63.3339 28.4848 63.4794 28.1117 63.4794C27.343 63.4794 26.7174 62.8538 26.7174 62.0851C26.7174 61.7119 26.8629 61.3624 27.1253 61.0987L33.0435 55.1806C33.3072 54.9181 33.6567 54.7726 34.0298 54.7726C34.7985 54.7726 35.4242 55.3983 35.4242 56.1669C35.4242 56.5401 35.2786 56.8896 35.0162 57.1533L29.0981 63.0714ZM32.8295 66.8029C32.5658 67.0654 32.2163 67.2109 31.8432 67.2109C31.0745 67.2109 30.4489 66.5852 30.4489 65.8166C30.4489 65.4434 30.5944 65.0939 30.8568 64.8302L36.775 58.9121C37.0386 58.6496 37.3882 58.5041 37.7613 58.5041C38.53 58.5041 39.1556 59.1297 39.1556 59.8984C39.1556 60.2716 39.0101 60.6211 38.7477 60.8848L32.8295 66.8029ZM36.561 70.5344C36.2973 70.7968 35.9478 70.9424 35.5747 70.9424C34.806 70.9424 34.1803 70.3167 34.1803 69.548C34.1803 69.1749 34.3259 68.8254 34.5883 68.5617L40.5064 62.6436C40.7701 62.3811 41.1196 62.2356 41.4928 62.2356C42.2615 62.2356 42.8871 62.8612 42.8871 63.6299C42.8871 64.0031 42.7416 64.3526 42.4791 64.6163L36.561 70.5344ZM55.8403 58.0775L42.4605 71.4573C41.5562 72.3616 40.0139 72.3865 39.0611 71.5531L44.2392 66.375C44.9705 65.6424 45.3748 64.6673 45.3748 63.6299C45.3748 61.5353 43.7056 59.835 41.6296 59.7616C41.5575 57.7317 39.9281 56.1023 37.8981 56.0301C37.826 54.0002 36.1966 52.3708 34.1667 52.2986C34.0933 50.2227 32.3917 48.5535 30.2983 48.5535C29.261 48.5535 28.2858 48.9577 27.5532 49.6903L22.9859 54.2577L18.0106 49.2824V46.5808L34.1803 30.411L35.7886 32.0193C36.0212 32.2531 36.3384 32.3837 36.668 32.3837H41.1284L42.3684 33.6238L33.2263 42.6951C32.9912 42.9289 32.8581 43.2486 32.8594 43.5807C32.8606 43.9128 32.9937 44.2312 33.23 44.4638C36.5001 47.6853 41.8037 47.6654 45.0489 44.4178L45.3748 44.0931L55.8403 54.5587C56.3105 55.0288 56.5692 55.6532 56.5692 56.3187C56.5692 56.9841 56.3105 57.6073 55.8403 58.0775Z" fill="#F56960"/>
    <path d="M77.3498 36.9946L75.5911 35.2358L57.7919 53.035C57.7247 52.9591 57.6713 52.8733 57.5991 52.7999L47.1335 42.3343L48.7418 40.7261L46.983 38.9673L43.2901 42.6602C41.3112 44.6379 38.2476 44.9116 35.9677 43.4799L45.0066 34.5119C45.0078 34.5107 45.0078 34.5094 45.0091 34.5082L68.6418 10.8755L66.883 9.1167L44.1309 31.8688L42.5227 30.2605C42.2901 30.0267 41.9729 29.8961 41.6433 29.8961H37.1829L35.0597 27.7729L17.6461 10.3593L15.8874 12.1181L27.4463 23.6769L11.5377 39.5855L2.68165 31.467L1 33.3017L15.5229 46.6131V49.7973C15.5229 50.1269 15.6535 50.4441 15.8874 50.6767L21.2669 56.0562C20.7756 56.7192 20.4982 57.5128 20.4982 58.3536C20.4982 60.4482 22.1674 62.1485 24.2434 62.2219C24.3155 64.2518 25.945 65.8812 27.9749 65.9534C28.047 67.9833 29.6764 69.6127 31.7064 69.6849C31.7797 71.7608 33.4813 73.43 35.5747 73.43C36.1033 73.43 36.6157 73.3218 37.0884 73.1216L37.1829 73.2161C38.122 74.1564 39.3721 74.6739 40.7017 74.6739C42.0314 74.6739 43.2802 74.1564 44.2193 73.2161L57.5991 59.8362C58.5394 58.8959 59.0569 57.6471 59.0569 56.3187C59.0569 56.0003 59.0233 55.6868 58.9648 55.3796L77.3498 36.9946ZM13.3736 41.2684L29.205 25.4357L32.4216 28.6522L16.7294 44.3444L13.3736 41.2684ZM25.3666 59.3399C25.1029 59.6024 24.7534 59.7479 24.3802 59.7479C23.6115 59.7479 22.9859 59.1223 22.9859 58.3536C22.9859 57.9804 23.1314 57.6309 23.3939 57.3672L29.312 51.4491C29.5757 51.1867 29.9252 51.0411 30.2983 51.0411C31.067 51.0411 31.6927 51.6668 31.6927 52.4355C31.6927 52.8086 31.5471 53.1581 31.2847 53.4218L25.3666 59.3399ZM29.0981 63.0714C28.8344 63.3339 28.4848 63.4794 28.1117 63.4794C27.343 63.4794 26.7174 62.8538 26.7174 62.0851C26.7174 61.7119 26.8629 61.3624 27.1253 61.0987L33.0435 55.1806C33.3072 54.9181 33.6567 54.7726 34.0298 54.7726C34.7985 54.7726 35.4242 55.3983 35.4242 56.1669C35.4242 56.5401 35.2786 56.8896 35.0162 57.1533L29.0981 63.0714ZM32.8295 66.8029C32.5658 67.0654 32.2163 67.2109 31.8432 67.2109C31.0745 67.2109 30.4489 66.5852 30.4489 65.8166C30.4489 65.4434 30.5944 65.0939 30.8568 64.8302L36.775 58.9121C37.0386 58.6496 37.3882 58.5041 37.7613 58.5041C38.53 58.5041 39.1556 59.1297 39.1556 59.8984C39.1556 60.2716 39.0101 60.6211 38.7477 60.8848L32.8295 66.8029ZM36.561 70.5344C36.2973 70.7968 35.9478 70.9424 35.5747 70.9424C34.806 70.9424 34.1803 70.3167 34.1803 69.548C34.1803 69.1749 34.3259 68.8254 34.5883 68.5617L40.5064 62.6436C40.7701 62.3811 41.1196 62.2356 41.4928 62.2356C42.2615 62.2356 42.8871 62.8612 42.8871 63.6299C42.8871 64.0031 42.7416 64.3526 42.4791 64.6163L36.561 70.5344ZM55.8403 58.0775L42.4605 71.4573C41.5562 72.3616 40.0139 72.3865 39.0611 71.5531L44.2392 66.375C44.9705 65.6424 45.3748 64.6673 45.3748 63.6299C45.3748 61.5353 43.7056 59.835 41.6296 59.7616C41.5575 57.7317 39.9281 56.1023 37.8981 56.0301C37.826 54.0002 36.1966 52.3708 34.1667 52.2986C34.0933 50.2227 32.3917 48.5535 30.2983 48.5535C29.261 48.5535 28.2858 48.9577 27.5532 49.6903L22.9859 54.2577L18.0106 49.2824V46.5808L34.1803 30.411L35.7886 32.0193C36.0212 32.2531 36.3384 32.3837 36.668 32.3837H41.1284L42.3684 33.6238L33.2263 42.6951C32.9912 42.9289 32.8581 43.2486 32.8594 43.5807C32.8606 43.9128 32.9937 44.2312 33.23 44.4638C36.5001 47.6853 41.8037 47.6654 45.0489 44.4178L45.3748 44.0931L55.8403 54.5587C56.3105 55.0288 56.5692 55.6532 56.5692 56.3187C56.5692 56.9841 56.3105 57.6073 55.8403 58.0775Z" fill="#1B3B6F"/>
</svg>
