<svg width="80" height="80" viewBox="0 0 80 80" fill="none" xmlns="http://www.w3.org/2000/svg">
    <g clip-path="url(#clip0)">
        <path d="M62.6667 34.6667H57.3333V6.66667C57.3333 2.99067 54.3427 0 50.6667 0H13.3333C9.65733 0 6.66667 2.99067 6.66667 6.66667V34.6667H1.33333C0.596 34.6667 0 35.264 0 36C0 41.1467 4.188 45.3333 9.33333 45.3333H54.6667C59.812 45.3333 64 41.1467 64 36C64 35.264 63.404 34.6667 62.6667 34.6667ZM9.33333 6.66667C9.33333 4.46133 11.128 2.66667 13.3333 2.66667H50.6667C52.872 2.66667 54.6667 4.46133 54.6667 6.66667V34.6667H9.33333V6.66667ZM54.6667 42.6667H9.33333C6.11333 42.6667 3.42 40.372 2.80133 37.3333H8H56H61.1987C60.5787 40.372 57.8867 42.6667 54.6667 42.6667Z" fill="#76CD22"/>
        <path d="M62.6667 34.6667H57.3333V6.66667C57.3333 2.99067 54.3427 0 50.6667 0H13.3333C9.65733 0 6.66667 2.99067 6.66667 6.66667V34.6667H1.33333C0.596 34.6667 0 35.264 0 36C0 41.1467 4.188 45.3333 9.33333 45.3333H54.6667C59.812 45.3333 64 41.1467 64 36C64 35.264 63.404 34.6667 62.6667 34.6667ZM9.33333 6.66667C9.33333 4.46133 11.128 2.66667 13.3333 2.66667H50.6667C52.872 2.66667 54.6667 4.46133 54.6667 6.66667V34.6667H9.33333V6.66667ZM54.6667 42.6667H9.33333C6.11333 42.6667 3.42 40.372 2.80133 37.3333H8H56H61.1987C60.5787 40.372 57.8867 42.6667 54.6667 42.6667Z" fill="#F56960"/>
        <path d="M62.6667 34.6667H57.3333V6.66667C57.3333 2.99067 54.3427 0 50.6667 0H13.3333C9.65733 0 6.66667 2.99067 6.66667 6.66667V34.6667H1.33333C0.596 34.6667 0 35.264 0 36C0 41.1467 4.188 45.3333 9.33333 45.3333H54.6667C59.812 45.3333 64 41.1467 64 36C64 35.264 63.404 34.6667 62.6667 34.6667ZM9.33333 6.66667C9.33333 4.46133 11.128 2.66667 13.3333 2.66667H50.6667C52.872 2.66667 54.6667 4.46133 54.6667 6.66667V34.6667H9.33333V6.66667ZM54.6667 42.6667H9.33333C6.11333 42.6667 3.42 40.372 2.80133 37.3333H8H56H61.1987C60.5787 40.372 57.8867 42.6667 54.6667 42.6667Z" fill="#1B3B6F"/>
        <path d="M50.6667 5.3335H13.3333C12.596 5.3335 12 5.93083 12 6.66683V30.6668C12 31.4028 12.596 32.0002 13.3333 32.0002H50.6667C51.404 32.0002 52 31.4028 52 30.6668V6.66683C52 5.93083 51.404 5.3335 50.6667 5.3335ZM49.3333 29.3335H14.6667V8.00016H49.3333V29.3335Z" fill="#76CD22"/>
        <path d="M50.6667 5.3335H13.3333C12.596 5.3335 12 5.93083 12 6.66683V30.6668C12 31.4028 12.596 32.0002 13.3333 32.0002H50.6667C51.404 32.0002 52 31.4028 52 30.6668V6.66683C52 5.93083 51.404 5.3335 50.6667 5.3335ZM49.3333 29.3335H14.6667V8.00016H49.3333V29.3335Z" fill="#F56960"/>
        <path d="M50.6667 5.3335H13.3333C12.596 5.3335 12 5.93083 12 6.66683V30.6668C12 31.4028 12.596 32.0002 13.3333 32.0002H50.6667C51.404 32.0002 52 31.4028 52 30.6668V6.66683C52 5.93083 51.404 5.3335 50.6667 5.3335ZM49.3333 29.3335H14.6667V8.00016H49.3333V29.3335Z" fill="#1B3B6F"/>
        <path d="M30.7507 15.5318C30.9413 15.0278 31.4293 14.6665 32 14.6665C32.736 14.6665 33.3333 15.2652 33.3333 15.9998H36C36 14.2638 34.8813 12.7972 33.3333 12.2452V10.6665H30.6667V12.2452C29.1187 12.7972 28 14.2638 28 15.9998C28 16.3532 28.14 16.6932 28.3907 16.9425L33.2493 21.8012C33.0587 22.3052 32.5707 22.6665 32 22.6665C31.264 22.6665 30.6667 22.0678 30.6667 21.3332H28C28 23.0692 29.1187 24.5358 30.6667 25.0878V26.6665H33.3333V25.0878C34.8813 24.5358 36 23.0692 36 21.3332C36 20.9798 35.86 20.6398 35.6093 20.3905L30.7507 15.5318Z" fill="#76CD22"/>
        <path d="M30.7507 15.5318C30.9413 15.0278 31.4293 14.6665 32 14.6665C32.736 14.6665 33.3333 15.2652 33.3333 15.9998H36C36 14.2638 34.8813 12.7972 33.3333 12.2452V10.6665H30.6667V12.2452C29.1187 12.7972 28 14.2638 28 15.9998C28 16.3532 28.14 16.6932 28.3907 16.9425L33.2493 21.8012C33.0587 22.3052 32.5707 22.6665 32 22.6665C31.264 22.6665 30.6667 22.0678 30.6667 21.3332H28C28 23.0692 29.1187 24.5358 30.6667 25.0878V26.6665H33.3333V25.0878C34.8813 24.5358 36 23.0692 36 21.3332C36 20.9798 35.86 20.6398 35.6093 20.3905L30.7507 15.5318Z" fill="#F56960"/>
        <path d="M30.7507 15.5318C30.9413 15.0278 31.4293 14.6665 32 14.6665C32.736 14.6665 33.3333 15.2652 33.3333 15.9998H36C36 14.2638 34.8813 12.7972 33.3333 12.2452V10.6665H30.6667V12.2452C29.1187 12.7972 28 14.2638 28 15.9998C28 16.3532 28.14 16.6932 28.3907 16.9425L33.2493 21.8012C33.0587 22.3052 32.5707 22.6665 32 22.6665C31.264 22.6665 30.6667 22.0678 30.6667 21.3332H28C28 23.0692 29.1187 24.5358 30.6667 25.0878V26.6665H33.3333V25.0878C34.8813 24.5358 36 23.0692 36 21.3332C36 20.9798 35.86 20.6398 35.6093 20.3905L30.7507 15.5318Z" fill="#1B3B6F"/>
        <path d="M70.2747 61.5562C72.148 59.8482 73.3333 57.3962 73.3333 54.6668C73.3333 49.5202 69.1453 45.3335 64 45.3335C58.8547 45.3335 54.6667 49.5202 54.6667 54.6668C54.6667 57.3962 55.852 59.8482 57.7253 61.5562C52.1933 62.6228 48 67.4948 48 73.3335V78.6668C48 79.4028 48.596 80.0002 49.3333 80.0002H78.6667C79.404 80.0002 80 79.4028 80 78.6668V73.3335C80 67.4948 75.8067 62.6228 70.2747 61.5562ZM57.3333 54.6668C57.3333 50.9908 60.324 48.0002 64 48.0002C67.676 48.0002 70.6667 50.9908 70.6667 54.6668C70.6667 58.3428 67.676 61.3335 64 61.3335C60.324 61.3335 57.3333 58.3428 57.3333 54.6668ZM77.3333 77.3335H50.6667V73.3335C50.6667 68.1868 54.8547 64.0002 60 64.0002H68C73.1453 64.0002 77.3333 68.1868 77.3333 73.3335V77.3335Z" fill="#76CD22"/>
        <path d="M70.2747 61.5562C72.148 59.8482 73.3333 57.3962 73.3333 54.6668C73.3333 49.5202 69.1453 45.3335 64 45.3335C58.8547 45.3335 54.6667 49.5202 54.6667 54.6668C54.6667 57.3962 55.852 59.8482 57.7253 61.5562C52.1933 62.6228 48 67.4948 48 73.3335V78.6668C48 79.4028 48.596 80.0002 49.3333 80.0002H78.6667C79.404 80.0002 80 79.4028 80 78.6668V73.3335C80 67.4948 75.8067 62.6228 70.2747 61.5562ZM57.3333 54.6668C57.3333 50.9908 60.324 48.0002 64 48.0002C67.676 48.0002 70.6667 50.9908 70.6667 54.6668C70.6667 58.3428 67.676 61.3335 64 61.3335C60.324 61.3335 57.3333 58.3428 57.3333 54.6668ZM77.3333 77.3335H50.6667V73.3335C50.6667 68.1868 54.8547 64.0002 60 64.0002H68C73.1453 64.0002 77.3333 68.1868 77.3333 73.3335V77.3335Z" fill="#F56960"/>
        <path d="M70.2747 61.5562C72.148 59.8482 73.3333 57.3962 73.3333 54.6668C73.3333 49.5202 69.1453 45.3335 64 45.3335C58.8547 45.3335 54.6667 49.5202 54.6667 54.6668C54.6667 57.3962 55.852 59.8482 57.7253 61.5562C52.1933 62.6228 48 67.4948 48 73.3335V78.6668C48 79.4028 48.596 80.0002 49.3333 80.0002H78.6667C79.404 80.0002 80 79.4028 80 78.6668V73.3335C80 67.4948 75.8067 62.6228 70.2747 61.5562ZM57.3333 54.6668C57.3333 50.9908 60.324 48.0002 64 48.0002C67.676 48.0002 70.6667 50.9908 70.6667 54.6668C70.6667 58.3428 67.676 61.3335 64 61.3335C60.324 61.3335 57.3333 58.3428 57.3333 54.6668ZM77.3333 77.3335H50.6667V73.3335C50.6667 68.1868 54.8547 64.0002 60 64.0002H68C73.1453 64.0002 77.3333 68.1868 77.3333 73.3335V77.3335Z" fill="#1B3B6F"/>
        <path d="M62.6667 17.3335H60V20.0002H62.6667V17.3335Z" fill="#76CD22"/>
        <path d="M62.6667 17.3335H60V20.0002H62.6667V17.3335Z" fill="#F56960"/>
        <path d="M62.6667 17.3335H60V20.0002H62.6667V17.3335Z" fill="#1B3B6F"/>
        <path d="M68.0002 17.3335H65.3335V20.0002H68.0002V17.3335Z" fill="#76CD22"/>
        <path d="M68.0002 17.3335H65.3335V20.0002H68.0002V17.3335Z" fill="#F56960"/>
        <path d="M68.0002 17.3335H65.3335V20.0002H68.0002V17.3335Z" fill="#1B3B6F"/>
        <path d="M73.3332 17.3335H70.6665V20.0002H73.3332V17.3335Z" fill="#76CD22"/>
        <path d="M73.3332 17.3335H70.6665V20.0002H73.3332V17.3335Z" fill="#F56960"/>
        <path d="M73.3332 17.3335H70.6665V20.0002H73.3332V17.3335Z" fill="#1B3B6F"/>
        <path d="M73.3332 22.6665H70.6665V25.3332H73.3332V22.6665Z" fill="#76CD22"/>
        <path d="M73.3332 22.6665H70.6665V25.3332H73.3332V22.6665Z" fill="#F56960"/>
        <path d="M73.3332 22.6665H70.6665V25.3332H73.3332V22.6665Z" fill="#1B3B6F"/>
        <path d="M73.3332 28H70.6665V30.6667H73.3332V28Z" fill="#76CD22"/>
        <path d="M73.3332 28H70.6665V30.6667H73.3332V28Z" fill="#F56960"/>
        <path d="M73.3332 28H70.6665V30.6667H73.3332V28Z" fill="#1B3B6F"/>
        <path d="M73.3332 33.3335H70.6665V36.0002H73.3332V33.3335Z" fill="#76CD22"/>
        <path d="M73.3332 33.3335H70.6665V36.0002H73.3332V33.3335Z" fill="#F56960"/>
        <path d="M73.3332 33.3335H70.6665V36.0002H73.3332V33.3335Z" fill="#1B3B6F"/>
        <path d="M73.3332 38.6665H70.6665V41.3332H73.3332V38.6665Z" fill="#76CD22"/>
        <path d="M73.3332 38.6665H70.6665V41.3332H73.3332V38.6665Z" fill="#F56960"/>
        <path d="M73.3332 38.6665H70.6665V41.3332H73.3332V38.6665Z" fill="#1B3B6F"/>
        <path d="M33.3332 48H30.6665V50.6667H33.3332V48Z" fill="#76CD22"/>
        <path d="M33.3332 48H30.6665V50.6667H33.3332V48Z" fill="#F56960"/>
        <path d="M33.3332 48H30.6665V50.6667H33.3332V48Z" fill="#1B3B6F"/>
        <path d="M33.3332 53.3335H30.6665V56.0002H33.3332V53.3335Z" fill="#76CD22"/>
        <path d="M33.3332 53.3335H30.6665V56.0002H33.3332V53.3335Z" fill="#F56960"/>
        <path d="M33.3332 53.3335H30.6665V56.0002H33.3332V53.3335Z" fill="#1B3B6F"/>
        <path d="M33.3332 58.6665H30.6665V61.3332H33.3332V58.6665Z" fill="#76CD22"/>
        <path d="M33.3332 58.6665H30.6665V61.3332H33.3332V58.6665Z" fill="#F56960"/>
        <path d="M33.3332 58.6665H30.6665V61.3332H33.3332V58.6665Z" fill="#1B3B6F"/>
        <path d="M33.3332 64H30.6665V66.6667H33.3332V64Z" fill="#76CD22"/>
        <path d="M33.3332 64H30.6665V66.6667H33.3332V64Z" fill="#F56960"/>
        <path d="M33.3332 64H30.6665V66.6667H33.3332V64Z" fill="#1B3B6F"/>
        <path d="M33.3332 69.3335H30.6665V72.0002H33.3332V69.3335Z" fill="#76CD22"/>
        <path d="M33.3332 69.3335H30.6665V72.0002H33.3332V69.3335Z" fill="#F56960"/>
        <path d="M33.3332 69.3335H30.6665V72.0002H33.3332V69.3335Z" fill="#1B3B6F"/>
        <path d="M38.6667 69.3335H36V72.0002H38.6667V69.3335Z" fill="#76CD22"/>
        <path d="M38.6667 69.3335H36V72.0002H38.6667V69.3335Z" fill="#F56960"/>
        <path d="M38.6667 69.3335H36V72.0002H38.6667V69.3335Z" fill="#1B3B6F"/>
        <path d="M44.0002 69.3335H41.3335V72.0002H44.0002V69.3335Z" fill="#76CD22"/>
        <path d="M44.0002 69.3335H41.3335V72.0002H44.0002V69.3335Z" fill="#F56960"/>
        <path d="M44.0002 69.3335H41.3335V72.0002H44.0002V69.3335Z" fill="#1B3B6F"/>
    </g>
    <defs>
        <clipPath id="clip0">
            <rect width="80" height="80" fill="white"/>
        </clipPath>
    </defs>
</svg>
