<svg width="80" height="80" viewBox="0 0 80 80" fill="none" xmlns="http://www.w3.org/2000/svg">
    <path d="M16.25 71.25H16.0913C15.535 69.0962 13.575 67.5 11.25 67.5C8.87875 67.5 6.88875 69.1588 6.3775 71.3775C4.15875 71.8888 2.5 73.8787 2.5 76.25V77.5C2.5 78.19 3.06 78.75 3.75 78.75H5V80H7.5V78.75H16.25V80H18.75V78.75H20C20.69 78.75 21.25 78.19 21.25 77.5V76.25C21.25 73.4925 19.0075 71.25 16.25 71.25ZM5 76.25C5 74.8713 6.12125 73.75 7.5 73.75C8.19 73.75 8.75 73.19 8.75 72.5C8.75 71.1212 9.87125 70 11.25 70C12.6287 70 13.75 71.1212 13.75 72.5C13.75 73.19 14.31 73.75 15 73.75H16.25C17.6287 73.75 18.75 74.8713 18.75 76.25H5Z" fill="#76CD22"/>
    <path d="M16.25 71.25H16.0913C15.535 69.0962 13.575 67.5 11.25 67.5C8.87875 67.5 6.88875 69.1588 6.3775 71.3775C4.15875 71.8888 2.5 73.8787 2.5 76.25V77.5C2.5 78.19 3.06 78.75 3.75 78.75H5V80H7.5V78.75H16.25V80H18.75V78.75H20C20.69 78.75 21.25 78.19 21.25 77.5V76.25C21.25 73.4925 19.0075 71.25 16.25 71.25ZM5 76.25C5 74.8713 6.12125 73.75 7.5 73.75C8.19 73.75 8.75 73.19 8.75 72.5C8.75 71.1212 9.87125 70 11.25 70C12.6287 70 13.75 71.1212 13.75 72.5C13.75 73.19 14.31 73.75 15 73.75H16.25C17.6287 73.75 18.75 74.8713 18.75 76.25H5Z" fill="#F56960"/>
    <path d="M16.25 71.25H16.0913C15.535 69.0962 13.575 67.5 11.25 67.5C8.87875 67.5 6.88875 69.1588 6.3775 71.3775C4.15875 71.8888 2.5 73.8787 2.5 76.25V77.5C2.5 78.19 3.06 78.75 3.75 78.75H5V80H7.5V78.75H16.25V80H18.75V78.75H20C20.69 78.75 21.25 78.19 21.25 77.5V76.25C21.25 73.4925 19.0075 71.25 16.25 71.25ZM5 76.25C5 74.8713 6.12125 73.75 7.5 73.75C8.19 73.75 8.75 73.19 8.75 72.5C8.75 71.1212 9.87125 70 11.25 70C12.6287 70 13.75 71.1212 13.75 72.5C13.75 73.19 14.31 73.75 15 73.75H16.25C17.6287 73.75 18.75 74.8713 18.75 76.25H5Z" fill="#1B3B6F"/>
    <path d="M45 71.25H44.8413C44.285 69.0962 42.325 67.5 40 67.5C37.6287 67.5 35.6387 69.1588 35.1275 71.3775C32.9087 71.8888 31.25 73.8787 31.25 76.25V77.5C31.25 78.19 31.81 78.75 32.5 78.75H33.75V80H36.25V78.75H45V80H47.5V78.75H48.75C49.44 78.75 50 78.19 50 77.5V76.25C50 73.4925 47.7575 71.25 45 71.25ZM33.75 76.25C33.75 74.8713 34.8712 73.75 36.25 73.75C36.94 73.75 37.5 73.19 37.5 72.5C37.5 71.1212 38.6213 70 40 70C41.3787 70 42.5 71.1212 42.5 72.5C42.5 73.19 43.06 73.75 43.75 73.75H45C46.3787 73.75 47.5 74.8713 47.5 76.25H33.75Z" fill="#76CD22"/>
    <path d="M45 71.25H44.8413C44.285 69.0962 42.325 67.5 40 67.5C37.6287 67.5 35.6387 69.1588 35.1275 71.3775C32.9087 71.8888 31.25 73.8787 31.25 76.25V77.5C31.25 78.19 31.81 78.75 32.5 78.75H33.75V80H36.25V78.75H45V80H47.5V78.75H48.75C49.44 78.75 50 78.19 50 77.5V76.25C50 73.4925 47.7575 71.25 45 71.25ZM33.75 76.25C33.75 74.8713 34.8712 73.75 36.25 73.75C36.94 73.75 37.5 73.19 37.5 72.5C37.5 71.1212 38.6213 70 40 70C41.3787 70 42.5 71.1212 42.5 72.5C42.5 73.19 43.06 73.75 43.75 73.75H45C46.3787 73.75 47.5 74.8713 47.5 76.25H33.75Z" fill="#F56960"/>
    <path d="M45 71.25H44.8413C44.285 69.0962 42.325 67.5 40 67.5C37.6287 67.5 35.6387 69.1588 35.1275 71.3775C32.9087 71.8888 31.25 73.8787 31.25 76.25V77.5C31.25 78.19 31.81 78.75 32.5 78.75H33.75V80H36.25V78.75H45V80H47.5V78.75H48.75C49.44 78.75 50 78.19 50 77.5V76.25C50 73.4925 47.7575 71.25 45 71.25ZM33.75 76.25C33.75 74.8713 34.8712 73.75 36.25 73.75C36.94 73.75 37.5 73.19 37.5 72.5C37.5 71.1212 38.6213 70 40 70C41.3787 70 42.5 71.1212 42.5 72.5C42.5 73.19 43.06 73.75 43.75 73.75H45C46.3787 73.75 47.5 74.8713 47.5 76.25H33.75Z" fill="#1B3B6F"/>
    <path d="M73.75 71.25H73.5913C73.035 69.0962 71.075 67.5 68.75 67.5C66.3787 67.5 64.3888 69.1588 63.8775 71.3775C61.6588 71.8888 60 73.8787 60 76.25V77.5C60 78.19 60.56 78.75 61.25 78.75H62.5V80H65V78.75H73.75V80H76.25V78.75H77.5C78.19 78.75 78.75 78.19 78.75 77.5V76.25C78.75 73.4925 76.5075 71.25 73.75 71.25ZM62.5 76.25C62.5 74.8713 63.6212 73.75 65 73.75C65.69 73.75 66.25 73.19 66.25 72.5C66.25 71.1212 67.3713 70 68.75 70C70.1287 70 71.25 71.1212 71.25 72.5C71.25 73.19 71.81 73.75 72.5 73.75H73.75C75.1287 73.75 76.25 74.8713 76.25 76.25H62.5Z" fill="#76CD22"/>
    <path d="M73.75 71.25H73.5913C73.035 69.0962 71.075 67.5 68.75 67.5C66.3787 67.5 64.3888 69.1588 63.8775 71.3775C61.6588 71.8888 60 73.8787 60 76.25V77.5C60 78.19 60.56 78.75 61.25 78.75H62.5V80H65V78.75H73.75V80H76.25V78.75H77.5C78.19 78.75 78.75 78.19 78.75 77.5V76.25C78.75 73.4925 76.5075 71.25 73.75 71.25ZM62.5 76.25C62.5 74.8713 63.6212 73.75 65 73.75C65.69 73.75 66.25 73.19 66.25 72.5C66.25 71.1212 67.3713 70 68.75 70C70.1287 70 71.25 71.1212 71.25 72.5C71.25 73.19 71.81 73.75 72.5 73.75H73.75C75.1287 73.75 76.25 74.8713 76.25 76.25H62.5Z" fill="#F56960"/>
    <path d="M73.75 71.25H73.5913C73.035 69.0962 71.075 67.5 68.75 67.5C66.3787 67.5 64.3888 69.1588 63.8775 71.3775C61.6588 71.8888 60 73.8787 60 76.25V77.5C60 78.19 60.56 78.75 61.25 78.75H62.5V80H65V78.75H73.75V80H76.25V78.75H77.5C78.19 78.75 78.75 78.19 78.75 77.5V76.25C78.75 73.4925 76.5075 71.25 73.75 71.25ZM62.5 76.25C62.5 74.8713 63.6212 73.75 65 73.75C65.69 73.75 66.25 73.19 66.25 72.5C66.25 71.1212 67.3713 70 68.75 70C70.1287 70 71.25 71.1212 71.25 72.5C71.25 73.19 71.81 73.75 72.5 73.75H73.75C75.1287 73.75 76.25 74.8713 76.25 76.25H62.5Z" fill="#1B3B6F"/>
    <path d="M15 20H12.5V22.5H15V20Z" fill="#76CD22"/>
    <path d="M15 20H12.5V22.5H15V20Z" fill="#F56960"/>
    <path d="M15 20H12.5V22.5H15V20Z" fill="#1B3B6F"/>
    <path d="M20 20H17.5V22.5H20V20Z" fill="#76CD22"/>
    <path d="M20 20H17.5V22.5H20V20Z" fill="#F56960"/>
    <path d="M20 20H17.5V22.5H20V20Z" fill="#1B3B6F"/>
    <path d="M25 20H22.5V22.5H25V20Z" fill="#76CD22"/>
    <path d="M25 20H22.5V22.5H25V20Z" fill="#F56960"/>
    <path d="M25 20H22.5V22.5H25V20Z" fill="#1B3B6F"/>
    <path d="M15 25H12.5V27.5H15V25Z" fill="#76CD22"/>
    <path d="M15 25H12.5V27.5H15V25Z" fill="#F56960"/>
    <path d="M15 25H12.5V27.5H15V25Z" fill="#1B3B6F"/>
    <path d="M20 25H17.5V27.5H20V25Z" fill="#76CD22"/>
    <path d="M20 25H17.5V27.5H20V25Z" fill="#F56960"/>
    <path d="M20 25H17.5V27.5H20V25Z" fill="#1B3B6F"/>
    <path d="M25 25H22.5V27.5H25V25Z" fill="#76CD22"/>
    <path d="M25 25H22.5V27.5H25V25Z" fill="#F56960"/>
    <path d="M25 25H22.5V27.5H25V25Z" fill="#1B3B6F"/>
    <path d="M15 30H12.5V32.5H15V30Z" fill="#76CD22"/>
    <path d="M15 30H12.5V32.5H15V30Z" fill="#F56960"/>
    <path d="M15 30H12.5V32.5H15V30Z" fill="#1B3B6F"/>
    <path d="M20 30H17.5V32.5H20V30Z" fill="#76CD22"/>
    <path d="M20 30H17.5V32.5H20V30Z" fill="#F56960"/>
    <path d="M20 30H17.5V32.5H20V30Z" fill="#1B3B6F"/>
    <path d="M25 30H22.5V32.5H25V30Z" fill="#76CD22"/>
    <path d="M25 30H22.5V32.5H25V30Z" fill="#F56960"/>
    <path d="M25 30H22.5V32.5H25V30Z" fill="#1B3B6F"/>
    <path d="M15 35H12.5V37.5H15V35Z" fill="#76CD22"/>
    <path d="M15 35H12.5V37.5H15V35Z" fill="#F56960"/>
    <path d="M15 35H12.5V37.5H15V35Z" fill="#1B3B6F"/>
    <path d="M20 35H17.5V37.5H20V35Z" fill="#76CD22"/>
    <path d="M20 35H17.5V37.5H20V35Z" fill="#F56960"/>
    <path d="M20 35H17.5V37.5H20V35Z" fill="#1B3B6F"/>
    <path d="M25 35H22.5V37.5H25V35Z" fill="#76CD22"/>
    <path d="M25 35H22.5V37.5H25V35Z" fill="#F56960"/>
    <path d="M25 35H22.5V37.5H25V35Z" fill="#1B3B6F"/>
    <path d="M15 40H12.5V42.5H15V40Z" fill="#76CD22"/>
    <path d="M15 40H12.5V42.5H15V40Z" fill="#F56960"/>
    <path d="M15 40H12.5V42.5H15V40Z" fill="#1B3B6F"/>
    <path d="M20 40H17.5V42.5H20V40Z" fill="#76CD22"/>
    <path d="M20 40H17.5V42.5H20V40Z" fill="#F56960"/>
    <path d="M20 40H17.5V42.5H20V40Z" fill="#1B3B6F"/>
    <path d="M25 40H22.5V42.5H25V40Z" fill="#76CD22"/>
    <path d="M25 40H22.5V42.5H25V40Z" fill="#F56960"/>
    <path d="M25 40H22.5V42.5H25V40Z" fill="#1B3B6F"/>
    <path d="M15 45H12.5V47.5H15V45Z" fill="#76CD22"/>
    <path d="M15 45H12.5V47.5H15V45Z" fill="#F56960"/>
    <path d="M15 45H12.5V47.5H15V45Z" fill="#1B3B6F"/>
    <path d="M20 45H17.5V47.5H20V45Z" fill="#76CD22"/>
    <path d="M20 45H17.5V47.5H20V45Z" fill="#F56960"/>
    <path d="M20 45H17.5V47.5H20V45Z" fill="#1B3B6F"/>
    <path d="M25 45H22.5V47.5H25V45Z" fill="#76CD22"/>
    <path d="M25 45H22.5V47.5H25V45Z" fill="#F56960"/>
    <path d="M25 45H22.5V47.5H25V45Z" fill="#1B3B6F"/>
    <path d="M15 50H12.5V52.5H15V50Z" fill="#76CD22"/>
    <path d="M15 50H12.5V52.5H15V50Z" fill="#F56960"/>
    <path d="M15 50H12.5V52.5H15V50Z" fill="#1B3B6F"/>
    <path d="M20 50H17.5V52.5H20V50Z" fill="#76CD22"/>
    <path d="M20 50H17.5V52.5H20V50Z" fill="#F56960"/>
    <path d="M20 50H17.5V52.5H20V50Z" fill="#1B3B6F"/>
    <path d="M35 25H32.5V27.5H35V25Z" fill="#76CD22"/>
    <path d="M35 25H32.5V27.5H35V25Z" fill="#F56960"/>
    <path d="M35 25H32.5V27.5H35V25Z" fill="#1B3B6F"/>
    <path d="M40 25H37.5V27.5H40V25Z" fill="#76CD22"/>
    <path d="M40 25H37.5V27.5H40V25Z" fill="#F56960"/>
    <path d="M40 25H37.5V27.5H40V25Z" fill="#1B3B6F"/>
    <path d="M35 30H32.5V32.5H35V30Z" fill="#76CD22"/>
    <path d="M35 30H32.5V32.5H35V30Z" fill="#F56960"/>
    <path d="M35 30H32.5V32.5H35V30Z" fill="#1B3B6F"/>
    <path d="M40 30H37.5V32.5H40V30Z" fill="#76CD22"/>
    <path d="M40 30H37.5V32.5H40V30Z" fill="#F56960"/>
    <path d="M40 30H37.5V32.5H40V30Z" fill="#1B3B6F"/>
    <path d="M35 35H32.5V37.5H35V35Z" fill="#76CD22"/>
    <path d="M35 35H32.5V37.5H35V35Z" fill="#F56960"/>
    <path d="M35 35H32.5V37.5H35V35Z" fill="#1B3B6F"/>
    <path d="M40 35H37.5V37.5H40V35Z" fill="#76CD22"/>
    <path d="M40 35H37.5V37.5H40V35Z" fill="#F56960"/>
    <path d="M40 35H37.5V37.5H40V35Z" fill="#1B3B6F"/>
    <path d="M35 40H32.5V42.5H35V40Z" fill="#76CD22"/>
    <path d="M35 40H32.5V42.5H35V40Z" fill="#F56960"/>
    <path d="M35 40H32.5V42.5H35V40Z" fill="#1B3B6F"/>
    <path d="M40 40H37.5V42.5H40V40Z" fill="#76CD22"/>
    <path d="M40 40H37.5V42.5H40V40Z" fill="#F56960"/>
    <path d="M40 40H37.5V42.5H40V40Z" fill="#1B3B6F"/>
    <path d="M35 45H32.5V47.5H35V45Z" fill="#76CD22"/>
    <path d="M35 45H32.5V47.5H35V45Z" fill="#F56960"/>
    <path d="M35 45H32.5V47.5H35V45Z" fill="#1B3B6F"/>
    <path d="M40 45H37.5V47.5H40V45Z" fill="#76CD22"/>
    <path d="M40 45H37.5V47.5H40V45Z" fill="#F56960"/>
    <path d="M40 45H37.5V47.5H40V45Z" fill="#1B3B6F"/>
    <path d="M35 50H32.5V52.5H35V50Z" fill="#76CD22"/>
    <path d="M35 50H32.5V52.5H35V50Z" fill="#F56960"/>
    <path d="M35 50H32.5V52.5H35V50Z" fill="#1B3B6F"/>
    <path d="M40 50H37.5V52.5H40V50Z" fill="#76CD22"/>
    <path d="M40 50H37.5V52.5H40V50Z" fill="#F56960"/>
    <path d="M40 50H37.5V52.5H40V50Z" fill="#1B3B6F"/>
    <path d="M35 55H32.5V57.5H35V55Z" fill="#76CD22"/>
    <path d="M35 55H32.5V57.5H35V55Z" fill="#F56960"/>
    <path d="M35 55H32.5V57.5H35V55Z" fill="#1B3B6F"/>
    <path d="M40 55H37.5V57.5H40V55Z" fill="#76CD22"/>
    <path d="M40 55H37.5V57.5H40V55Z" fill="#F56960"/>
    <path d="M40 55H37.5V57.5H40V55Z" fill="#1B3B6F"/>
    <path d="M50 36.25H47.5V38.75H50V36.25Z" fill="#76CD22"/>
    <path d="M50 36.25H47.5V38.75H50V36.25Z" fill="#F56960"/>
    <path d="M50 36.25H47.5V38.75H50V36.25Z" fill="#1B3B6F"/>
    <path d="M55 36.25H52.5V38.75H55V36.25Z" fill="#76CD22"/>
    <path d="M55 36.25H52.5V38.75H55V36.25Z" fill="#F56960"/>
    <path d="M55 36.25H52.5V38.75H55V36.25Z" fill="#1B3B6F"/>
    <path d="M50 41.25H47.5V43.75H50V41.25Z" fill="#76CD22"/>
    <path d="M50 41.25H47.5V43.75H50V41.25Z" fill="#F56960"/>
    <path d="M50 41.25H47.5V43.75H50V41.25Z" fill="#1B3B6F"/>
    <path d="M55 41.25H52.5V43.75H55V41.25Z" fill="#76CD22"/>
    <path d="M55 41.25H52.5V43.75H55V41.25Z" fill="#F56960"/>
    <path d="M55 41.25H52.5V43.75H55V41.25Z" fill="#1B3B6F"/>
    <path d="M50 46.25H47.5V48.75H50V46.25Z" fill="#76CD22"/>
    <path d="M50 46.25H47.5V48.75H50V46.25Z" fill="#F56960"/>
    <path d="M50 46.25H47.5V48.75H50V46.25Z" fill="#1B3B6F"/>
    <path d="M55 46.25H52.5V48.75H55V46.25Z" fill="#76CD22"/>
    <path d="M55 46.25H52.5V48.75H55V46.25Z" fill="#F56960"/>
    <path d="M55 46.25H52.5V48.75H55V46.25Z" fill="#1B3B6F"/>
    <path d="M50 51.25H47.5V53.75H50V51.25Z" fill="#76CD22"/>
    <path d="M50 51.25H47.5V53.75H50V51.25Z" fill="#F56960"/>
    <path d="M50 51.25H47.5V53.75H50V51.25Z" fill="#1B3B6F"/>
    <path d="M55 51.25H52.5V53.75H55V51.25Z" fill="#76CD22"/>
    <path d="M55 51.25H52.5V53.75H55V51.25Z" fill="#F56960"/>
    <path d="M55 51.25H52.5V53.75H55V51.25Z" fill="#1B3B6F"/>
    <path d="M50 56.25H47.5V58.75H50V56.25Z" fill="#76CD22"/>
    <path d="M50 56.25H47.5V58.75H50V56.25Z" fill="#F56960"/>
    <path d="M50 56.25H47.5V58.75H50V56.25Z" fill="#1B3B6F"/>
    <path d="M65 43.75H62.5V46.25H65V43.75Z" fill="#76CD22"/>
    <path d="M65 43.75H62.5V46.25H65V43.75Z" fill="#F56960"/>
    <path d="M65 43.75H62.5V46.25H65V43.75Z" fill="#1B3B6F"/>
    <path d="M65 48.75H62.5V51.25H65V48.75Z" fill="#76CD22"/>
    <path d="M65 48.75H62.5V51.25H65V48.75Z" fill="#F56960"/>
    <path d="M65 48.75H62.5V51.25H65V48.75Z" fill="#1B3B6F"/>
    <path d="M65 53.75H62.5V56.25H65V53.75Z" fill="#76CD22"/>
    <path d="M65 53.75H62.5V56.25H65V53.75Z" fill="#F56960"/>
    <path d="M65 53.75H62.5V56.25H65V53.75Z" fill="#1B3B6F"/>
    <path d="M55 56.25H52.5V58.75H55V56.25Z" fill="#76CD22"/>
    <path d="M55 56.25H52.5V58.75H55V56.25Z" fill="#F56960"/>
    <path d="M55 56.25H52.5V58.75H55V56.25Z" fill="#1B3B6F"/>
    <path d="M75 36.25H72.5V38.75H75V36.25Z" fill="#76CD22"/>
    <path d="M75 36.25H72.5V38.75H75V36.25Z" fill="#F56960"/>
    <path d="M75 36.25H72.5V38.75H75V36.25Z" fill="#1B3B6F"/>
    <path d="M75 41.25H72.5V43.75H75V41.25Z" fill="#76CD22"/>
    <path d="M75 41.25H72.5V43.75H75V41.25Z" fill="#F56960"/>
    <path d="M75 41.25H72.5V43.75H75V41.25Z" fill="#1B3B6F"/>
    <path d="M75 46.25H72.5V48.75H75V46.25Z" fill="#76CD22"/>
    <path d="M75 46.25H72.5V48.75H75V46.25Z" fill="#F56960"/>
    <path d="M75 46.25H72.5V48.75H75V46.25Z" fill="#1B3B6F"/>
    <path d="M75 51.25H72.5V53.75H75V51.25Z" fill="#76CD22"/>
    <path d="M75 51.25H72.5V53.75H75V51.25Z" fill="#F56960"/>
    <path d="M75 51.25H72.5V53.75H75V51.25Z" fill="#1B3B6F"/>
    <path d="M75 56.25H72.5V58.75H75V56.25Z" fill="#76CD22"/>
    <path d="M75 56.25H72.5V58.75H75V56.25Z" fill="#F56960"/>
    <path d="M75 56.25H72.5V58.75H75V56.25Z" fill="#1B3B6F"/>
    <path d="M25 50H22.5V52.5H25V50Z" fill="#76CD22"/>
    <path d="M25 50H22.5V52.5H25V50Z" fill="#F56960"/>
    <path d="M25 50H22.5V52.5H25V50Z" fill="#1B3B6F"/>
    <path d="M15 55H12.5V57.5H15V55Z" fill="#76CD22"/>
    <path d="M15 55H12.5V57.5H15V55Z" fill="#F56960"/>
    <path d="M15 55H12.5V57.5H15V55Z" fill="#1B3B6F"/>
    <path d="M6.25 32.5H3.75V35H6.25V32.5Z" fill="#76CD22"/>
    <path d="M6.25 32.5H3.75V35H6.25V32.5Z" fill="#F56960"/>
    <path d="M6.25 32.5H3.75V35H6.25V32.5Z" fill="#1B3B6F"/>
    <path d="M6.25 37.5H3.75V40H6.25V37.5Z" fill="#76CD22"/>
    <path d="M6.25 37.5H3.75V40H6.25V37.5Z" fill="#F56960"/>
    <path d="M6.25 37.5H3.75V40H6.25V37.5Z" fill="#1B3B6F"/>
    <path d="M6.25 42.5H3.75V45H6.25V42.5Z" fill="#76CD22"/>
    <path d="M6.25 42.5H3.75V45H6.25V42.5Z" fill="#F56960"/>
    <path d="M6.25 42.5H3.75V45H6.25V42.5Z" fill="#1B3B6F"/>
    <path d="M6.25 47.5H3.75V50H6.25V47.5Z" fill="#76CD22"/>
    <path d="M6.25 47.5H3.75V50H6.25V47.5Z" fill="#F56960"/>
    <path d="M6.25 47.5H3.75V50H6.25V47.5Z" fill="#1B3B6F"/>
    <path d="M6.25 52.5H3.75V55H6.25V52.5Z" fill="#76CD22"/>
    <path d="M6.25 52.5H3.75V55H6.25V52.5Z" fill="#F56960"/>
    <path d="M6.25 52.5H3.75V55H6.25V52.5Z" fill="#1B3B6F"/>
    <path d="M6.25 57.5H3.75V60H6.25V57.5Z" fill="#76CD22"/>
    <path d="M6.25 57.5H3.75V60H6.25V57.5Z" fill="#F56960"/>
    <path d="M6.25 57.5H3.75V60H6.25V57.5Z" fill="#1B3B6F"/>
    <path d="M20 55H17.5V57.5H20V55Z" fill="#76CD22"/>
    <path d="M20 55H17.5V57.5H20V55Z" fill="#F56960"/>
    <path d="M20 55H17.5V57.5H20V55Z" fill="#1B3B6F"/>
    <path d="M25 55H22.5V57.5H25V55Z" fill="#76CD22"/>
    <path d="M25 55H22.5V57.5H25V55Z" fill="#F56960"/>
    <path d="M25 55H22.5V57.5H25V55Z" fill="#1B3B6F"/>
    <path d="M79.99 32.4487C79.9837 32.3013 79.96 32.1562 79.9025 32.0187C79.8988 32.0075 79.89 32 79.885 31.99C79.8425 31.895 79.7925 31.8025 79.725 31.72L74.725 25.47C74.2513 24.8762 73.2462 24.8762 72.7725 25.47L67.7725 31.72C67.7062 31.8037 67.655 31.895 67.6125 31.99C67.6075 32 67.6 32.0088 67.595 32.0187C67.5375 32.1562 67.5137 32.3013 67.5075 32.4487C67.51 32.4675 67.5 32.4825 67.5 32.5V38.75H65V27.5H67.5C68.19 27.5 68.75 26.94 68.75 26.25V20C68.75 19.31 68.19 18.75 67.5 18.75H65V16.25H62.5V18.75H60C59.31 18.75 58.75 19.31 58.75 20V26.25C58.75 26.94 59.31 27.5 60 27.5H62.5V38.75H60V32.5C60 31.81 59.44 31.25 58.75 31.25H55V27.5C55 26.81 54.44 26.25 53.75 26.25H48.75C48.06 26.25 47.5 26.81 47.5 27.5V31.25H45V21.25C45 20.56 44.44 20 43.75 20H37.5V16.445C38.2962 16.7925 39.1463 16.9788 40 16.9788C41.6 16.9788 43.2012 16.37 44.42 15.1513C44.655 14.9163 44.7862 14.5987 44.7862 14.2675C44.7862 13.9362 44.655 13.6175 44.42 13.3837L42.0275 10.9913L44.635 8.38375L42.8675 6.61625L40.26 9.22375L37.3475 6.3125C36.8587 5.82375 36.0688 5.82375 35.58 6.3125C33.3638 8.52875 33.1862 11.9963 35 14.44V20H30V16.25C30 15.56 29.44 15 28.75 15H26.1037L24.99 6.095C24.9125 5.47 24.38 5 23.75 5H20V0H17.5V5H13.75C13.12 5 12.5875 5.47 12.51 6.095L11.3962 15H8.75C8.06 15 7.5 15.56 7.5 16.25V27.5H1.25C0.56 27.5 0 28.06 0 28.75V62.5V63.75V65H1.25H8.75H28.75H43.75H58.75H68.75H78.75H80V63.75V62.5V32.5C80 32.4825 79.99 32.4675 79.99 32.4487ZM61.25 21.25H66.25V25H61.25V21.25ZM36.615 9.11625L41.6162 14.1175C40.2225 14.78 38.5 14.5363 37.3475 13.385C36.195 12.2312 35.9512 10.51 36.615 9.11625ZM73.75 28.2512L76.1488 31.25H71.35L73.75 28.2512ZM50 28.75H52.5V31.25H50V28.75ZM14.8538 7.5H22.6463L23.5838 15H13.9163L14.8538 7.5ZM2.5 30H7.5V62.5H2.5V30ZM10 28.75V17.5H12.5H25H27.5V21.25V62.5H20V60H17.5V62.5H10V28.75ZM30 22.5H42.5V32.5V62.5H30V22.5ZM45 33.75H57.5V40V62.5H45V33.75ZM60 41.25H67.5V62.5H60V41.25ZM70 62.5V40V33.75H77.5V62.5H70Z" fill="#76CD22"/>
    <path d="M79.99 32.4487C79.9837 32.3013 79.96 32.1562 79.9025 32.0187C79.8988 32.0075 79.89 32 79.885 31.99C79.8425 31.895 79.7925 31.8025 79.725 31.72L74.725 25.47C74.2513 24.8762 73.2462 24.8762 72.7725 25.47L67.7725 31.72C67.7062 31.8037 67.655 31.895 67.6125 31.99C67.6075 32 67.6 32.0088 67.595 32.0187C67.5375 32.1562 67.5137 32.3013 67.5075 32.4487C67.51 32.4675 67.5 32.4825 67.5 32.5V38.75H65V27.5H67.5C68.19 27.5 68.75 26.94 68.75 26.25V20C68.75 19.31 68.19 18.75 67.5 18.75H65V16.25H62.5V18.75H60C59.31 18.75 58.75 19.31 58.75 20V26.25C58.75 26.94 59.31 27.5 60 27.5H62.5V38.75H60V32.5C60 31.81 59.44 31.25 58.75 31.25H55V27.5C55 26.81 54.44 26.25 53.75 26.25H48.75C48.06 26.25 47.5 26.81 47.5 27.5V31.25H45V21.25C45 20.56 44.44 20 43.75 20H37.5V16.445C38.2962 16.7925 39.1463 16.9788 40 16.9788C41.6 16.9788 43.2012 16.37 44.42 15.1513C44.655 14.9163 44.7862 14.5987 44.7862 14.2675C44.7862 13.9362 44.655 13.6175 44.42 13.3837L42.0275 10.9913L44.635 8.38375L42.8675 6.61625L40.26 9.22375L37.3475 6.3125C36.8587 5.82375 36.0688 5.82375 35.58 6.3125C33.3638 8.52875 33.1862 11.9963 35 14.44V20H30V16.25C30 15.56 29.44 15 28.75 15H26.1037L24.99 6.095C24.9125 5.47 24.38 5 23.75 5H20V0H17.5V5H13.75C13.12 5 12.5875 5.47 12.51 6.095L11.3962 15H8.75C8.06 15 7.5 15.56 7.5 16.25V27.5H1.25C0.56 27.5 0 28.06 0 28.75V62.5V63.75V65H1.25H8.75H28.75H43.75H58.75H68.75H78.75H80V63.75V62.5V32.5C80 32.4825 79.99 32.4675 79.99 32.4487ZM61.25 21.25H66.25V25H61.25V21.25ZM36.615 9.11625L41.6162 14.1175C40.2225 14.78 38.5 14.5363 37.3475 13.385C36.195 12.2312 35.9512 10.51 36.615 9.11625ZM73.75 28.2512L76.1488 31.25H71.35L73.75 28.2512ZM50 28.75H52.5V31.25H50V28.75ZM14.8538 7.5H22.6463L23.5838 15H13.9163L14.8538 7.5ZM2.5 30H7.5V62.5H2.5V30ZM10 28.75V17.5H12.5H25H27.5V21.25V62.5H20V60H17.5V62.5H10V28.75ZM30 22.5H42.5V32.5V62.5H30V22.5ZM45 33.75H57.5V40V62.5H45V33.75ZM60 41.25H67.5V62.5H60V41.25ZM70 62.5V40V33.75H77.5V62.5H70Z" fill="#F56960"/>
    <path d="M79.99 32.4487C79.9837 32.3013 79.96 32.1562 79.9025 32.0187C79.8988 32.0075 79.89 32 79.885 31.99C79.8425 31.895 79.7925 31.8025 79.725 31.72L74.725 25.47C74.2513 24.8762 73.2462 24.8762 72.7725 25.47L67.7725 31.72C67.7062 31.8037 67.655 31.895 67.6125 31.99C67.6075 32 67.6 32.0088 67.595 32.0187C67.5375 32.1562 67.5137 32.3013 67.5075 32.4487C67.51 32.4675 67.5 32.4825 67.5 32.5V38.75H65V27.5H67.5C68.19 27.5 68.75 26.94 68.75 26.25V20C68.75 19.31 68.19 18.75 67.5 18.75H65V16.25H62.5V18.75H60C59.31 18.75 58.75 19.31 58.75 20V26.25C58.75 26.94 59.31 27.5 60 27.5H62.5V38.75H60V32.5C60 31.81 59.44 31.25 58.75 31.25H55V27.5C55 26.81 54.44 26.25 53.75 26.25H48.75C48.06 26.25 47.5 26.81 47.5 27.5V31.25H45V21.25C45 20.56 44.44 20 43.75 20H37.5V16.445C38.2962 16.7925 39.1463 16.9788 40 16.9788C41.6 16.9788 43.2012 16.37 44.42 15.1513C44.655 14.9163 44.7862 14.5987 44.7862 14.2675C44.7862 13.9362 44.655 13.6175 44.42 13.3837L42.0275 10.9913L44.635 8.38375L42.8675 6.61625L40.26 9.22375L37.3475 6.3125C36.8587 5.82375 36.0688 5.82375 35.58 6.3125C33.3638 8.52875 33.1862 11.9963 35 14.44V20H30V16.25C30 15.56 29.44 15 28.75 15H26.1037L24.99 6.095C24.9125 5.47 24.38 5 23.75 5H20V0H17.5V5H13.75C13.12 5 12.5875 5.47 12.51 6.095L11.3962 15H8.75C8.06 15 7.5 15.56 7.5 16.25V27.5H1.25C0.56 27.5 0 28.06 0 28.75V62.5V63.75V65H1.25H8.75H28.75H43.75H58.75H68.75H78.75H80V63.75V62.5V32.5C80 32.4825 79.99 32.4675 79.99 32.4487ZM61.25 21.25H66.25V25H61.25V21.25ZM36.615 9.11625L41.6162 14.1175C40.2225 14.78 38.5 14.5363 37.3475 13.385C36.195 12.2312 35.9512 10.51 36.615 9.11625ZM73.75 28.2512L76.1488 31.25H71.35L73.75 28.2512ZM50 28.75H52.5V31.25H50V28.75ZM14.8538 7.5H22.6463L23.5838 15H13.9163L14.8538 7.5ZM2.5 30H7.5V62.5H2.5V30ZM10 28.75V17.5H12.5H25H27.5V21.25V62.5H20V60H17.5V62.5H10V28.75ZM30 22.5H42.5V32.5V62.5H30V22.5ZM45 33.75H57.5V40V62.5H45V33.75ZM60 41.25H67.5V62.5H60V41.25ZM70 62.5V40V33.75H77.5V62.5H70Z" fill="#1B3B6F"/>
    <path d="M31.25 67.5H21.25V70H31.25V67.5Z" fill="#76CD22"/>
    <path d="M31.25 67.5H21.25V70H31.25V67.5Z" fill="#F56960"/>
    <path d="M31.25 67.5H21.25V70H31.25V67.5Z" fill="#1B3B6F"/>
    <path d="M60 67.5H50V70H60V67.5Z" fill="#76CD22"/>
    <path d="M60 67.5H50V70H60V67.5Z" fill="#F56960"/>
    <path d="M60 67.5H50V70H60V67.5Z" fill="#1B3B6F"/>
    <path d="M80 67.5H77.5V70H80V67.5Z" fill="#76CD22"/>
    <path d="M80 67.5H77.5V70H80V67.5Z" fill="#F56960"/>
    <path d="M80 67.5H77.5V70H80V67.5Z" fill="#1B3B6F"/>
    <path d="M2.5 67.5H0V70H2.5V67.5Z" fill="#76CD22"/>
    <path d="M2.5 67.5H0V70H2.5V67.5Z" fill="#F56960"/>
    <path d="M2.5 67.5H0V70H2.5V67.5Z" fill="#1B3B6F"/>
    <path d="M21.25 10H16.25V12.5H21.25V10Z" fill="#76CD22"/>
    <path d="M21.25 10H16.25V12.5H21.25V10Z" fill="#F56960"/>
    <path d="M21.25 10H16.25V12.5H21.25V10Z" fill="#1B3B6F"/>
</svg>
