<svg width="80" height="80" viewBox="0 0 80 80" fill="none" xmlns="http://www.w3.org/2000/svg">
    <path d="M50.6665 42.6665H43.9998V38.6665C43.9998 36.4612 42.2052 34.6665 39.9998 34.6665H37.3332C36.5972 34.6665 35.9998 35.2625 35.9998 35.9998V43.4478L32.7812 46.6665H23.9998C23.2638 46.6665 22.6665 47.2625 22.6665 47.9998V59.9998C22.6665 60.7372 23.2638 61.3332 23.9998 61.3332H33.3332H50.6665C54.3425 61.3332 57.3332 58.3425 57.3332 54.6665V49.3332C57.3332 45.6572 54.3425 42.6665 50.6665 42.6665ZM31.9998 58.6665H25.3332V49.3332H31.9998V58.6665ZM54.6665 54.6665C54.6665 56.8718 52.8718 58.6665 50.6665 58.6665H34.6665V48.5518L38.2758 44.9425C38.5265 44.6932 38.6665 44.3545 38.6665 43.9998V37.3332H39.9998C40.7345 37.3332 41.3332 37.9305 41.3332 38.6665V43.9998C41.3332 44.7372 41.9305 45.3332 42.6665 45.3332H50.6665C52.8718 45.3332 54.6665 47.1278 54.6665 49.3332V54.6665Z" fill="#76CD22"/>
    <path d="M50.6665 42.6665H43.9998V38.6665C43.9998 36.4612 42.2052 34.6665 39.9998 34.6665H37.3332C36.5972 34.6665 35.9998 35.2625 35.9998 35.9998V43.4478L32.7812 46.6665H23.9998C23.2638 46.6665 22.6665 47.2625 22.6665 47.9998V59.9998C22.6665 60.7372 23.2638 61.3332 23.9998 61.3332H33.3332H50.6665C54.3425 61.3332 57.3332 58.3425 57.3332 54.6665V49.3332C57.3332 45.6572 54.3425 42.6665 50.6665 42.6665ZM31.9998 58.6665H25.3332V49.3332H31.9998V58.6665ZM54.6665 54.6665C54.6665 56.8718 52.8718 58.6665 50.6665 58.6665H34.6665V48.5518L38.2758 44.9425C38.5265 44.6932 38.6665 44.3545 38.6665 43.9998V37.3332H39.9998C40.7345 37.3332 41.3332 37.9305 41.3332 38.6665V43.9998C41.3332 44.7372 41.9305 45.3332 42.6665 45.3332H50.6665C52.8718 45.3332 54.6665 47.1278 54.6665 49.3332V54.6665Z" fill="#F56960"/>
    <path d="M50.6665 42.6665H43.9998V38.6665C43.9998 36.4612 42.2052 34.6665 39.9998 34.6665H37.3332C36.5972 34.6665 35.9998 35.2625 35.9998 35.9998V43.4478L32.7812 46.6665H23.9998C23.2638 46.6665 22.6665 47.2625 22.6665 47.9998V59.9998C22.6665 60.7372 23.2638 61.3332 23.9998 61.3332H33.3332H50.6665C54.3425 61.3332 57.3332 58.3425 57.3332 54.6665V49.3332C57.3332 45.6572 54.3425 42.6665 50.6665 42.6665ZM31.9998 58.6665H25.3332V49.3332H31.9998V58.6665ZM54.6665 54.6665C54.6665 56.8718 52.8718 58.6665 50.6665 58.6665H34.6665V48.5518L38.2758 44.9425C38.5265 44.6932 38.6665 44.3545 38.6665 43.9998V37.3332H39.9998C40.7345 37.3332 41.3332 37.9305 41.3332 38.6665V43.9998C41.3332 44.7372 41.9305 45.3332 42.6665 45.3332H50.6665C52.8718 45.3332 54.6665 47.1278 54.6665 49.3332V54.6665Z" fill="#1B3B6F"/>
    <path d="M80 20V6.66667C80 2.99067 77.0093 0 73.3333 0H49.3333C45.6573 0 42.6667 2.99067 42.6667 6.66667V20C42.6667 20.456 42.7133 20.9027 42.8013 21.3333H37.1987C37.2867 20.9027 37.3333 20.456 37.3333 20V6.66667C37.3333 2.99067 34.3427 0 30.6667 0H6.66667C2.99067 0 0 2.99067 0 6.66667V20C0 23.676 2.99067 26.6667 6.66667 26.6667V69.3333H1.33333C0.597333 69.3333 0 69.9293 0 70.6667C0 75.812 4.18667 80 9.33333 80H70.6667C75.8133 80 80 75.812 80 70.6667C80 69.9293 79.4027 69.3333 78.6667 69.3333H73.3333V26.6667C77.0093 26.6667 80 23.676 80 20ZM35.072 24.964C35.3067 24.756 35.5213 24.5307 35.724 24.292C35.8067 24.1947 35.8947 24.1027 35.972 24H44.0267C44.104 24.1027 44.192 24.1947 44.2747 24.292C44.4773 24.5307 44.692 24.756 44.9267 24.964C45.0493 25.0733 45.176 25.1773 45.3053 25.276C45.4893 25.4173 45.6773 25.5493 45.876 25.672C46.0853 25.8013 46.3013 25.9187 46.5253 26.024C46.6587 26.0867 46.792 26.1467 46.9293 26.2C47.2413 26.3227 47.5627 26.4253 47.892 26.5C47.9787 26.5187 48.0667 26.532 48.1547 26.548C48.5413 26.6187 48.9347 26.6667 49.3333 26.6667H54.6667V29.3333H25.3333V26.6667H30.6667C31.0653 26.6667 31.4587 26.6187 31.844 26.548C31.932 26.532 32.02 26.52 32.1067 26.5C32.436 26.4253 32.756 26.324 33.0693 26.2C33.208 26.1467 33.34 26.0867 33.4733 26.024C33.696 25.9187 33.912 25.8013 34.1227 25.672C34.3213 25.5507 34.5093 25.4173 34.6933 25.276C34.8227 25.176 34.9493 25.0733 35.072 24.964ZM13.3333 66.6667H66.6667C67.4027 66.6667 68 66.0707 68 65.3333V30.6667C68 29.9293 67.4027 29.3333 66.6667 29.3333H64.552L67.2187 26.6667H70.6667V69.3333H9.33333V26.6667H12.7813L15.448 29.3333H13.3333C12.5973 29.3333 12 29.9293 12 30.6667V65.3333C12 66.0707 12.5973 66.6667 13.3333 66.6667ZM65.3333 32V64H14.6667V32H18.1147L23.0573 36.9427C23.1733 37.0587 23.3093 37.14 23.452 37.2053C23.4933 37.224 23.5333 37.236 23.576 37.2493C23.6867 37.2867 23.8 37.3093 23.9173 37.316C23.9453 37.3187 23.972 37.3333 24 37.3333C24.016 37.3333 24.032 37.324 24.048 37.324C24.204 37.3187 24.36 37.2947 24.5093 37.232C25.008 37.0267 25.3333 36.5387 25.3333 36V32H54.6667V36C54.6667 36.5387 54.992 37.0267 55.4893 37.232C55.6387 37.2947 55.7947 37.3187 55.9507 37.324C55.968 37.324 55.984 37.3333 56 37.3333C56.028 37.3333 56.0547 37.3187 56.084 37.3173C56.2 37.3093 56.312 37.288 56.4213 37.2507C56.4653 37.236 56.508 37.224 56.5493 37.2053C56.692 37.14 56.828 37.0587 56.9427 36.944L61.8853 32H65.3333ZM2.66667 20V6.66667C2.66667 4.46133 4.46133 2.66667 6.66667 2.66667H30.6667C32.872 2.66667 34.6667 4.46133 34.6667 6.66667V20C34.6667 20.7227 34.4587 21.392 34.1227 21.9773C34.1187 21.984 34.112 21.9893 34.108 21.996C33.7573 22.5987 33.2733 23.0773 32.712 23.4187C32.6533 23.4547 32.592 23.4853 32.5307 23.5173C32.316 23.6333 32.0907 23.724 31.8587 23.7987C31.776 23.8253 31.696 23.8547 31.6107 23.876C31.3053 23.9507 30.9907 24 30.6667 24H24C23.264 24 22.6667 24.596 22.6667 25.3333V30.6667V32.7813L19.6093 29.724L14.276 24.3907C14.0267 24.14 13.6867 24 13.3333 24H8H6.66667C4.46133 24 2.66667 22.2053 2.66667 20ZM77.1987 72C76.58 75.0387 73.8867 77.3333 70.6667 77.3333H9.33333C6.11333 77.3333 3.42 75.0387 2.80133 72H8H72H77.1987ZM72 24H66.6667C66.3133 24 65.9733 24.14 65.724 24.3907L60.3907 29.724L57.3333 32.7813V30.6667V25.3333C57.3333 24.596 56.736 24 56 24H49.3333C49.0093 24 48.6947 23.9507 48.3893 23.876C48.304 23.8547 48.224 23.8253 48.1413 23.7987C47.9093 23.7253 47.6827 23.6333 47.4693 23.5173C47.408 23.4853 47.3467 23.4547 47.288 23.4187C46.7267 23.076 46.2427 22.5987 45.892 21.996C45.888 21.9893 45.8813 21.984 45.8773 21.9773C45.5413 21.392 45.3333 20.7227 45.3333 20V6.66667C45.3333 4.46133 47.128 2.66667 49.3333 2.66667H73.3333C75.5387 2.66667 77.3333 4.46133 77.3333 6.66667V20C77.3333 22.2053 75.5387 24 73.3333 24H72Z" fill="#76CD22"/>
    <path d="M80 20V6.66667C80 2.99067 77.0093 0 73.3333 0H49.3333C45.6573 0 42.6667 2.99067 42.6667 6.66667V20C42.6667 20.456 42.7133 20.9027 42.8013 21.3333H37.1987C37.2867 20.9027 37.3333 20.456 37.3333 20V6.66667C37.3333 2.99067 34.3427 0 30.6667 0H6.66667C2.99067 0 0 2.99067 0 6.66667V20C0 23.676 2.99067 26.6667 6.66667 26.6667V69.3333H1.33333C0.597333 69.3333 0 69.9293 0 70.6667C0 75.812 4.18667 80 9.33333 80H70.6667C75.8133 80 80 75.812 80 70.6667C80 69.9293 79.4027 69.3333 78.6667 69.3333H73.3333V26.6667C77.0093 26.6667 80 23.676 80 20ZM35.072 24.964C35.3067 24.756 35.5213 24.5307 35.724 24.292C35.8067 24.1947 35.8947 24.1027 35.972 24H44.0267C44.104 24.1027 44.192 24.1947 44.2747 24.292C44.4773 24.5307 44.692 24.756 44.9267 24.964C45.0493 25.0733 45.176 25.1773 45.3053 25.276C45.4893 25.4173 45.6773 25.5493 45.876 25.672C46.0853 25.8013 46.3013 25.9187 46.5253 26.024C46.6587 26.0867 46.792 26.1467 46.9293 26.2C47.2413 26.3227 47.5627 26.4253 47.892 26.5C47.9787 26.5187 48.0667 26.532 48.1547 26.548C48.5413 26.6187 48.9347 26.6667 49.3333 26.6667H54.6667V29.3333H25.3333V26.6667H30.6667C31.0653 26.6667 31.4587 26.6187 31.844 26.548C31.932 26.532 32.02 26.52 32.1067 26.5C32.436 26.4253 32.756 26.324 33.0693 26.2C33.208 26.1467 33.34 26.0867 33.4733 26.024C33.696 25.9187 33.912 25.8013 34.1227 25.672C34.3213 25.5507 34.5093 25.4173 34.6933 25.276C34.8227 25.176 34.9493 25.0733 35.072 24.964ZM13.3333 66.6667H66.6667C67.4027 66.6667 68 66.0707 68 65.3333V30.6667C68 29.9293 67.4027 29.3333 66.6667 29.3333H64.552L67.2187 26.6667H70.6667V69.3333H9.33333V26.6667H12.7813L15.448 29.3333H13.3333C12.5973 29.3333 12 29.9293 12 30.6667V65.3333C12 66.0707 12.5973 66.6667 13.3333 66.6667ZM65.3333 32V64H14.6667V32H18.1147L23.0573 36.9427C23.1733 37.0587 23.3093 37.14 23.452 37.2053C23.4933 37.224 23.5333 37.236 23.576 37.2493C23.6867 37.2867 23.8 37.3093 23.9173 37.316C23.9453 37.3187 23.972 37.3333 24 37.3333C24.016 37.3333 24.032 37.324 24.048 37.324C24.204 37.3187 24.36 37.2947 24.5093 37.232C25.008 37.0267 25.3333 36.5387 25.3333 36V32H54.6667V36C54.6667 36.5387 54.992 37.0267 55.4893 37.232C55.6387 37.2947 55.7947 37.3187 55.9507 37.324C55.968 37.324 55.984 37.3333 56 37.3333C56.028 37.3333 56.0547 37.3187 56.084 37.3173C56.2 37.3093 56.312 37.288 56.4213 37.2507C56.4653 37.236 56.508 37.224 56.5493 37.2053C56.692 37.14 56.828 37.0587 56.9427 36.944L61.8853 32H65.3333ZM2.66667 20V6.66667C2.66667 4.46133 4.46133 2.66667 6.66667 2.66667H30.6667C32.872 2.66667 34.6667 4.46133 34.6667 6.66667V20C34.6667 20.7227 34.4587 21.392 34.1227 21.9773C34.1187 21.984 34.112 21.9893 34.108 21.996C33.7573 22.5987 33.2733 23.0773 32.712 23.4187C32.6533 23.4547 32.592 23.4853 32.5307 23.5173C32.316 23.6333 32.0907 23.724 31.8587 23.7987C31.776 23.8253 31.696 23.8547 31.6107 23.876C31.3053 23.9507 30.9907 24 30.6667 24H24C23.264 24 22.6667 24.596 22.6667 25.3333V30.6667V32.7813L19.6093 29.724L14.276 24.3907C14.0267 24.14 13.6867 24 13.3333 24H8H6.66667C4.46133 24 2.66667 22.2053 2.66667 20ZM77.1987 72C76.58 75.0387 73.8867 77.3333 70.6667 77.3333H9.33333C6.11333 77.3333 3.42 75.0387 2.80133 72H8H72H77.1987ZM72 24H66.6667C66.3133 24 65.9733 24.14 65.724 24.3907L60.3907 29.724L57.3333 32.7813V30.6667V25.3333C57.3333 24.596 56.736 24 56 24H49.3333C49.0093 24 48.6947 23.9507 48.3893 23.876C48.304 23.8547 48.224 23.8253 48.1413 23.7987C47.9093 23.7253 47.6827 23.6333 47.4693 23.5173C47.408 23.4853 47.3467 23.4547 47.288 23.4187C46.7267 23.076 46.2427 22.5987 45.892 21.996C45.888 21.9893 45.8813 21.984 45.8773 21.9773C45.5413 21.392 45.3333 20.7227 45.3333 20V6.66667C45.3333 4.46133 47.128 2.66667 49.3333 2.66667H73.3333C75.5387 2.66667 77.3333 4.46133 77.3333 6.66667V20C77.3333 22.2053 75.5387 24 73.3333 24H72Z" fill="#F56960"/>
    <path d="M80 20V6.66667C80 2.99067 77.0093 0 73.3333 0H49.3333C45.6573 0 42.6667 2.99067 42.6667 6.66667V20C42.6667 20.456 42.7133 20.9027 42.8013 21.3333H37.1987C37.2867 20.9027 37.3333 20.456 37.3333 20V6.66667C37.3333 2.99067 34.3427 0 30.6667 0H6.66667C2.99067 0 0 2.99067 0 6.66667V20C0 23.676 2.99067 26.6667 6.66667 26.6667V69.3333H1.33333C0.597333 69.3333 0 69.9293 0 70.6667C0 75.812 4.18667 80 9.33333 80H70.6667C75.8133 80 80 75.812 80 70.6667C80 69.9293 79.4027 69.3333 78.6667 69.3333H73.3333V26.6667C77.0093 26.6667 80 23.676 80 20ZM35.072 24.964C35.3067 24.756 35.5213 24.5307 35.724 24.292C35.8067 24.1947 35.8947 24.1027 35.972 24H44.0267C44.104 24.1027 44.192 24.1947 44.2747 24.292C44.4773 24.5307 44.692 24.756 44.9267 24.964C45.0493 25.0733 45.176 25.1773 45.3053 25.276C45.4893 25.4173 45.6773 25.5493 45.876 25.672C46.0853 25.8013 46.3013 25.9187 46.5253 26.024C46.6587 26.0867 46.792 26.1467 46.9293 26.2C47.2413 26.3227 47.5627 26.4253 47.892 26.5C47.9787 26.5187 48.0667 26.532 48.1547 26.548C48.5413 26.6187 48.9347 26.6667 49.3333 26.6667H54.6667V29.3333H25.3333V26.6667H30.6667C31.0653 26.6667 31.4587 26.6187 31.844 26.548C31.932 26.532 32.02 26.52 32.1067 26.5C32.436 26.4253 32.756 26.324 33.0693 26.2C33.208 26.1467 33.34 26.0867 33.4733 26.024C33.696 25.9187 33.912 25.8013 34.1227 25.672C34.3213 25.5507 34.5093 25.4173 34.6933 25.276C34.8227 25.176 34.9493 25.0733 35.072 24.964ZM13.3333 66.6667H66.6667C67.4027 66.6667 68 66.0707 68 65.3333V30.6667C68 29.9293 67.4027 29.3333 66.6667 29.3333H64.552L67.2187 26.6667H70.6667V69.3333H9.33333V26.6667H12.7813L15.448 29.3333H13.3333C12.5973 29.3333 12 29.9293 12 30.6667V65.3333C12 66.0707 12.5973 66.6667 13.3333 66.6667ZM65.3333 32V64H14.6667V32H18.1147L23.0573 36.9427C23.1733 37.0587 23.3093 37.14 23.452 37.2053C23.4933 37.224 23.5333 37.236 23.576 37.2493C23.6867 37.2867 23.8 37.3093 23.9173 37.316C23.9453 37.3187 23.972 37.3333 24 37.3333C24.016 37.3333 24.032 37.324 24.048 37.324C24.204 37.3187 24.36 37.2947 24.5093 37.232C25.008 37.0267 25.3333 36.5387 25.3333 36V32H54.6667V36C54.6667 36.5387 54.992 37.0267 55.4893 37.232C55.6387 37.2947 55.7947 37.3187 55.9507 37.324C55.968 37.324 55.984 37.3333 56 37.3333C56.028 37.3333 56.0547 37.3187 56.084 37.3173C56.2 37.3093 56.312 37.288 56.4213 37.2507C56.4653 37.236 56.508 37.224 56.5493 37.2053C56.692 37.14 56.828 37.0587 56.9427 36.944L61.8853 32H65.3333ZM2.66667 20V6.66667C2.66667 4.46133 4.46133 2.66667 6.66667 2.66667H30.6667C32.872 2.66667 34.6667 4.46133 34.6667 6.66667V20C34.6667 20.7227 34.4587 21.392 34.1227 21.9773C34.1187 21.984 34.112 21.9893 34.108 21.996C33.7573 22.5987 33.2733 23.0773 32.712 23.4187C32.6533 23.4547 32.592 23.4853 32.5307 23.5173C32.316 23.6333 32.0907 23.724 31.8587 23.7987C31.776 23.8253 31.696 23.8547 31.6107 23.876C31.3053 23.9507 30.9907 24 30.6667 24H24C23.264 24 22.6667 24.596 22.6667 25.3333V30.6667V32.7813L19.6093 29.724L14.276 24.3907C14.0267 24.14 13.6867 24 13.3333 24H8H6.66667C4.46133 24 2.66667 22.2053 2.66667 20ZM77.1987 72C76.58 75.0387 73.8867 77.3333 70.6667 77.3333H9.33333C6.11333 77.3333 3.42 75.0387 2.80133 72H8H72H77.1987ZM72 24H66.6667C66.3133 24 65.9733 24.14 65.724 24.3907L60.3907 29.724L57.3333 32.7813V30.6667V25.3333C57.3333 24.596 56.736 24 56 24H49.3333C49.0093 24 48.6947 23.9507 48.3893 23.876C48.304 23.8547 48.224 23.8253 48.1413 23.7987C47.9093 23.7253 47.6827 23.6333 47.4693 23.5173C47.408 23.4853 47.3467 23.4547 47.288 23.4187C46.7267 23.076 46.2427 22.5987 45.892 21.996C45.888 21.9893 45.8813 21.984 45.8773 21.9773C45.5413 21.392 45.3333 20.7227 45.3333 20V6.66667C45.3333 4.46133 47.128 2.66667 49.3333 2.66667H73.3333C75.5387 2.66667 77.3333 4.46133 77.3333 6.66667V20C77.3333 22.2053 75.5387 24 73.3333 24H72Z" fill="#1B3B6F"/>
    <path d="M57.3332 12H54.6665V14.6667H57.3332V12Z" fill="#76CD22"/>
    <path d="M57.3332 12H54.6665V14.6667H57.3332V12Z" fill="#F56960"/>
    <path d="M57.3332 12H54.6665V14.6667H57.3332V12Z" fill="#1B3B6F"/>
    <path d="M62.6667 12H60V14.6667H62.6667V12Z" fill="#76CD22"/>
    <path d="M62.6667 12H60V14.6667H62.6667V12Z" fill="#F56960"/>
    <path d="M62.6667 12H60V14.6667H62.6667V12Z" fill="#1B3B6F"/>
    <path d="M68.0002 12H65.3335V14.6667H68.0002V12Z" fill="#76CD22"/>
    <path d="M68.0002 12H65.3335V14.6667H68.0002V12Z" fill="#F56960"/>
    <path d="M68.0002 12H65.3335V14.6667H68.0002V12Z" fill="#1B3B6F"/>
    <path d="M25.6092 9.05733C23.9866 7.43467 21.3466 7.43467 19.7239 9.05733L18.6666 10.1147L17.6092 9.05733C15.9866 7.43467 13.3466 7.43467 11.7239 9.05733C10.9372 9.84266 10.5039 10.888 10.5039 12C10.5039 13.112 10.9372 14.1573 11.7239 14.9427L17.7239 20.9427C17.9839 21.2027 18.3252 21.3333 18.6666 21.3333C19.0079 21.3333 19.3492 21.2027 19.6092 20.9427L25.6092 14.9427C26.3959 14.1573 26.8292 13.112 26.8292 12C26.8292 10.888 26.3959 9.84266 25.6092 9.05733ZM23.7239 13.0573L18.6666 18.1147L13.6092 13.0573C13.3266 12.7747 13.1706 12.4 13.1706 12C13.1706 11.6 13.3266 11.2253 13.6092 10.9427C13.9012 10.6507 14.2839 10.5067 14.6666 10.5067C15.0492 10.5067 15.4319 10.6507 15.7239 10.9427L17.7239 12.9427C18.2452 13.464 19.0879 13.464 19.6092 12.9427L21.6092 10.9427C22.1932 10.3613 23.1399 10.3613 23.7239 10.9427C24.0066 11.2253 24.1626 11.6 24.1626 12C24.1626 12.4 24.0066 12.7747 23.7239 13.0573Z" fill="#76CD22"/>
    <path d="M25.6092 9.05733C23.9866 7.43467 21.3466 7.43467 19.7239 9.05733L18.6666 10.1147L17.6092 9.05733C15.9866 7.43467 13.3466 7.43467 11.7239 9.05733C10.9372 9.84266 10.5039 10.888 10.5039 12C10.5039 13.112 10.9372 14.1573 11.7239 14.9427L17.7239 20.9427C17.9839 21.2027 18.3252 21.3333 18.6666 21.3333C19.0079 21.3333 19.3492 21.2027 19.6092 20.9427L25.6092 14.9427C26.3959 14.1573 26.8292 13.112 26.8292 12C26.8292 10.888 26.3959 9.84266 25.6092 9.05733ZM23.7239 13.0573L18.6666 18.1147L13.6092 13.0573C13.3266 12.7747 13.1706 12.4 13.1706 12C13.1706 11.6 13.3266 11.2253 13.6092 10.9427C13.9012 10.6507 14.2839 10.5067 14.6666 10.5067C15.0492 10.5067 15.4319 10.6507 15.7239 10.9427L17.7239 12.9427C18.2452 13.464 19.0879 13.464 19.6092 12.9427L21.6092 10.9427C22.1932 10.3613 23.1399 10.3613 23.7239 10.9427C24.0066 11.2253 24.1626 11.6 24.1626 12C24.1626 12.4 24.0066 12.7747 23.7239 13.0573Z" fill="#F56960"/>
    <path d="M25.6092 9.05733C23.9866 7.43467 21.3466 7.43467 19.7239 9.05733L18.6666 10.1147L17.6092 9.05733C15.9866 7.43467 13.3466 7.43467 11.7239 9.05733C10.9372 9.84266 10.5039 10.888 10.5039 12C10.5039 13.112 10.9372 14.1573 11.7239 14.9427L17.7239 20.9427C17.9839 21.2027 18.3252 21.3333 18.6666 21.3333C19.0079 21.3333 19.3492 21.2027 19.6092 20.9427L25.6092 14.9427C26.3959 14.1573 26.8292 13.112 26.8292 12C26.8292 10.888 26.3959 9.84266 25.6092 9.05733ZM23.7239 13.0573L18.6666 18.1147L13.6092 13.0573C13.3266 12.7747 13.1706 12.4 13.1706 12C13.1706 11.6 13.3266 11.2253 13.6092 10.9427C13.9012 10.6507 14.2839 10.5067 14.6666 10.5067C15.0492 10.5067 15.4319 10.6507 15.7239 10.9427L17.7239 12.9427C18.2452 13.464 19.0879 13.464 19.6092 12.9427L21.6092 10.9427C22.1932 10.3613 23.1399 10.3613 23.7239 10.9427C24.0066 11.2253 24.1626 11.6 24.1626 12C24.1626 12.4 24.0066 12.7747 23.7239 13.0573Z" fill="#1B3B6F"/>
</svg>
