<?xml version="1.0" encoding="utf-8"?>
<svg        version="1.1"
            id="Layer_1"
            xmlns="http://www.w3.org/2000/svg"
            xmlns:xlink="http://www.w3.org/1999/xlink"
            x="0px"
            y="0px"
            xml:space="preserve"
            viewBox="0 0 160.91 91.8"
>
    <path d="M78.73,91.42h9.62s2.91-.32,4.39-1.92,1.32-4.22,1.32-4.22-.19-12.9,5.8-14.81,13.49,12.47,21.52,18c6.08,4.17,10.69,3.26,10.69,3.26l21.49-.3s11.24-.69,5.91-9.53c-.44-.72-3.1-6.54-16-18.49C130,50.89,131.83,52.91,148.06,31.28c9.88-13.18,13.84-21.22,12.6-24.66-1.18-3.28-8.45-2.42-8.45-2.42L128,4.35a5.5,5.5,0,0,0-3.12.55,6.76,6.76,0,0,0-2.13,2.6,140.39,140.39,0,0,1-8.94,18.87C103.05,44.66,98.74,45.63,97,44.49c-4.1-2.65-3.07-10.64-3.07-16.31,0-17.73,2.69-25.12-5.24-27C86,.51,84.11.09,77.38,0,68.75-.07,61.44,0,57.3,2.07c-2.75,1.35-4.88,4.35-3.58,4.52,1.6.21,5.22,1,7.14,3.59,2.48,3.37,2.39,10.95,2.39,10.95S64.68,42,59.93,44.6c-3.26,1.78-7.74-1.85-17.34-18.45a154.35,154.35,0,0,1-8.64-17.9,7.19,7.19,0,0,0-2-2.7,10,10,0,0,0-3.72-1.5l-23,.15S1.79,4.3.53,5.8C-.6,7.14.44,9.9.44,9.9S18.43,52,38.82,73.23C57.51,92.69,78.73,91.42,78.73,91.42Z"/>
</svg>
